<svg width="9" height="17" viewBox="0 0 9 17" fill="none" xmlns="http://www.w3.org/2000/svg">
<path d="M7.08771 16.9999C6.90632 17.0005 6.72709 16.9605 6.56321 16.8828C6.39932 16.805 6.25493 16.6915 6.14066 16.5507L0.276209 9.26565C0.0976269 9.04839 0 8.77588 0 8.49465C0 8.21342 0.0976269 7.9409 0.276209 7.72365L6.34706 0.438622C6.55316 0.190668 6.84931 0.0347389 7.17036 0.00513777C7.49142 -0.0244634 7.81109 0.0746882 8.05905 0.28078C8.307 0.486871 8.46293 0.783022 8.49253 1.10408C8.52213 1.42514 8.42298 1.74481 8.21689 1.99276L2.78954 8.50072L8.03476 15.0087C8.18323 15.1869 8.27755 15.4039 8.30654 15.6341C8.33554 15.8642 8.298 16.0978 8.19837 16.3073C8.09874 16.5168 7.94119 16.6934 7.74436 16.8161C7.54753 16.9388 7.31966 17.0026 7.08771 16.9999Z" fill="black"/>
</svg>
