<svg width="204" height="179" viewBox="0 0 204 179" fill="none" xmlns="http://www.w3.org/2000/svg">
<circle cx="115" cy="90" r="89" fill="#F3F3F3" fill-opacity="0.5"/>
<path d="M116.878 55.2574C115.984 57.6518 114.815 59.935 113.395 62.0617C112.682 63.1314 111.881 64.1402 111 65.0776C110.557 65.5451 110.093 65.9934 109.609 66.4227C109.123 66.8633 108.594 67.2546 108.031 67.591C106.327 68.6343 104.306 69.0369 102.331 68.7264C100.356 68.4159 98.5572 67.4127 97.2574 65.897C96.4148 64.9232 95.6921 63.8521 95.1048 62.7068C94.5195 61.573 93.9958 60.4087 93.5357 59.2188C93.2743 58.6336 93.0591 58.0289 92.892 57.4103C92.7302 56.7909 92.6026 56.1663 92.4805 55.541C91.9966 53.0396 91.6306 50.5217 91.2814 48.0022C90.6117 42.9588 90.105 37.9001 89.6733 32.8318L89.8445 33.1259C89.4772 32.8411 89.1584 32.499 88.9003 32.1128C88.6496 31.7456 88.4405 31.3517 88.277 30.9383C87.9606 30.1215 87.7869 29.2565 87.7635 28.3811C87.7359 27.5219 87.8088 26.6624 87.9808 25.8201C88.1601 24.9972 88.3876 24.1855 88.662 23.3892C88.9 22.6026 89.1283 21.8061 89.2841 21.0141C89.3223 20.8217 89.3504 20.6275 89.3685 20.4322C89.3766 20.3479 89.3776 20.263 89.3714 20.1784C89.3562 20.0563 89.3527 19.9329 89.3607 19.8101C89.4061 19.3388 89.5855 18.8902 89.8778 18.5173C90.0276 18.322 90.2171 18.1605 90.4338 18.0434C90.6657 17.9197 90.9312 17.8734 91.1914 17.9113C91.4349 17.951 91.6653 18.048 91.8637 18.1943C92.0623 18.3277 92.2315 18.5002 92.3608 18.7013C92.5925 19.1153 92.6505 19.6041 92.5219 20.0607C92.4078 20.4489 92.3191 20.8441 92.2563 21.2438L92.252 21.2059C92.379 21.9405 92.454 22.6831 92.4765 23.4282C92.5027 24.1685 92.4823 24.9096 92.4153 25.6473L92.3407 25.6425C92.363 24.9081 92.3391 24.1731 92.2691 23.4417C92.2029 22.7146 92.0864 21.993 91.9205 21.2819L91.9158 21.2625L91.9161 21.2438C91.959 20.8207 92.0327 20.4013 92.1366 19.9889C92.1821 19.8132 92.1923 19.6303 92.1669 19.4507C92.1414 19.271 92.0807 19.0981 91.9883 18.9419C91.7836 18.6565 91.475 18.4626 91.1286 18.4018C90.965 18.3963 90.803 18.4349 90.6595 18.5134C90.516 18.592 90.3963 18.7077 90.3131 18.8483C90.1021 19.1426 89.9745 19.4883 89.9438 19.8488C89.9403 19.9333 89.9453 20.0178 89.9586 20.1013C89.9728 20.2234 89.9758 20.3465 89.9676 20.4691C89.9535 20.6877 89.9278 20.9054 89.8908 21.1213C89.747 21.963 89.5363 22.7709 89.3144 23.5792C89.0668 24.3596 88.8653 25.1539 88.711 25.9579C88.5585 26.7456 88.4956 27.5481 88.5236 28.35C88.548 29.1381 88.7077 29.9162 88.9956 30.6505C89.1397 31.0093 89.3233 31.3511 89.543 31.6695C89.7495 31.9738 90.0005 32.2456 90.2877 32.4757L90.4449 32.5927L90.4589 32.7699C90.8594 37.8292 91.2957 42.8905 91.8039 47.9409C92.0573 50.4658 92.3237 52.9927 92.7486 55.4915C92.8623 56.1143 92.9817 56.7365 93.1337 57.3484C93.2906 57.9587 93.4953 58.5557 93.7457 59.134C94.2163 60.3095 94.7533 61.4575 95.3541 62.5723C95.9505 63.68 96.6929 64.703 97.5616 65.6141C98.4087 66.52 99.4537 67.2189 100.615 67.6565C101.77 68.0806 103.005 68.2436 104.23 68.1336C105.453 68.0126 106.637 67.6383 107.706 67.0345C108.764 66.378 109.729 65.584 110.577 64.6735C111.447 63.7649 112.258 62.8006 113.002 61.7867C114.472 59.7229 115.746 57.5273 116.809 55.2284L116.878 55.2574Z" fill="black"/>
<path d="M99.7628 18.452V11.9716L92.3799 10.7622V31.7936L99.7483 29.6495L99.7628 29.6447V29.6302L99.6952 26.643L98.5846 26.855C98.4538 26.8337 98.3362 26.763 98.2563 26.6574V28.1559L93.9057 29.9338V12.5546L98.2563 13.552V19.1218C98.6718 18.7405 99.2008 18.5053 99.7628 18.452ZM98.3673 24.6627C98.3287 24.6289 98.2901 24.5904 98.2563 24.5567V25.1059C98.2909 25.0682 98.328 25.0328 98.3673 24.9999C98.4623 24.9182 98.5745 24.8589 98.6957 24.8265L98.3673 24.6627ZM98.2563 22.0127V22.6246C98.315 22.546 98.3796 22.4719 98.4494 22.4029C98.3715 22.2799 98.3068 22.1492 98.2562 22.0127L98.2563 22.0127ZM98.2563 20.7648V21.0298C98.2911 20.9579 98.3404 20.8939 98.4011 20.8418C98.3505 20.8207 98.302 20.7949 98.2562 20.7647L98.2563 20.7648Z" fill="black"/>
<path d="M98.0101 25.9152C98.0203 26.0676 98.0495 26.2181 98.097 26.3633L93.9058 28.2472C93.9058 28.2472 94.041 18.6157 96.151 17.9652C93.9782 17.9652 93.983 14.6069 96.151 14.6069C98.2756 14.6069 98.3094 17.8255 96.2718 17.9556C96.6291 17.97 97.6721 18.4181 98.0873 22.8846C97.9222 23.1263 97.8433 23.4165 97.8635 23.7084C97.8836 24.0003 98.0016 24.277 98.1984 24.4938C98.2129 24.701 98.2177 24.9178 98.2273 25.1443C98.0599 25.3646 97.9822 25.64 98.0101 25.9152ZM99.3514 29.7625C100.293 32.8549 101.092 35.9668 101.904 39.0768L103.1 43.7467C103.505 45.3022 103.896 46.8646 104.274 48.4341C102.993 45.4666 101.959 42.3993 101.18 39.2631C100.358 36.1407 99.7469 32.9667 99.3514 29.7625ZM101.222 52.8239C101.367 52.3259 101.572 51.8472 101.832 51.3983C102.08 50.9481 102.367 50.5205 102.69 50.1203C103.013 49.7104 103.383 49.3397 103.792 49.0159C104.001 48.8483 104.229 48.7047 104.471 48.5881C104.713 48.4594 104.989 48.4058 105.262 48.4341C104.847 48.6979 104.486 49.0376 104.197 49.4352L103.273 50.5882C102.959 50.9719 102.646 51.3609 102.306 51.7336C101.97 52.1216 101.608 52.4859 101.222 52.8239Z" fill="black"/>
<path d="M125.225 41.7335C124.064 44.0224 122.894 46.3035 121.805 48.6189C121.246 49.7698 120.726 50.9372 120.224 52.1078C119.714 53.2636 119.292 54.4558 118.96 55.6744L118.883 55.9823L118.586 55.9256C117.199 55.6474 115.836 55.2611 114.51 54.7703C113.188 54.2883 111.899 53.7209 110.651 53.0716C109.41 52.4124 108.222 51.6586 107.097 50.8169C105.989 49.9415 104.992 48.9348 104.128 47.819L104.068 47.7422L104.112 47.6425C105.5 44.5048 106.942 41.3916 108.529 38.3453C109.321 36.8218 110.126 35.3027 111.008 33.8202C111.45 33.08 111.907 32.3461 112.406 31.6319C112.656 31.2754 112.922 30.9259 113.203 30.5832C113.494 30.217 113.834 29.8916 114.212 29.6159L114.175 29.6436C115.116 28.9053 116.103 28.2255 117.128 27.6082C118.142 26.9839 119.188 26.4133 120.261 25.8987C121.333 25.3832 122.432 24.9276 123.554 24.534C124.674 24.1441 125.819 23.826 126.98 23.5815L126.998 23.654C125.871 23.9959 124.762 24.3967 123.678 24.8549C122.592 25.3014 121.532 25.8078 120.503 26.372C119.472 26.9283 118.457 27.516 117.482 28.1628C116.507 28.8005 115.567 29.4884 114.664 30.2237L114.626 30.2516C114.016 30.7819 113.488 31.4004 113.061 32.0865C112.584 32.7806 112.128 33.4977 111.691 34.2282C110.815 35.6877 109.972 37.1712 109.161 38.6785C108.352 40.1842 107.555 41.6972 106.768 43.2174C105.985 44.7386 105.188 46.2556 104.435 47.7918L104.419 47.6155C105.215 48.7474 106.167 49.7611 107.247 50.6264C108.343 51.4806 109.526 52.2168 110.777 52.8229C112.035 53.4114 113.334 53.9091 114.663 54.3122C115.985 54.716 117.33 55.0381 118.692 55.2765L118.318 55.5275C118.64 54.2651 119.078 53.0349 119.627 51.8526C120.143 50.669 120.711 49.5122 121.302 48.3698C122.502 46.0939 123.77 43.8585 125.161 41.696L125.225 41.7335Z" fill="black"/>
<path d="M119.357 28.2468C120.097 28.0179 120.873 27.9342 121.644 28.0003C122.437 28.0528 123.211 28.2667 123.917 28.6289C124.637 29.0116 125.227 29.5977 125.614 30.3138C125.983 31.0084 126.149 31.7928 126.091 32.5769C125.866 31.8815 125.539 31.2235 125.12 30.6244C124.708 30.067 124.175 29.6093 123.561 29.2852C122.929 28.9602 122.256 28.7212 121.561 28.5746C120.834 28.4193 120.098 28.3098 119.357 28.2468ZM122.724 5.78979C122.475 6.30824 122.293 6.85646 122.184 7.42103C122.078 7.98028 122.013 8.54665 121.991 9.11544C121.974 9.68219 121.991 10.2494 122.042 10.8142C122.096 11.3785 122.187 11.9379 122.288 12.4954L122.313 12.631L122.229 12.7504C121.949 13.1464 121.677 13.5542 121.41 13.9591C121.143 14.363 120.875 14.7732 120.655 15.1835C120.598 15.2866 120.551 15.3866 120.507 15.4845L120.458 15.6149C120.452 15.6333 120.459 15.6298 120.454 15.6373L120.449 15.644C120.453 15.6327 120.454 15.6207 120.451 15.609C120.416 15.515 120.419 15.5784 120.509 15.6109C120.598 15.6547 120.69 15.6897 120.785 15.7154C121.235 15.8307 121.695 15.9018 122.159 15.9278L122.424 15.9471L122.49 16.1982C122.664 16.8704 122.875 17.5325 123.122 18.1817C123.363 18.8344 123.651 19.4692 123.982 20.0814C124.301 20.6949 124.704 21.2618 125.178 21.7661C125.656 22.2804 126.294 22.6175 126.989 22.7221C126.252 22.7309 125.537 22.4699 124.979 21.9884C124.415 21.5199 123.93 20.9647 123.541 20.3438C123.152 19.7317 122.812 19.0894 122.525 18.4231C122.237 17.7569 121.992 17.0728 121.792 16.3752L122.122 16.6455C121.603 16.6236 121.086 16.5497 120.581 16.4249C120.438 16.3875 120.3 16.3358 120.167 16.2705C120.084 16.2306 120.006 16.1799 119.936 16.1198C119.888 16.0793 119.847 16.0322 119.812 15.9799C119.766 15.9186 119.735 15.847 119.722 15.7712C119.713 15.7302 119.706 15.6885 119.703 15.6466L119.712 15.5627C119.719 15.5093 119.73 15.4565 119.744 15.4047C119.77 15.3333 119.796 15.2553 119.825 15.1906C119.883 15.0648 119.943 14.9442 120.007 14.8328C120.258 14.3805 120.535 13.9709 120.814 13.5585C121.097 13.1493 121.392 12.754 121.694 12.3571L121.634 12.6118L121.52 11.7332C121.504 11.4375 121.475 11.1437 121.47 10.848C121.451 10.257 121.478 9.66539 121.553 9.0788C121.625 8.49304 121.757 7.91604 121.945 7.35653C122.12 6.79628 122.383 6.2674 122.724 5.78979Z" fill="black"/>
<path d="M121.422 5.16265C121.422 5.16265 125.193 10.1796 128.695 10.7619C128.695 10.7619 130.401 7.31278 131.927 9.64209C133.453 11.9714 131.927 14.2559 130.984 14.4799C130.984 14.4799 126.405 18.6458 126.675 25.2754C126.675 25.2754 135.339 26.1265 141.085 23.618C146.831 21.1095 149.524 18.7802 149.524 18.7802C149.524 18.7802 143.239 12.7777 141.534 8.47746C139.828 4.1772 139.199 -0.571037 133.633 0.0560878C128.066 0.683213 125.373 1.4895 121.422 5.16265Z" fill="black"/>
<path d="M122.869 18.41C123.297 18.3086 123.716 18.173 124.123 18.0043C124.308 17.917 124.48 17.8055 124.636 17.6728C124.797 17.5221 124.939 17.3524 125.059 17.1674C125.069 17.4149 124.998 17.659 124.857 17.8629C124.709 18.0682 124.511 18.2329 124.282 18.3416C123.838 18.5464 123.331 18.5709 122.869 18.41ZM124.026 12.6207C124.172 12.6157 124.31 12.5545 124.411 12.4501C124.512 12.3456 124.568 12.206 124.568 12.0608C124.568 11.9156 124.512 11.776 124.411 11.6715C124.31 11.5671 124.172 11.5059 124.026 11.5009C123.881 11.5059 123.743 11.5671 123.642 11.6715C123.541 11.776 123.484 11.9156 123.484 12.0608C123.484 12.206 123.541 12.3456 123.642 12.4501C123.743 12.5545 123.881 12.6157 124.026 12.6207ZM122.869 10.8961C122.983 10.6715 123.166 10.4891 123.391 10.3752C123.604 10.2549 123.833 10.1627 124.07 10.1008C124.539 9.9748 125.03 9.95574 125.508 10.045C125.071 10.2165 124.622 10.3558 124.165 10.4616C123.943 10.5165 123.726 10.5783 123.509 10.6405C123.285 10.6987 123.07 10.7845 122.869 10.8961ZM131.164 13.287C131.273 13.2833 131.376 13.2374 131.452 13.159C131.528 13.0807 131.57 12.976 131.57 12.8671C131.57 12.7582 131.528 12.6535 131.452 12.5751C131.376 12.4968 131.273 12.4509 131.164 12.4471C131.055 12.4509 130.951 12.4968 130.876 12.5751C130.8 12.6535 130.757 12.7582 130.757 12.8671C130.757 12.976 130.8 13.0807 130.876 13.159C130.951 13.2374 131.055 13.2833 131.164 13.287ZM146.631 20.7748C147.906 21.0435 149.139 21.4832 150.296 22.0819C151.467 22.6732 152.563 23.4036 153.558 24.2573C154.554 25.1252 155.405 26.1446 156.082 27.2778C156.743 28.41 157.17 29.6637 157.335 30.964C156.895 29.7724 156.308 28.6397 155.589 27.5914C154.859 26.5722 154.012 25.6416 153.065 24.8183C152.109 23.9948 151.088 23.2491 150.012 22.5883C148.921 21.9188 147.792 21.3133 146.631 20.7748ZM93.2879 58.4237C90.4963 56.6756 87.4686 55.3345 84.2967 54.441C81.1543 53.5305 77.8806 53.1547 74.613 53.3293C71.3618 53.5206 68.186 54.3845 65.2873 55.8661C62.3954 57.3164 59.8152 59.3825 57.3317 61.5226C52.4159 65.9271 47.878 70.7343 43.7654 75.8939C39.6331 81.044 35.7554 86.4069 32.138 91.9176L32.1688 91.8624C31.998 92.3863 31.9026 92.9316 31.8854 93.4822C31.8893 93.7672 31.8677 94.0505 31.8868 94.3353L31.962 95.1899C32.0067 95.473 32.0704 95.7545 32.123 96.0366C32.152 96.1773 32.1746 96.3192 32.2086 96.4589L32.337 96.8729L32.592 97.7006C32.6896 97.9726 32.8156 98.2359 32.9257 98.5039L33.2683 99.3033L33.6893 100.07L34.1091 100.836C34.255 101.088 34.432 101.323 34.5904 101.569L35.0786 102.298C35.2343 102.546 35.4059 102.783 35.5924 103.009L36.6952 104.383C37.0541 104.847 37.4912 105.25 37.8849 105.687C38.297 106.108 38.6741 106.561 39.1141 106.956L40.4186 108.156C40.8533 108.555 41.2799 108.963 41.752 109.323L43.1343 110.438C43.5983 110.805 44.0443 111.194 44.5371 111.527L47.4213 113.61L47.6112 113.747L47.6638 113.958C47.9516 115.112 48.2347 116.263 48.5031 117.424C48.6333 118.008 48.7635 118.581 48.8739 119.193L48.9123 119.439L48.9269 119.609L48.9296 119.651C48.9329 119.619 48.9316 119.586 48.9257 119.554C48.9185 119.513 48.9048 119.473 48.8852 119.437C48.8642 119.398 48.8374 119.367 48.8475 119.377C48.8508 119.374 48.8438 119.369 48.8469 119.374L48.9025 119.419C48.933 119.448 48.9981 119.487 49.0439 119.521C49.273 119.67 49.5103 119.806 49.7547 119.928C50.7901 120.437 51.8668 120.858 52.9733 121.186C54.0879 121.528 55.221 121.807 56.3672 122.022C58.6706 122.451 61.012 122.644 63.3547 122.597C65.705 122.547 68.0462 122.29 70.3509 121.828L70.0929 122.262L68.4151 116.046L66.7811 109.818L66.8889 109.787L68.8461 115.922L70.7597 122.069L70.8683 122.418L70.5015 122.504C69.335 122.776 68.1575 123.007 66.9696 123.182C65.7805 123.348 64.5823 123.45 63.3813 123.502C60.9728 123.602 58.5604 123.456 56.1817 123.066C53.7758 122.698 51.4345 121.991 49.2281 120.966C48.9402 120.826 48.6607 120.669 48.391 120.496C48.3168 120.443 48.2526 120.407 48.1709 120.339L48.0537 120.244C47.9997 120.192 47.9487 120.137 47.9009 120.079C47.8747 120.046 47.8526 120.011 47.835 119.973C47.8081 119.919 47.7872 119.862 47.7727 119.804C47.761 119.755 47.7532 119.705 47.7494 119.655L47.747 119.643L47.7408 119.591L47.7082 119.398C47.6029 118.845 47.4659 118.264 47.3323 117.693C47.0661 116.545 46.7866 115.394 46.5021 114.248L46.7444 114.596L43.8177 112.474C43.3226 112.13 42.8706 111.727 42.4023 111.347L41.0072 110.194C40.5321 109.822 40.0989 109.398 39.6588 108.984L38.339 107.74C37.8946 107.33 37.5087 106.858 37.0911 106.42C36.6905 105.965 36.2501 105.547 35.8829 105.062C34.2946 103.203 33.0026 101.111 32.0521 98.8598C31.1714 96.593 30.587 94.055 31.4711 91.5485L31.4793 91.5252L31.5019 91.4931C33.4104 88.7806 35.3781 86.1252 37.3829 83.4926C39.3931 80.8658 41.4062 78.2415 43.5018 75.682C47.6707 70.5516 51.8939 65.4347 56.7527 60.8825C57.9606 59.7382 59.2458 58.6726 60.5682 57.6488C61.9095 56.6312 63.338 55.7334 64.8371 54.9657C67.8705 53.4657 71.1832 52.6111 74.5651 52.456C77.9256 52.3259 81.282 52.8018 84.4732 53.8609C85.2696 54.1119 86.0521 54.4025 86.8257 54.7123C87.5938 55.0362 88.3537 55.3773 89.0973 55.7507C90.5904 56.483 92.0148 57.3472 93.3535 58.3329L93.2879 58.4237Z" fill="black"/>
<path d="M183.553 37.5947C181.935 30.0687 169.009 30.9649 169.009 30.9649C137.763 30.0687 130.042 39.098 130.042 39.098C123.22 44.7256 114.779 68.4889 114.779 68.4889L72.4183 69.4236C69.8437 69.4627 67.3493 70.3239 65.301 71.8809C59.6033 76.2799 60.7283 82.028 60.7283 82.028C62.1624 92.5605 67.1503 110.889 67.1503 110.889C74.8278 116.097 135.475 114.459 135.475 114.459C156.349 110.518 165.417 106.042 165.953 102.635C166.493 99.2289 174.393 72.8927 178.883 59.9896C183.374 47.0913 185.165 45.1207 183.553 37.5947ZM120.39 82.4086C120.187 84.9285 120.015 87.4517 119.873 89.978L119.429 97.557C119.294 100.087 119.125 102.611 118.951 105.146C118.84 102.611 118.806 100.075 118.85 97.5377C118.874 94.9985 118.98 92.4641 119.125 89.9346C119.202 88.6674 119.304 87.4002 119.405 86.1379C119.535 84.8755 119.637 83.6083 119.811 82.3508C120.093 79.8252 120.556 77.323 121.197 74.8633C120.81 77.3688 120.607 79.8935 120.39 82.4086ZM134.567 45.3616C132.927 47.5091 131.459 49.7823 130.178 52.1601C128.893 54.5407 127.737 56.9887 126.716 59.4933C126.194 60.7461 125.711 62.0132 125.257 63.2949C124.789 64.5669 124.364 65.8581 123.963 67.1591C124.2 65.8148 124.557 64.4994 124.91 63.1792C125.296 61.8735 125.719 60.5774 126.18 59.291C127.105 56.7156 128.222 54.2129 129.521 51.8035C130.187 50.6038 130.887 49.4281 131.646 48.2862C132.41 47.1463 133.237 46.0492 134.123 45.0002C135.017 43.9609 135.971 42.9747 136.981 42.0467C138.012 41.1474 139.113 40.3322 140.274 39.6087C138.14 41.2828 136.223 43.2152 134.567 45.3616ZM139.197 102.553L139.188 102.423L140.979 102.202L141.008 102.399L139.197 102.553ZM142.809 102.129L142.756 101.864L144.519 101.46L144.591 101.787L142.809 102.129ZM146.363 101.397L146.266 101.002L148.01 100.525L148.125 100.959L146.363 101.397ZM149.878 100.496L149.743 100.019L151.472 99.4939L151.626 100.005L149.878 100.496ZM153.364 99.4939L153.195 98.9446L154.91 98.3809L155.103 98.9687L153.364 99.4939ZM156.831 98.4291L156.624 97.8027L158.328 97.2053L158.555 97.8702L156.831 98.4291ZM161.312 96.6897L161.293 96.9306L161.071 97.0077L160.274 97.2872L160.033 96.6078L160.598 96.4054L160.641 95.7983L161.375 95.861L161.312 96.6897ZM161.559 94.2373L160.815 94.1409L161.042 92.5075L161.795 92.628L161.559 94.2373ZM162.075 91.0235L161.312 90.8886L161.616 89.2745L162.384 89.4239L162.075 91.0235ZM162.727 87.8339L161.945 87.6653L162.297 86.0608L163.089 86.2439L162.727 87.8339ZM163.471 84.6587L162.669 84.4612L163.06 82.8712L163.871 83.0735L163.471 84.6587ZM164.282 81.4932L163.466 81.2812L163.9 79.696L164.697 79.9128L164.282 81.4932ZM165.127 78.3373L164.34 78.1156L164.794 76.5401L165.566 76.7617L165.127 78.3373ZM166.015 75.191L165.257 74.9694L165.726 73.3986L166.474 73.6203L166.015 75.191ZM166.942 72.0543L166.208 71.8327L166.696 70.2716L167.416 70.4933L166.942 72.0543ZM167.898 68.9322L167.189 68.7105L167.691 67.1494L168.386 67.3711L167.898 68.9322ZM168.879 65.8148L168.198 65.5932L168.719 64.0417L169.376 64.2585L168.879 65.8148ZM169.869 62.6974L169.25 62.4951L169.786 60.9484L170.371 61.1412L169.869 62.6974ZM170.873 59.5897L170.327 59.4018L170.873 57.86L171.385 58.0334L170.873 59.5897ZM171.901 56.4868L171.428 56.323L171.983 54.7812L172.423 54.9354L171.901 56.4868ZM172.949 53.3887L172.544 53.249L173.118 51.7168L173.466 51.8373L172.949 53.3887ZM173.992 50.2906L173.698 50.1846L174.287 48.6621L174.518 48.744L173.992 50.2906ZM175.05 47.1974L174.876 47.1347L175.47 45.6122L175.59 45.6555L175.05 47.1974ZM47.0825 114.103C48.6531 110.791 50.4201 107.592 52.2352 104.421C54.0699 101.26 55.9539 98.1283 58.036 95.1101C56.4669 98.4229 54.6997 101.622 52.8833 104.793C51.0473 107.952 49.1631 111.084 47.0825 114.103Z" fill="black"/>
<path d="M93.5353 114.387C93.5228 116.675 93.3706 118.947 93.1852 121.224C93.0795 122.361 92.9595 123.497 92.8251 124.635C92.6723 125.768 92.5011 126.902 92.3114 128.036C92.121 129.17 91.9776 130.325 91.7892 131.482C91.5923 132.646 91.225 133.775 90.6991 134.833C90.1594 135.942 89.4714 136.973 88.6539 137.898C88.4435 138.135 88.2007 138.366 87.9686 138.585C87.7185 138.806 87.4563 139.013 87.1832 139.205C86.6163 139.616 85.9464 139.864 85.2474 139.919L85.0531 139.531C85.3061 139.046 85.494 138.529 85.6119 137.994L85.7886 137.222L85.9497 136.445C86.1632 135.41 86.3754 134.366 86.6256 133.322C86.8772 132.269 87.2258 131.242 87.6668 130.254C88.1173 129.248 88.5819 128.231 88.9428 127.179C89.3108 126.129 89.6651 125.07 90.0056 124.002C90.3668 122.94 90.7166 121.872 91.055 120.797C91.7567 118.654 92.4169 116.489 93.1056 114.322L93.5353 114.387ZM119.165 114.646L126.269 136.272C126.867 138.065 127.545 139.834 128.223 141.595C128.889 143.352 129.451 145.145 129.908 146.967C130.368 148.783 130.774 150.613 131.164 152.443C131.359 153.357 131.544 154.279 131.749 155.184C131.91 156.093 132.168 156.983 132.518 157.838L132.233 158.165C131.995 158.039 131.767 157.893 131.552 157.73C131.358 157.561 131.153 157.385 130.964 157.202C130.61 156.834 130.275 156.448 129.961 156.045C129.354 155.254 128.8 154.423 128.303 153.559C127.336 151.871 126.491 150.116 125.775 148.307C125.063 146.526 124.502 144.687 124.098 142.812C123.693 140.938 123.343 139.058 122.919 137.199L121.707 131.615L120.619 126.009C119.94 122.263 119.28 118.517 118.742 114.745L119.165 114.646ZM161.161 107.129C162.176 111.042 163.33 114.908 164.625 118.727C165.268 120.633 165.928 122.531 166.648 124.404L167.164 125.816L167.715 127.214C168.089 128.142 168.429 129.083 168.837 129.996C169.234 130.914 169.635 131.829 170.054 132.734L171.393 135.41C171.81 136.313 172.277 137.188 172.688 138.089C173.113 138.981 173.457 139.916 173.861 140.817C175.338 144.511 176.913 148.115 178.164 152.144L177.806 152.391C176.984 151.726 176.243 150.989 175.493 150.25C175.13 149.872 174.746 149.504 174.418 149.102C174.085 148.702 173.757 148.298 173.436 147.888C173.115 147.478 172.795 147.065 172.486 146.646C172.169 146.231 171.862 145.808 171.587 145.37C171.025 144.499 170.486 143.613 169.956 142.72C169.442 141.821 168.976 140.896 168.561 139.949C168.348 139.478 168.146 139.003 167.949 138.525C167.751 138.047 167.601 137.552 167.424 137.067L166.466 134.125C166.18 133.134 165.875 132.153 165.567 131.174C165.242 130.201 164.986 129.207 164.697 128.224L164.275 126.748L163.889 125.262C163.385 123.279 162.946 121.282 162.525 119.286C161.706 115.291 161.107 111.255 160.732 107.195L161.161 107.129ZM72.3378 112.607C70.9059 116.212 69.3695 119.767 67.8178 123.318L65.4321 128.619L62.9413 133.873C62.0974 135.62 61.3132 137.401 60.4905 139.167C59.664 140.933 58.6968 142.63 57.5982 144.242C56.4917 145.878 55.2751 147.437 53.9569 148.908C53.2803 149.661 52.5577 150.372 51.7933 151.036C51.3927 151.375 50.9728 151.691 50.5355 151.981C50.3014 152.132 50.0566 152.265 49.8031 152.38L49.5981 152.459L49.3662 152.52C49.2796 152.537 49.1916 152.545 49.1034 152.545C49.0034 152.538 48.9053 152.515 48.8135 152.475L48.9431 152.061C49.0722 151.948 49.1827 151.816 49.2704 151.669C49.3945 151.484 49.5074 151.292 49.6083 151.093C49.8195 150.682 50.03 150.263 50.2203 149.827L51.3938 147.22C52.181 145.479 52.9926 143.746 53.8553 142.038C54.7167 140.326 55.679 138.667 56.7372 137.068C57.805 135.467 58.8849 133.866 59.8857 132.219L65.8905 122.317L71.9492 112.413L72.3378 112.607ZM10.6256 101.162C10.6256 101.162 12.5187 105.691 10.2714 107.646C6.93374 106.24 4.0905 103.876 2.10348 100.853C2.10348 100.853 -5.51714 100.79 8.25152 111.633C8.25152 111.633 25.7146 126.76 27.0464 127.025C30.3914 127.692 29.5305 122.806 29.5305 122.806C29.5305 122.806 18.1735 114.921 16.2376 112.705C16.2376 112.705 17.6014 106.589 15.8382 104.177L10.6256 101.162Z" fill="black"/>
<path d="M2.10352 100.853C2.67948 100.457 3.3596 100.239 4.05896 100.226C4.75518 100.184 5.45394 100.227 6.13963 100.355C7.50369 100.624 8.83431 101.04 10.1079 101.597L11.9826 102.461C12.6038 102.743 13.2361 102.999 13.8752 103.234C15.1507 103.704 16.4659 104.058 17.805 104.293C19.1401 104.531 20.5001 104.599 21.8525 104.496C22.5281 104.446 23.1993 104.348 23.8608 104.203C24.5252 104.065 25.1801 103.885 25.8217 103.664C27.1098 103.214 28.3428 102.621 29.4974 101.895C30.6642 101.173 31.7722 100.361 32.8112 99.4651C30.8721 101.45 28.5372 103.008 25.9575 104.037C23.3298 105.025 20.4846 105.294 17.7179 104.813C14.9549 104.378 12.364 103.225 9.92124 102.013C8.69523 101.418 7.40867 100.957 6.08376 100.637C5.4221 100.481 4.74528 100.397 4.06534 100.387C3.7253 100.387 3.38612 100.421 3.05278 100.488C2.7146 100.543 2.39147 100.668 2.10352 100.853ZM40.3332 108.868C39.239 109.882 38.1784 110.926 37.1514 111.998C36.6417 112.537 36.1478 113.09 35.6873 113.664C35.2173 114.22 34.8054 114.822 34.4581 115.461C34.3014 115.781 34.1794 116.117 34.094 116.464C33.9866 116.83 33.8592 117.19 33.7123 117.543C33.4046 118.237 33.0358 118.903 32.6102 119.532C31.7633 120.779 30.7238 121.884 29.5306 122.806C30.532 121.715 31.4278 120.532 32.2057 119.273C32.5865 118.65 32.9246 118.001 33.2174 117.333C33.3456 116.993 33.4944 116.661 33.5908 116.312C33.6891 115.936 33.8284 115.573 34.0062 115.227C34.8011 113.937 35.7796 112.769 36.911 111.76C37.9916 110.728 39.1345 109.762 40.3332 108.868ZM38.197 139.657C38.197 139.657 42.8674 141.196 42.8758 144.17C39.6254 145.767 35.9726 146.362 32.3821 145.881C32.3821 145.881 27.3434 151.586 44.5724 148.305C44.5724 148.305 67.4658 145.043 68.5388 144.212C71.234 142.126 66.9704 139.576 66.9704 139.576C66.9704 139.576 53.561 142.976 50.6145 142.985C50.6145 142.985 46.8761 137.951 43.8944 137.701L38.197 139.657Z" fill="black"/>
<path d="M32.3818 145.881C32.4591 145.188 32.7394 144.532 33.1877 143.996C33.6117 143.444 34.102 142.945 34.6477 142.511C35.7448 141.659 36.9317 140.928 38.1875 140.333L40.0694 139.485C40.6901 139.201 41.2981 138.892 41.8943 138.564C43.0855 137.91 44.2153 137.15 45.2699 136.294C46.3247 135.443 47.267 134.462 48.0745 133.375C48.4792 132.833 48.8445 132.262 49.1676 131.668C49.498 131.077 49.7907 130.465 50.0437 129.837C50.5468 128.571 50.9049 127.252 51.1113 125.906C51.3286 124.554 51.4388 123.186 51.4411 121.816C51.6747 124.578 51.3251 127.359 50.4149 129.978C49.4429 132.607 47.7827 134.929 45.607 136.7C43.4676 138.499 40.8975 139.697 38.3802 140.746C37.127 141.281 35.935 141.949 34.825 142.739C34.2731 143.135 33.7662 143.59 33.3134 144.097C33.0908 144.353 32.8944 144.631 32.7268 144.926C32.5474 145.218 32.4299 145.543 32.3818 145.881ZM63.4887 122.302C63.5401 123.791 63.6357 125.274 63.7755 126.751C63.8496 127.488 63.9448 128.223 64.0786 128.946C64.1914 129.665 64.3775 130.369 64.634 131.05C64.7741 131.378 64.9488 131.69 65.1552 131.981C65.3623 132.302 65.5517 132.634 65.7225 132.976C66.0469 133.662 66.3096 134.377 66.5075 135.11C66.8969 136.565 67.0531 138.072 66.9702 139.576C66.7998 138.106 66.4903 136.656 66.046 135.245C65.8234 134.549 65.5538 133.87 65.2391 133.211C65.0661 132.892 64.9117 132.562 64.7105 132.261C64.4905 131.941 64.3063 131.598 64.1612 131.237C63.7048 129.793 63.4612 128.291 63.4378 126.776C63.3634 125.285 63.3804 123.791 63.4887 122.302ZM99.7624 29.6445L99.6288 26.6443L99.7071 26.7075L98.6013 26.9437C98.5923 26.9457 98.5831 26.946 98.574 26.9448L98.5687 26.944C98.4143 26.9207 98.2748 26.8389 98.1793 26.7155L98.1836 26.7208C98.0096 26.4851 97.9117 26.2021 97.9027 25.9095C97.873 25.6112 97.9561 25.3125 98.1359 25.0722L98.1302 25.0799L98.1586 25.0412L98.1651 25.0323L98.168 25.029C98.2347 24.9562 98.3094 24.891 98.3906 24.8346C98.4761 24.7757 98.5712 24.732 98.6717 24.7055L98.6401 24.9364L98.3098 24.7767C98.3009 24.7724 98.2926 24.767 98.285 24.7606L98.2827 24.7585C98.104 24.6073 97.9571 24.4223 97.8504 24.2141C97.7457 23.9966 97.7017 23.7549 97.723 23.5144C97.7473 23.2801 97.8191 23.0531 97.9341 22.8473C97.9901 22.7473 98.0541 22.6539 98.1144 22.5569C98.1826 22.4642 98.2652 22.3777 98.3411 22.2888L98.3154 22.4854C98.1549 22.2252 98.0454 21.9369 97.9929 21.6358C97.9706 21.4736 97.9822 21.3086 98.0271 21.1511C98.0756 20.9815 98.1709 20.8289 98.3021 20.7108L98.3418 20.9945C98.1662 20.9176 98.007 20.808 97.8727 20.6715C97.7299 20.5266 97.6387 20.3388 97.6132 20.1372C97.6068 19.9471 97.6412 19.7579 97.7141 19.5821C97.787 19.4064 97.8967 19.2483 98.0358 19.1183C98.524 18.5925 99.2014 18.2816 99.9191 18.2539C100.262 18.2246 100.608 18.2275 100.951 18.2625C101.121 18.2794 101.291 18.3052 101.459 18.3367L101.713 18.391C101.813 18.4178 101.908 18.4611 101.993 18.5191C102.165 18.6271 102.301 18.7831 102.384 18.9677C102.459 19.1542 102.481 19.3578 102.447 19.5559C102.365 19.9073 102.206 20.2364 101.983 20.52L101.916 20.2609C102.133 20.3685 102.335 20.5048 102.516 20.6662C102.705 20.8298 102.857 21.0324 102.961 21.26C103.067 21.502 103.083 21.7733 103.009 22.0263C102.937 22.2647 102.816 22.4856 102.653 22.6747L102.639 22.4527C102.858 22.6654 103.05 22.9039 103.211 23.163C103.383 23.4249 103.496 23.721 103.543 24.0309C103.584 24.3575 103.5 24.6877 103.306 24.9543C103.116 25.2024 102.871 25.4039 102.59 25.5434L102.65 25.3806C102.79 25.778 102.869 26.1942 102.884 26.6151C102.907 27.0403 102.825 27.4647 102.645 27.8506C102.457 28.2382 102.139 28.5475 101.746 28.7238C101.558 28.816 101.361 28.8878 101.158 28.9378C100.955 28.9814 100.749 29.0029 100.545 29.036L100.562 29.0313C100.264 29.1835 100 29.3933 99.7854 29.6485L99.7833 29.6509C99.7833 29.6509 99.7822 29.6497 99.7769 29.6493L99.7705 29.6674C99.4891 30.0018 99.3014 30.4045 99.2264 30.8346C99.2834 30.3966 99.4555 29.9815 99.7253 29.6313L99.719 29.6493C99.724 29.6347 99.7316 29.6211 99.7415 29.6093L99.7395 29.6115C99.9509 29.337 100.216 29.1078 100.518 28.9376L100.525 28.9349L100.534 28.9329C100.731 28.8914 100.931 28.8619 101.124 28.8116C101.314 28.7557 101.498 28.6795 101.672 28.5844C102.022 28.4082 102.301 28.1189 102.465 27.7638C102.62 27.4056 102.686 27.0146 102.654 26.6253C102.63 26.2324 102.547 25.8452 102.408 25.4767C102.397 25.4482 102.397 25.4168 102.406 25.3878C102.416 25.3589 102.435 25.3342 102.461 25.318L102.468 25.3137C102.707 25.1881 102.914 25.0104 103.074 24.7939C103.221 24.5832 103.281 24.3241 103.241 24.0705C103.114 23.5377 102.828 23.0562 102.42 22.6902C102.391 22.6619 102.373 22.6242 102.37 22.5841C102.367 22.544 102.378 22.504 102.402 22.4716L102.405 22.468C102.535 22.314 102.632 22.135 102.69 21.942C102.745 21.7598 102.732 21.5642 102.653 21.391C102.457 21.0297 102.147 20.7428 101.771 20.5745L101.769 20.5733C101.748 20.5629 101.73 20.5487 101.715 20.5312C101.7 20.5138 101.688 20.4936 101.681 20.4718C101.674 20.4499 101.671 20.4268 101.673 20.4039C101.674 20.3809 101.68 20.3585 101.691 20.3379L101.704 20.3153C101.892 20.0741 102.026 19.7959 102.098 19.499C102.124 19.3693 102.11 19.2345 102.056 19.1134C102.002 18.9923 101.912 18.8909 101.798 18.8233C101.745 18.7881 101.688 18.7614 101.627 18.7442L101.392 18.696C101.234 18.6671 101.073 18.6461 100.913 18.6288C100.594 18.5935 100.272 18.588 99.9511 18.6125C99.6398 18.6197 99.3331 18.6883 99.0485 18.8144C98.7639 18.9405 98.5071 19.1215 98.293 19.3471C98.186 19.4415 98.1 19.5572 98.0405 19.6867C97.981 19.8162 97.9493 19.9567 97.9474 20.0992C97.9766 20.2324 98.0388 20.3561 98.1283 20.4591C98.2178 20.5621 98.3317 20.6411 98.4596 20.6889L98.4655 20.6916C98.4854 20.7009 98.5032 20.7139 98.518 20.7301C98.5329 20.7462 98.5443 20.7651 98.5518 20.7856C98.5593 20.8062 98.5627 20.828 98.5617 20.8499C98.5608 20.8718 98.5555 20.8932 98.5462 20.913C98.5353 20.9362 98.5192 20.9566 98.4993 20.9727C98.4249 21.0497 98.3697 21.1429 98.3379 21.245C98.305 21.3595 98.2961 21.4795 98.3119 21.5976C98.328 21.7246 98.3609 21.8489 98.4099 21.9673L98.5826 22.3201C98.5978 22.3512 98.6037 22.386 98.5996 22.4204C98.5955 22.4547 98.5816 22.4872 98.5595 22.5139L98.5569 22.5169C98.4943 22.5923 98.4262 22.661 98.3661 22.7401C98.3114 22.8249 98.2511 22.9076 98.1998 22.9938C98.0997 23.1621 98.0348 23.3489 98.0093 23.5429C97.9933 23.7366 98.0252 23.9312 98.1023 24.1097C98.1793 24.2881 98.2991 24.445 98.4511 24.5665L98.4242 24.5484L98.7504 24.7162C98.7796 24.7313 98.8016 24.7573 98.8116 24.7885C98.8216 24.8197 98.8188 24.8536 98.8038 24.8828C98.795 24.899 98.7829 24.9131 98.7683 24.9242C98.7536 24.9353 98.7367 24.9432 98.7187 24.9472C98.6488 24.9662 98.5823 24.996 98.5217 25.0355C98.4574 25.0782 98.3978 25.1275 98.3438 25.1826L98.3531 25.1705L98.3237 25.2087L98.3179 25.2166C98.1678 25.4096 98.0954 25.6515 98.1148 25.895C98.1157 26.1437 98.1899 26.3867 98.3281 26.5937L98.3325 26.599C98.3972 26.6863 98.4927 26.7458 98.5996 26.7656L98.5672 26.7659L99.6824 26.5782L99.6852 26.5777C99.7021 26.5749 99.7195 26.5788 99.7335 26.5888C99.7475 26.5987 99.757 26.6138 99.7598 26.6307L99.7607 26.6414L99.7624 29.6445Z" fill="black"/>
<path d="M101.261 27.498C101.18 27.2004 101.002 26.9379 100.755 26.7519C100.637 26.6792 100.498 26.6478 100.36 26.6625C100.211 26.6831 100.064 26.7181 99.9216 26.7669C99.6062 26.8654 99.2846 26.9429 98.9589 26.9989C98.7818 27.0266 98.6012 27.0248 98.4247 26.9936C98.3182 26.9772 98.2185 26.9311 98.1373 26.8605C98.056 26.7899 97.9965 26.6977 97.9655 26.5947L97.9713 26.6097C97.9106 26.4393 97.8738 26.2614 97.8618 26.0809C97.8484 25.9029 97.8645 25.7239 97.9096 25.5511C97.9519 25.378 98.0312 25.2161 98.142 25.0764C98.2529 24.9399 98.3852 24.8222 98.5339 24.7279L98.5401 24.834C98.3137 24.7259 98.1153 24.5674 97.9601 24.3706C97.8005 24.1641 97.7134 23.9111 97.7119 23.6504C97.7172 23.3918 97.7821 23.1379 97.9016 22.9084C97.965 22.801 98.0246 22.6889 98.0933 22.5847L98.3181 22.2882L98.3361 22.5324C98.1406 22.3629 97.9925 22.1457 97.9063 21.902C97.8182 21.643 97.8341 21.36 97.9506 21.1125C98.0599 20.8696 98.2467 20.6696 98.482 20.544C98.698 20.4388 98.9267 20.3622 99.1625 20.316C99.6066 20.205 100.061 20.14 100.518 20.122C100.981 20.0862 101.443 20.1839 101.851 20.4035C101.853 20.4048 101.855 20.4065 101.857 20.4084C101.858 20.4104 101.859 20.4127 101.86 20.415C101.86 20.4174 101.86 20.4199 101.86 20.4222C101.859 20.4246 101.858 20.4269 101.857 20.429C101.855 20.4326 101.851 20.4352 101.847 20.4365C101.843 20.4378 101.838 20.4377 101.834 20.4362C101.414 20.3095 100.97 20.2849 100.538 20.3647C100.104 20.4291 99.6756 20.5283 99.2574 20.6614C99.0564 20.7137 98.8615 20.7868 98.6757 20.8796C98.5155 20.971 98.3874 21.1094 98.3088 21.276C98.2384 21.4467 98.2248 21.6354 98.2699 21.8144C98.315 21.9934 98.4164 22.1533 98.5593 22.2705L98.5662 22.2771C98.598 22.3079 98.6169 22.3496 98.6189 22.3938C98.621 22.4379 98.6061 22.4812 98.5773 22.5148C98.4269 22.6832 98.2893 22.8626 98.1656 23.0514C98.0525 23.238 97.9772 23.445 97.9441 23.6605C97.9208 23.8774 97.9721 24.0957 98.0897 24.2796C98.2137 24.4694 98.386 24.623 98.589 24.7247L98.5917 24.7261C98.6059 24.7338 98.6165 24.7467 98.6211 24.7621C98.6257 24.7776 98.624 24.7942 98.6163 24.8083C98.6113 24.8175 98.6041 24.8252 98.5953 24.8308C98.4543 24.9095 98.3317 25.0172 98.2357 25.1469C98.1401 25.2746 98.0776 25.424 98.054 25.5817C98.0185 25.8965 98.0749 26.2147 98.2165 26.4982L98.2181 26.5019L98.2223 26.5133C98.2984 26.7172 98.6146 26.7091 98.9156 26.6709C99.2291 26.6257 99.5399 26.5638 99.8467 26.4856C100.012 26.4341 100.184 26.4067 100.357 26.4042C100.545 26.407 100.726 26.4711 100.874 26.5866C101.001 26.7019 101.104 26.8414 101.177 26.9969C101.25 27.1524 101.291 27.3207 101.297 27.4921C101.298 27.497 101.296 27.5018 101.293 27.5056C101.29 27.5094 101.286 27.5118 101.281 27.5124C101.276 27.5125 101.272 27.5111 101.268 27.5085C101.265 27.506 101.262 27.5023 101.261 27.498Z" fill="black"/>
<path d="M98.5206 24.6397C98.8773 24.5121 99.2419 24.4075 99.6121 24.3267C99.7978 24.2886 99.9887 24.2697 100.176 24.2434C100.366 24.2299 100.557 24.23 100.748 24.2435C101.131 24.2593 101.504 24.3722 101.831 24.5716C102.152 24.7719 102.397 25.0727 102.529 25.427C102.373 25.0937 102.111 24.8214 101.784 24.6524C101.461 24.4907 101.102 24.4141 100.741 24.43C100.561 24.4324 100.382 24.4474 100.205 24.4749C100.028 24.5156 99.8513 24.5478 99.6782 24.5988C99.3324 24.7056 98.9938 24.8344 98.6644 24.9843L98.6565 24.9877C98.6111 25.007 98.5599 25.0077 98.514 24.9896C98.4682 24.9714 98.4313 24.9359 98.4115 24.8908C98.3917 24.8457 98.3905 24.7946 98.4082 24.7487C98.4259 24.7027 98.4611 24.6656 98.5061 24.6453L98.5206 24.6397ZM102.528 22.5713C102.282 22.3048 101.965 22.1149 101.614 22.0246C101.268 21.9329 100.909 21.9065 100.554 21.9466C100.199 21.9813 99.8498 22.0547 99.5115 22.1654C99.344 22.228 99.1751 22.284 99.0102 22.3511L98.522 22.5703L98.5108 22.5753C98.4661 22.5953 98.4152 22.5967 98.3694 22.5793C98.3236 22.5619 98.2866 22.5271 98.2665 22.4824C98.2463 22.4378 98.2448 22.3871 98.2621 22.3413C98.2794 22.2956 98.3142 22.2585 98.3589 22.2384L98.3734 22.2326L98.8997 22.0478C99.0772 21.9925 99.259 21.9485 99.4376 21.8988C99.8008 21.813 100.172 21.7672 100.546 21.7623C100.919 21.752 101.291 21.8113 101.643 21.9369C101.993 22.0588 102.3 22.2791 102.528 22.5713ZM100.848 8.77596C101.459 8.35406 102.097 7.97325 102.759 7.63608C103.411 7.29025 104.08 6.98449 104.752 6.6865C105.43 6.40132 106.112 6.12475 106.811 5.88807C107.511 5.63824 108.226 5.43576 108.953 5.28198C108.343 5.7047 107.704 6.08586 107.043 6.42289C106.391 6.76854 105.722 7.07431 105.049 7.37145C104.37 7.65578 103.689 7.93235 102.989 8.16885C102.29 8.41848 101.574 8.6213 100.848 8.77596ZM103.412 11.8668C104.014 11.7216 104.627 11.6246 105.244 11.5766C105.854 11.517 106.465 11.5012 107.075 11.4937C107.686 11.5002 108.296 11.5161 108.907 11.5755C109.524 11.6233 110.137 11.7207 110.738 11.8668C110.137 12.0128 109.524 12.1103 108.907 12.1581C108.296 12.2174 107.686 12.2333 107.075 12.2399C106.465 12.2324 105.854 12.2165 105.244 12.157C104.627 12.109 104.014 12.0119 103.412 11.8668ZM103.412 15.8535C103.899 15.8266 104.386 15.8486 104.868 15.9192C105.342 15.9796 105.811 16.0686 106.274 16.1859C106.737 16.2999 107.193 16.4424 107.639 16.6124C108.097 16.7773 108.538 16.9883 108.953 17.2421C108.467 17.2699 107.979 17.2483 107.497 17.1775C107.023 17.1171 106.554 17.0277 106.092 16.9097C105.628 16.7949 105.173 16.6521 104.727 16.4821C104.269 16.3171 103.828 16.1065 103.412 15.8535ZM33.621 92.8734C33.8088 92.8669 33.9867 92.788 34.1172 92.6531C34.2477 92.5183 34.3206 92.3382 34.3206 92.1507C34.3206 91.9632 34.2477 91.7831 34.1172 91.6483C33.9867 91.5134 33.8088 91.4345 33.621 91.428C33.4333 91.4345 33.2554 91.5134 33.1249 91.6483C32.9943 91.7831 32.9214 91.9632 32.9214 92.1507C32.9214 92.3382 32.9943 92.5183 33.1249 92.6531C33.2554 92.788 33.4333 92.8669 33.621 92.8734ZM34.4322 97.2676C34.62 97.2611 34.7979 97.1821 34.9284 97.0473C35.0589 96.9125 35.1318 96.7323 35.1318 96.5449C35.1318 96.3574 35.0589 96.1773 34.9284 96.0425C34.7979 95.9076 34.62 95.8287 34.4322 95.8222C34.2445 95.8287 34.0666 95.9076 33.9361 96.0425C33.8055 96.1773 33.7326 96.3574 33.7326 96.5449C33.7326 96.7323 33.8055 96.9125 33.9361 97.0473C34.0666 97.1821 34.2445 97.2611 34.4322 97.2676ZM36.9817 101.662C37.1695 101.655 37.3473 101.576 37.4779 101.441C37.6084 101.307 37.6813 101.127 37.6813 100.939C37.6813 100.752 37.6084 100.571 37.4779 100.437C37.3473 100.302 37.1695 100.223 36.9817 100.216C36.794 100.223 36.6161 100.302 36.4855 100.437C36.355 100.571 36.2821 100.752 36.2821 100.939C36.2821 101.127 36.355 101.307 36.4855 101.441C36.6161 101.576 36.794 101.655 36.9817 101.662ZM40.5742 105.94C40.7619 105.934 40.9398 105.855 41.0703 105.72C41.2008 105.585 41.2738 105.405 41.2738 105.218C41.2738 105.03 41.2008 104.85 41.0703 104.715C40.9398 104.58 40.7619 104.501 40.5742 104.495C40.3864 104.501 40.2085 104.58 40.078 104.715C39.9475 104.85 39.8745 105.03 39.8745 105.218C39.8745 105.405 39.9475 105.585 40.078 105.72C40.2085 105.855 40.3864 105.934 40.5742 105.94ZM43.9348 108.831C44.1226 108.825 44.3005 108.746 44.431 108.611C44.5615 108.476 44.6345 108.296 44.6345 108.109C44.6345 107.921 44.5615 107.741 44.431 107.606C44.3005 107.471 44.1226 107.392 43.9348 107.386C43.7471 107.392 43.5692 107.471 43.4387 107.606C43.3082 107.741 43.2352 107.921 43.2352 108.109C43.2352 108.296 43.3082 108.476 43.4387 108.611C43.5692 108.746 43.7471 108.825 43.9348 108.831ZM47.4114 111.491C47.5992 111.484 47.7771 111.405 47.9076 111.271C48.0381 111.136 48.111 110.956 48.111 110.768C48.111 110.581 48.0381 110.401 47.9076 110.266C47.7771 110.131 47.5992 110.052 47.4114 110.045C47.2237 110.052 47.0458 110.131 46.9153 110.266C46.7847 110.401 46.7118 110.581 46.7118 110.768C46.7118 110.956 46.7847 111.136 46.9153 111.271C47.0458 111.405 47.2237 111.484 47.4114 111.491ZM49.7291 116.001C49.9169 115.994 50.0948 115.915 50.2253 115.78C50.3558 115.646 50.4288 115.465 50.4288 115.278C50.4288 115.091 50.3558 114.91 50.2253 114.776C50.0948 114.641 49.9169 114.562 49.7291 114.555C49.5414 114.562 49.3635 114.641 49.233 114.776C49.1025 114.91 49.0295 115.091 49.0295 115.278C49.0295 115.465 49.1025 115.646 49.233 115.78C49.3635 115.915 49.5414 115.994 49.7291 116.001ZM51.4674 119.007C51.6552 119.001 51.8331 118.922 51.9636 118.787C52.0941 118.652 52.167 118.472 52.167 118.285C52.167 118.097 52.0941 117.917 51.9636 117.782C51.8331 117.647 51.6552 117.568 51.4674 117.562C51.2797 117.568 51.1018 117.647 50.9713 117.782C50.8407 117.917 50.7678 118.097 50.7678 118.285C50.7678 118.472 50.8407 118.652 50.9713 118.787C51.1018 118.922 51.2797 119.001 51.4674 119.007ZM55.2916 120.626C55.4794 120.62 55.6573 120.541 55.7878 120.406C55.9183 120.271 55.9913 120.091 55.9913 119.903C55.9913 119.716 55.9183 119.536 55.7878 119.401C55.6573 119.266 55.4794 119.187 55.2916 119.181C55.1039 119.187 54.926 119.266 54.7955 119.401C54.665 119.536 54.592 119.716 54.592 119.903C54.592 120.091 54.665 120.271 54.7955 120.406C54.926 120.541 55.1039 120.62 55.2916 120.626ZM59.2318 121.204C59.4195 121.198 59.5974 121.119 59.7279 120.984C59.8584 120.849 59.9314 120.669 59.9314 120.482C59.9314 120.294 59.8584 120.114 59.7279 119.979C59.5974 119.844 59.4195 119.765 59.2318 119.759C59.044 119.765 58.8661 119.844 58.7356 119.979C58.6051 120.114 58.5321 120.294 58.5321 120.482C58.5321 120.669 58.6051 120.849 58.7356 120.984C58.8661 121.119 59.044 121.198 59.2318 121.204ZM63.5195 121.436C63.7073 121.429 63.8852 121.35 64.0157 121.215C64.1462 121.08 64.2192 120.9 64.2192 120.713C64.2192 120.525 64.1462 120.345 64.0157 120.21C63.8852 120.076 63.7073 119.997 63.5195 119.99C63.3318 119.997 63.1539 120.076 63.0234 120.21C62.8929 120.345 62.8199 120.525 62.8199 120.713C62.8199 120.9 62.8929 121.08 63.0234 121.215C63.1539 121.35 63.3318 121.429 63.5195 121.436ZM67.112 121.436C67.2997 121.429 67.4776 121.35 67.6081 121.215C67.7387 121.08 67.8116 120.9 67.8116 120.713C67.8116 120.525 67.7387 120.345 67.6081 120.21C67.4776 120.076 67.2997 119.997 67.112 119.99C66.9242 119.997 66.7464 120.076 66.6158 120.21C66.4853 120.345 66.4124 120.525 66.4124 120.713C66.4124 120.9 66.4853 121.08 66.6158 121.215C66.7464 121.35 66.9242 121.429 67.112 121.436Z" fill="black"/>
</svg>
