<svg width="188" height="178" viewBox="0 0 188 178" fill="none" xmlns="http://www.w3.org/2000/svg">
<circle cx="61" cy="89" r="89" fill="#F3F3F3" fill-opacity="0.5"/>
<path d="M75.9503 26.857C76.0657 28.1112 76.0936 29.3719 76.0336 30.6299C76.0016 31.2665 75.9332 31.9007 75.8287 32.5294C75.7709 32.852 75.6933 33.1707 75.5962 33.4836C75.5454 33.6475 75.484 33.8078 75.4125 33.9637L75.3245 34.16C75.3034 34.2146 75.2866 34.2707 75.2743 34.3279C75.2031 34.8544 75.3218 35.389 75.6092 35.8356C75.9008 36.3504 76.2475 36.8318 76.6433 37.2714L76.9437 37.6092L77.099 37.774L77.1779 37.8553C77.2218 37.9 77.262 37.9482 77.298 37.9995C77.4429 38.2076 77.5045 38.4626 77.4705 38.714C77.4534 38.8372 77.4136 38.9562 77.353 39.0648C77.3046 39.1453 77.2512 39.2228 77.1932 39.2968C76.7862 39.8789 76.1784 40.2898 75.4869 40.4504L75.6801 40.2915C75.1457 41.3125 74.5522 42.3014 73.9028 43.2532C73.278 44.2245 72.542 45.1194 71.7098 45.9197C71.2783 46.3294 70.7783 46.66 70.2326 46.8966C69.9444 47.0137 69.6386 47.0818 69.3279 47.0981C69.1691 47.1039 69.0102 47.0951 68.853 47.0718L68.4206 46.9946C67.8405 46.8921 67.2704 46.7389 66.7171 46.5367C66.4258 46.4261 66.1477 46.2835 65.8878 46.1115C65.7437 46.0162 65.612 45.9032 65.4959 45.7752C65.4285 45.7022 65.37 45.6213 65.322 45.5343C65.2934 45.4846 65.2695 45.4323 65.2505 45.3782C65.2207 45.2984 65.2063 45.2136 65.2081 45.1284L65.8227 45.4752C65.0171 46.1381 64.3446 46.948 63.841 47.8619C63.5866 48.3169 63.3807 48.7973 63.2265 49.2952C63.0732 49.7913 62.962 50.2994 62.894 50.8142L62.8901 50.8391C62.874 50.9406 62.8267 51.0346 62.7547 51.1079C62.6828 51.1812 62.5898 51.2302 62.4887 51.2481C62.3876 51.266 62.2834 51.2519 62.1907 51.2077C62.098 51.1635 62.0213 51.0915 61.9715 51.0017C61.3861 49.93 60.9096 48.8022 60.549 47.6354C60.181 46.4768 59.9308 45.284 59.8024 44.0751C59.6636 42.8651 59.6966 41.6416 59.9004 40.4409C60.0972 39.247 60.5118 38.0995 61.1233 37.0557C61.1296 37.045 61.1398 37.0373 61.1518 37.0341C61.1638 37.031 61.1765 37.0328 61.1872 37.039C61.1967 37.045 61.2038 37.0541 61.2074 37.0648C61.2109 37.0754 61.2107 37.087 61.2066 37.0975C60.9886 37.6443 60.8104 38.2062 60.6735 38.7788C60.5454 39.3476 60.4566 39.9245 60.4076 40.5055C60.3287 41.6638 60.3843 42.8273 60.5732 43.9728C60.7677 45.1171 61.0612 46.2423 61.4505 47.3357C61.8293 48.426 62.291 49.4857 62.8314 50.5054L61.9088 50.6928C62.0651 49.5322 62.454 48.4151 63.0522 47.4085C63.3456 46.9078 63.6882 46.4376 64.0748 46.0049C64.4604 45.5616 64.8978 45.1663 65.3776 44.8273L65.9923 45.1742C65.992 45.0957 65.9884 45.1363 65.9909 45.1332C65.9943 45.1467 65.9995 45.1597 66.0062 45.1719C66.0246 45.2111 66.0482 45.2475 66.0764 45.2802C66.1478 45.3672 66.2299 45.4448 66.3207 45.5112C66.5294 45.6641 66.7538 45.7943 66.9901 45.8996C67.4915 46.1296 68.012 46.3155 68.5457 46.4549C69.5746 46.8751 70.65 46.395 71.4965 45.6747C72.3402 44.926 73.0655 44.0534 73.6477 43.0869C74.2383 42.1235 74.7474 41.1123 75.1697 40.064C75.1846 40.0274 75.2077 39.9946 75.2372 39.9682C75.2667 39.9418 75.3018 39.9224 75.3399 39.9116L75.363 39.9051C75.8882 39.7293 76.3304 39.366 76.6048 38.8846C76.6391 38.8325 76.6704 38.7785 76.6987 38.7229C76.7111 38.6927 76.7174 38.6605 76.7175 38.6279C76.7185 38.5656 76.6983 38.5047 76.6602 38.4554C76.6502 38.4435 76.6394 38.4323 76.628 38.4218L76.5398 38.3389L76.3656 38.1705C76.2509 38.0568 76.1374 37.9416 76.0278 37.8223C75.5774 37.3406 75.1909 36.8029 74.8777 36.2225C74.5037 35.5943 74.3747 34.85 74.5154 34.1324C74.5411 34.038 74.574 33.9458 74.6139 33.8565L74.7276 33.6298C74.7924 33.5045 74.8488 33.375 74.8967 33.2423C74.9977 32.9624 75.0814 32.6765 75.1475 32.3864C75.2886 31.7892 75.3989 31.185 75.4777 30.5764C75.6485 29.3502 75.7642 28.1063 75.8571 26.8587C75.8578 26.8463 75.8634 26.8347 75.8726 26.8264C75.8818 26.8181 75.8939 26.8139 75.9063 26.8145C75.9174 26.8153 75.928 26.82 75.936 26.8278C75.944 26.8356 75.9491 26.8459 75.9503 26.857Z" fill="#020202"/>
<path d="M62.4015 39.0916C62.5626 39.9588 62.8353 40.8016 63.2128 41.5987C63.4013 41.9847 63.6352 42.3468 63.9096 42.6773C64.1966 43.0158 64.5139 43.3272 64.8577 43.6077C64.4083 43.4771 63.9947 43.2455 63.6484 42.9304C63.2951 42.6143 63.0059 42.2332 62.7966 41.8077C62.5895 41.3866 62.4485 40.9361 62.3786 40.472C62.303 40.0142 62.3108 39.5465 62.4015 39.0916Z" fill="#020202"/>
<path d="M61.1653 37.0767C57.6476 45.358 62.4017 50.7537 62.4017 50.7537C53.7026 48.8803 49.1857 54.1193 49.1857 54.1193C46.8418 49.0998 41.4385 49.839 41.4385 49.839C41.4385 49.839 38.1255 46.409 42.3525 43.6078C45.3113 41.647 45.6952 39.8263 45.6592 38.9103C45.6093 38.083 45.7067 37.2534 45.947 36.4603C46.3219 35.3109 46.8892 34.2336 47.6246 33.2743C48.8323 31.7236 49.7401 29.9608 50.3014 28.0767C51.5046 23.9258 54.3512 17.3175 60.2209 17.7113C61.7063 17.5706 63.2043 17.6477 64.6675 17.94C66.6776 18.3671 68.5894 19.1686 70.3034 20.3029C72.4304 21.6183 74.3118 23.2949 75.8631 25.2573C76.0429 26.943 75.6686 28.6415 74.7969 30.095C73.213 32.6584 70.5128 33.4364 69.0108 33.6725C68.5003 33.7618 67.9755 33.7183 67.4867 33.5462C66.9978 33.374 66.5614 33.079 66.2193 32.6895C65.9774 32.4029 65.7954 32.0707 65.684 31.7124C65.5462 31.1878 65.3035 30.6965 64.9707 30.2683C64.6379 29.8401 64.2217 29.4839 63.7475 29.2212C62.5752 28.6405 61.1403 28.8159 60.4597 32.346C59.8931 35.2841 60.4179 36.5607 61.1653 37.0767ZM114.4 88.5966C112.809 88.8745 111.204 89.0607 109.592 89.1543C107.989 89.2613 106.386 89.3178 104.783 89.3238C103.18 89.3322 101.576 89.2812 99.9728 89.1844C98.3603 89.1005 96.754 88.9229 95.1621 88.6526C96.7525 88.373 98.3579 88.1861 99.97 88.0928C101.573 87.9867 103.176 87.9263 104.779 87.9254C106.382 87.9196 107.985 87.9668 109.588 88.0669C111.201 88.1512 112.807 88.3281 114.4 88.5966Z" fill="#020202"/>
<path d="M77.9883 88.755C74.8525 89.0166 71.7076 89.1528 68.5614 89.2472L67.3813 89.2832L66.7912 89.2991C66.5844 89.3106 66.377 89.3063 66.1709 89.2863C65.2619 89.212 64.3869 88.9072 63.6282 88.4008C62.9076 87.923 62.2663 87.335 61.7278 86.6584C61.1864 86.0013 60.719 85.2865 60.3341 84.5269C60.3198 84.4989 60.3081 84.4697 60.2989 84.4397L60.2893 84.4071C59.3713 81.3228 58.4332 78.2349 57.475 75.1432C56.9852 73.6006 56.4767 72.0629 55.9496 70.5299L55.1065 68.2505L54.1998 65.9958C53.5699 64.5031 52.9205 63.0184 52.229 61.5528C51.5394 60.0864 50.8081 58.6394 50.0776 57.1934C49.3399 55.7508 48.5878 54.3164 47.8213 52.8902C47.5189 52.2829 47.059 51.768 46.4897 51.3994C45.9204 51.0308 45.2626 50.8221 44.5851 50.795L39.7874 50.974C38.1596 51.0225 36.5298 51.0536 34.8932 51.0486C33.2547 51.0203 31.6198 50.972 29.9409 50.7786C29.5202 50.7232 29.0966 50.657 28.656 50.5598C28.4239 50.5099 28.1946 50.4476 27.9692 50.3731C27.665 50.2794 27.3792 50.1339 27.1244 49.9431C27.0149 49.855 26.9177 49.7526 26.8353 49.6387C26.7162 49.4714 26.6382 49.2782 26.6078 49.075C26.5948 48.9661 26.5943 48.8561 26.6063 48.747L26.6391 48.5899C26.6593 48.4901 26.6889 48.3924 26.7275 48.2982C26.7884 48.1482 26.864 48.0047 26.9533 47.8696C27.0257 47.7534 27.1065 47.6426 27.1952 47.5382C27.4966 47.1834 27.8293 46.8566 28.1894 46.5617C29.5089 45.5467 30.8939 44.6202 32.3354 43.7881L36.5303 41.3343C37.2192 40.9234 37.9039 40.503 38.5464 40.0566C38.7112 39.9455 38.8579 39.8323 39.0208 39.7142L39.5595 39.3383C39.7472 39.226 39.9417 39.1249 40.1317 39.0195C40.3267 38.9231 40.5308 38.8451 40.7299 38.761C41.5356 38.471 42.3885 38.335 43.2443 38.3601C44.0796 38.3691 44.9068 38.5248 45.6883 38.8202C45.7099 38.8286 45.7277 38.8448 45.738 38.8656C45.7484 38.8864 45.7506 38.9103 45.7442 38.9327C45.7378 38.955 45.7233 38.9742 45.7035 38.9864C45.6838 38.9986 45.6601 39.003 45.6373 38.9986L45.6289 38.997C44.0889 38.6639 42.482 38.85 41.0586 39.5262C40.8949 39.622 40.7247 39.7028 40.5662 39.8036L40.1052 40.1254L39.6803 40.4912C39.5277 40.6275 39.367 40.7788 39.2076 40.9113C38.568 41.4581 37.9004 41.9354 37.2355 42.4156C35.9057 43.3722 34.5405 44.2508 33.2125 45.1665C31.887 46.0261 30.6152 46.9659 29.4041 47.9805C29.142 48.2059 28.9 48.4536 28.6808 48.7209C28.6383 48.7712 28.6006 48.8254 28.5682 48.8828C28.5454 48.9167 28.5264 48.9531 28.5116 48.9913C28.4962 49.0129 28.5197 48.9912 28.5146 48.9904C28.5148 48.987 28.5137 48.9837 28.5116 48.981C28.5206 48.9226 28.5201 48.863 28.5103 48.8047C28.4974 48.6609 28.4308 48.5272 28.3236 48.4304C28.3006 48.4129 28.4294 48.4844 28.5707 48.522C28.7317 48.5698 28.8952 48.6091 29.0603 48.6398C29.4132 48.7082 29.7924 48.759 30.1764 48.7992C31.7193 48.9745 33.3291 49.0326 34.9304 49.0733C36.5351 49.1286 38.1476 49.1486 39.7611 49.1511L42.183 49.1406L43.3946 49.1261C43.8034 49.1262 44.1733 49.097 44.6854 49.131C45.6365 49.1998 46.5501 49.5303 47.3253 50.086C48.1006 50.6417 48.7073 51.401 49.0786 52.2801C49.7297 53.7721 50.358 55.273 50.9825 56.7744L52.8398 61.2827L54.7219 65.7763C57.2072 71.7656 60.1624 77.6198 61.8898 83.9449L61.8452 83.8252C62.4533 85.118 63.3595 86.2478 64.4893 87.1215C65.0201 87.5189 65.6436 87.7738 66.3005 87.862C66.4834 87.8886 66.6682 87.9008 66.853 87.8984L67.4382 87.921L68.6089 87.9702C71.7314 88.1 74.8552 88.2715 77.9883 88.5685C78.013 88.5706 78.0359 88.5824 78.0519 88.6013C78.0679 88.6203 78.0757 88.6448 78.0737 88.6695C78.0716 88.6915 78.062 88.7121 78.0464 88.7277C78.0308 88.7433 78.0102 88.753 77.9883 88.755Z" fill="#020202"/>
<path d="M97.6973 84.4137C100.265 84.3424 102.832 84.301 105.399 84.261L109.249 84.1976L111.174 84.1715C111.843 84.1516 112.513 84.1939 113.174 84.2978C114.514 84.5121 115.799 84.9847 116.959 85.6894C117.256 85.8703 117.512 86.0464 117.783 86.2229C118.073 86.4113 118.351 86.618 118.616 86.8418C119.692 87.7685 120.462 88.9994 120.826 90.3727C120.916 90.7153 120.981 91.0643 121.019 91.4167C121.044 91.5925 121.046 91.77 121.058 91.9471L121.073 92.4336L121.168 96.286L121.343 103.991L121.483 111.696C121.58 116.833 121.634 121.971 121.646 127.109L121.629 134.816L121.622 136.743C121.619 137.068 121.625 137.377 121.614 137.716C121.58 139.481 120.883 141.168 119.664 142.443C118.701 143.449 117.453 144.136 116.089 144.412C115.428 144.527 114.757 144.574 114.086 144.552L112.159 144.554L104.454 144.544C99.3178 144.532 94.1818 144.483 89.0462 144.398C83.9108 144.301 78.7724 144.218 73.6373 143.992C68.5023 143.776 63.3634 143.534 58.2374 143.082C56.9551 142.981 55.6753 142.846 54.3938 142.73C53.1135 142.618 51.8304 142.477 50.5461 142.33L48.6203 142.114L48.139 142.058L47.8983 142.03C47.837 142.023 47.7761 142.011 47.7161 141.996L47.5648 141.959C47.1969 141.856 46.8409 141.715 46.503 141.536C45.8324 141.185 45.2369 140.705 44.7499 140.125C44.2753 139.545 43.9082 138.885 43.666 138.176C43.2617 136.825 43.1386 135.406 43.3042 134.005C43.3901 132.782 43.3974 131.496 43.3972 130.229C43.384 127.683 43.291 125.128 43.1468 122.577C42.9963 120.027 42.8094 117.478 42.5862 114.931C42.3612 112.384 42.0649 109.844 41.7558 107.307C41.4433 104.77 41.0823 102.24 40.673 99.7163C40.251 97.1959 39.802 94.6795 39.2935 92.1755C38.302 87.162 37.043 82.2051 35.5217 77.3263C34.7651 74.8865 33.9248 72.475 33.0356 70.08C32.1024 67.7042 31.1448 65.332 30.0245 63.0359C29.4978 61.8705 28.8827 60.7515 28.3089 59.6086C27.675 58.467 27.1498 57.2683 26.7402 56.0283C26.3491 54.7806 26.1061 53.4912 26.0164 52.1867C25.9665 51.5245 26.0305 50.8586 26.2058 50.218C26.2978 49.8898 26.4591 49.5851 26.6787 49.3245C26.9063 49.0672 27.201 48.8785 27.5298 48.7795C27.5413 48.7753 27.5536 48.7735 27.5659 48.774C27.5781 48.7746 27.5902 48.7776 27.6013 48.7828C27.6124 48.788 27.6224 48.7954 27.6306 48.8045C27.6389 48.8136 27.6452 48.8243 27.6493 48.8358C27.6535 48.8474 27.6553 48.8597 27.6546 48.872C27.654 48.8843 27.6509 48.8963 27.6456 48.9074C27.6403 48.9185 27.6329 48.9284 27.6237 48.9366C27.6146 48.9448 27.6039 48.9511 27.5923 48.9551L27.586 48.9574C27.3046 49.0686 27.0565 49.2505 26.8659 49.4857C26.6752 49.7209 26.5484 50.0013 26.4978 50.2999C26.3737 50.9106 26.35 51.5376 26.4278 52.1559C26.5769 53.412 26.8727 54.6461 27.3092 55.8332C27.7647 57.0136 28.3304 58.1485 28.9988 59.2227C29.641 60.3419 30.2904 61.4598 30.868 62.6146C33.249 67.2032 35.2683 71.9709 36.9072 76.8743C40.1531 86.6892 42.4372 96.7968 43.7274 107.054C44.3792 112.176 44.8593 117.319 45.0866 122.48C45.2006 125.06 45.2631 127.643 45.2448 130.234C45.2281 131.535 45.208 132.82 45.0979 134.159C45.0636 134.516 45.0592 134.768 45.0372 135.076C45.0159 135.367 45.0164 135.66 45.0388 135.951C45.0612 136.515 45.1578 137.074 45.3262 137.613C45.6451 138.643 46.3517 139.508 47.2965 140.025C47.525 140.15 47.766 140.25 48.0154 140.325L48.0974 140.346C48.1147 140.352 48.1329 140.356 48.1513 140.357L48.3883 140.387L48.8625 140.448L50.7585 140.699C52.0213 140.871 53.2866 141.037 54.5609 141.176C55.8331 141.32 57.1033 141.481 58.3775 141.609C63.4721 142.14 68.5779 142.607 73.6933 142.972C83.9242 143.702 94.1771 144.025 104.452 143.939C107.018 143.918 109.583 143.858 112.147 143.787L114.069 143.718C114.683 143.718 115.295 143.655 115.895 143.531C116.472 143.384 117.026 143.158 117.542 142.861C118.047 142.55 118.506 142.171 118.906 141.734C119.696 140.856 120.202 139.758 120.356 138.586C120.396 138.297 120.414 138.006 120.409 137.714C120.409 137.411 120.392 137.077 120.384 136.76L120.325 134.834L120.095 127.13C119.969 121.993 119.881 116.856 119.833 111.719L119.76 104.012L119.723 96.3056L119.712 92.4521L119.711 91.9755C119.704 91.832 119.708 91.6875 119.691 91.5447C119.669 91.2574 119.624 90.9723 119.559 90.6918C119.425 90.1284 119.209 89.5879 118.916 89.088C118.62 88.5874 118.252 88.1331 117.823 87.7397C117.603 87.5422 117.37 87.3592 117.126 87.1915L116.351 86.653C115.334 85.981 114.196 85.5131 113.001 85.2752C112.397 85.1567 111.784 85.095 111.169 85.0909L109.244 85.0293L105.394 84.895C102.828 84.8076 100.261 84.7188 97.6955 84.6002C97.6714 84.5991 97.6487 84.5887 97.6321 84.5711C97.6155 84.5536 97.6064 84.5303 97.6066 84.5061C97.6068 84.482 97.6164 84.4589 97.6333 84.4416C97.6502 84.4244 97.6731 84.4144 97.6973 84.4137L97.6973 84.4137Z" fill="#020202"/>
<path d="M116.253 94.2148L116.301 95.6131C116.302 95.6231 116.3 95.633 116.296 95.6424C116.293 95.6517 116.288 95.6602 116.281 95.6675C116.274 95.6748 116.266 95.6807 116.257 95.6848C116.248 95.689 116.238 95.6913 116.228 95.6916C116.218 95.692 116.208 95.6904 116.199 95.6869C116.19 95.6834 116.181 95.6781 116.174 95.6713C116.166 95.6645 116.161 95.6563 116.156 95.6472C116.152 95.6381 116.15 95.6283 116.15 95.6184L116.15 95.6152L116.159 94.2161C116.16 94.2039 116.164 94.1922 116.173 94.1835C116.182 94.1749 116.193 94.1699 116.205 94.1697C116.218 94.1696 116.229 94.1742 116.238 94.1826C116.247 94.191 116.252 94.2026 116.253 94.2148ZM116.349 97.0115L116.39 98.4099C116.391 98.4266 116.388 98.4432 116.382 98.4588C116.376 98.4744 116.368 98.4886 116.356 98.5008C116.345 98.513 116.331 98.5228 116.316 98.5296C116.301 98.5365 116.284 98.5402 116.268 98.5407C116.251 98.5412 116.235 98.5384 116.219 98.5325C116.203 98.5266 116.189 98.5176 116.177 98.5061C116.165 98.4947 116.155 98.4809 116.149 98.4657C116.142 98.4505 116.138 98.434 116.138 98.4174L116.138 98.4134L116.141 97.0143C116.141 96.987 116.151 96.9608 116.171 96.9413C116.19 96.9218 116.216 96.9107 116.243 96.9103C116.271 96.91 116.297 96.9204 116.317 96.9393C116.336 96.9582 116.348 96.9841 116.349 97.0115ZM116.432 99.8083L116.473 101.207C116.475 101.252 116.458 101.296 116.427 101.329C116.396 101.362 116.353 101.381 116.308 101.383C116.262 101.384 116.218 101.367 116.185 101.336C116.153 101.305 116.133 101.262 116.132 101.217L116.132 101.211L116.135 99.8124C116.135 99.7734 116.15 99.736 116.178 99.7082C116.205 99.6805 116.242 99.6646 116.281 99.6641C116.32 99.6636 116.358 99.6784 116.386 99.7054C116.414 99.7323 116.431 99.7693 116.432 99.8083ZM116.515 102.605L116.556 104.004C116.558 104.06 116.536 104.115 116.497 104.156C116.458 104.198 116.404 104.222 116.348 104.223C116.291 104.225 116.236 104.204 116.194 104.165C116.153 104.127 116.128 104.073 116.126 104.016L116.126 104.01L116.129 102.611C116.129 102.56 116.149 102.512 116.185 102.476C116.22 102.44 116.269 102.419 116.319 102.419C116.37 102.418 116.419 102.437 116.455 102.472C116.492 102.507 116.513 102.555 116.515 102.605H116.515ZM116.592 105.402L116.626 106.801C116.627 106.866 116.603 106.929 116.558 106.976C116.513 107.024 116.451 107.051 116.386 107.053C116.32 107.054 116.257 107.03 116.21 106.985C116.163 106.94 116.135 106.878 116.134 106.812V106.807L116.129 105.409C116.128 105.347 116.152 105.289 116.195 105.245C116.238 105.201 116.296 105.177 116.357 105.176C116.418 105.175 116.477 105.198 116.521 105.241C116.565 105.283 116.591 105.341 116.592 105.402ZM116.659 108.199L116.693 109.598C116.695 109.671 116.667 109.741 116.617 109.794C116.567 109.847 116.498 109.877 116.425 109.879C116.352 109.881 116.282 109.853 116.229 109.803C116.176 109.753 116.146 109.684 116.144 109.611L116.144 109.605L116.139 108.206C116.139 108.138 116.165 108.072 116.213 108.023C116.261 107.974 116.327 107.946 116.395 107.945C116.464 107.944 116.53 107.97 116.58 108.018C116.629 108.065 116.658 108.131 116.659 108.199ZM116.726 110.996L116.76 112.395C116.761 112.435 116.754 112.474 116.739 112.511C116.725 112.549 116.704 112.582 116.676 112.611C116.649 112.64 116.616 112.663 116.58 112.679C116.543 112.695 116.504 112.704 116.464 112.705C116.424 112.706 116.385 112.699 116.348 112.685C116.311 112.671 116.277 112.649 116.248 112.622C116.219 112.594 116.196 112.561 116.18 112.525C116.164 112.488 116.155 112.449 116.154 112.409L116.154 112.403L116.149 111.004C116.149 110.928 116.178 110.855 116.232 110.801C116.285 110.746 116.358 110.715 116.434 110.714C116.51 110.713 116.583 110.742 116.638 110.795C116.693 110.848 116.724 110.92 116.726 110.996ZM116.793 113.793L116.827 115.192C116.828 115.236 116.82 115.279 116.805 115.32C116.789 115.36 116.766 115.398 116.736 115.429C116.706 115.461 116.67 115.486 116.63 115.504C116.59 115.522 116.547 115.531 116.503 115.532C116.46 115.533 116.417 115.526 116.376 115.51C116.335 115.494 116.298 115.471 116.267 115.44C116.235 115.41 116.21 115.374 116.192 115.334C116.175 115.294 116.165 115.251 116.164 115.208L116.164 115.201L116.159 113.802C116.159 113.718 116.191 113.638 116.25 113.578C116.309 113.519 116.388 113.485 116.472 113.483C116.555 113.482 116.636 113.514 116.696 113.572C116.756 113.63 116.791 113.71 116.793 113.793V113.793ZM116.86 116.59L116.887 117.989C116.889 118.083 116.853 118.173 116.788 118.24C116.723 118.308 116.634 118.347 116.541 118.348C116.447 118.35 116.357 118.315 116.29 118.25C116.222 118.185 116.183 118.096 116.181 118.003V117.999L116.169 116.6C116.168 116.509 116.204 116.42 116.268 116.355C116.331 116.29 116.419 116.252 116.51 116.251C116.601 116.25 116.689 116.285 116.755 116.348C116.821 116.412 116.859 116.499 116.86 116.59V116.59ZM116.912 119.388L116.937 120.786C116.939 120.883 116.902 120.976 116.835 121.046C116.768 121.115 116.676 121.155 116.579 121.157C116.483 121.159 116.389 121.122 116.32 121.055C116.25 120.988 116.21 120.896 116.208 120.799V120.796L116.195 119.398C116.194 119.303 116.23 119.211 116.297 119.143C116.363 119.076 116.454 119.037 116.548 119.035C116.643 119.034 116.735 119.07 116.803 119.136C116.871 119.202 116.91 119.293 116.912 119.388ZM116.962 122.185L116.987 123.584C116.989 123.684 116.951 123.78 116.882 123.852C116.813 123.924 116.718 123.965 116.618 123.967C116.518 123.969 116.422 123.931 116.35 123.861C116.278 123.792 116.237 123.697 116.235 123.597V123.594L116.222 122.195C116.22 122.097 116.258 122.003 116.327 121.932C116.395 121.862 116.489 121.822 116.587 121.82C116.685 121.819 116.779 121.857 116.85 121.925C116.92 121.993 116.961 122.087 116.962 122.185ZM117.012 124.982L117.037 126.381C117.039 126.484 117 126.583 116.929 126.657C116.857 126.731 116.76 126.774 116.657 126.776C116.554 126.778 116.455 126.739 116.381 126.667C116.307 126.596 116.264 126.498 116.262 126.395V126.392L116.248 124.993C116.247 124.892 116.286 124.794 116.357 124.722C116.428 124.649 116.524 124.608 116.625 124.607C116.726 124.605 116.824 124.644 116.896 124.714C116.969 124.785 117.011 124.881 117.012 124.982ZM117.063 127.78L117.088 129.178C117.089 129.231 117.079 129.283 117.06 129.332C117.041 129.381 117.012 129.425 116.976 129.463C116.939 129.501 116.896 129.531 116.848 129.552C116.8 129.573 116.748 129.584 116.696 129.585C116.643 129.586 116.591 129.577 116.542 129.557C116.493 129.538 116.449 129.51 116.411 129.473C116.373 129.437 116.343 129.393 116.322 129.345C116.301 129.297 116.29 129.245 116.289 129.193V129.189L116.276 127.791C116.275 127.686 116.315 127.586 116.388 127.512C116.46 127.437 116.56 127.395 116.664 127.393C116.768 127.392 116.868 127.432 116.943 127.504C117.018 127.577 117.061 127.676 117.063 127.78ZM117.113 130.577L117.138 131.976C117.139 132.03 117.129 132.084 117.11 132.134C117.09 132.184 117.061 132.23 117.023 132.269C116.986 132.308 116.941 132.339 116.891 132.361C116.842 132.383 116.788 132.394 116.734 132.395C116.68 132.396 116.627 132.387 116.576 132.367C116.526 132.347 116.48 132.317 116.441 132.28C116.402 132.242 116.371 132.197 116.35 132.148C116.328 132.098 116.317 132.044 116.316 131.99V131.987L116.302 130.588C116.301 130.481 116.343 130.377 116.418 130.301C116.493 130.224 116.595 130.18 116.702 130.178C116.809 130.177 116.913 130.218 116.99 130.293C117.067 130.367 117.111 130.47 117.113 130.577ZM117.163 133.374L117.18 134.783C117.181 134.838 117.171 134.892 117.151 134.943C117.13 134.994 117.1 135.04 117.062 135.079C117.024 135.119 116.978 135.15 116.928 135.171C116.878 135.193 116.824 135.205 116.769 135.205C116.714 135.206 116.66 135.196 116.609 135.175C116.559 135.155 116.512 135.125 116.473 135.087C116.434 135.049 116.403 135.003 116.381 134.953C116.36 134.902 116.348 134.848 116.347 134.794L116.347 134.774L116.329 133.386C116.329 133.331 116.339 133.277 116.359 133.226C116.379 133.175 116.409 133.128 116.447 133.089C116.485 133.05 116.531 133.018 116.581 132.997C116.631 132.975 116.685 132.963 116.74 132.962C116.795 132.962 116.849 132.971 116.9 132.992C116.951 133.012 116.997 133.042 117.036 133.08C117.076 133.118 117.107 133.164 117.129 133.214C117.151 133.264 117.162 133.318 117.163 133.373V133.374ZM116.978 136.268C116.85 136.752 116.662 137.218 116.42 137.656C116.368 137.751 116.28 137.821 116.176 137.851C116.073 137.881 115.961 137.869 115.867 137.817C115.772 137.765 115.702 137.677 115.672 137.573C115.642 137.47 115.654 137.358 115.706 137.263C115.913 136.883 116.073 136.479 116.181 136.059C116.194 136.007 116.218 135.958 116.25 135.914C116.283 135.871 116.324 135.835 116.37 135.807C116.417 135.78 116.468 135.761 116.522 135.754C116.575 135.746 116.63 135.749 116.682 135.763C116.735 135.776 116.784 135.8 116.827 135.833C116.87 135.865 116.907 135.906 116.934 135.952C116.962 135.999 116.98 136.051 116.987 136.104C116.995 136.158 116.992 136.212 116.978 136.265L116.978 136.268ZM115.541 138.865C115.2 139.23 114.816 139.552 114.397 139.824C114.308 139.881 114.201 139.901 114.098 139.879C113.994 139.857 113.904 139.795 113.847 139.707C113.789 139.619 113.769 139.511 113.791 139.408C113.812 139.304 113.874 139.214 113.962 139.156C114.325 138.918 114.657 138.636 114.951 138.317C115.024 138.239 115.124 138.192 115.23 138.188C115.337 138.184 115.441 138.222 115.519 138.295C115.597 138.367 115.644 138.467 115.648 138.574C115.653 138.68 115.615 138.784 115.543 138.863L115.541 138.865ZM113.054 140.474C112.581 140.634 112.09 140.735 111.592 140.775C111.49 140.784 111.388 140.751 111.309 140.685C111.23 140.618 111.181 140.523 111.173 140.42C111.164 140.317 111.197 140.215 111.263 140.137C111.33 140.058 111.425 140.009 111.528 140C111.961 139.963 112.388 139.872 112.799 139.729C112.848 139.712 112.899 139.705 112.951 139.708C113.003 139.711 113.053 139.724 113.099 139.747C113.146 139.77 113.188 139.801 113.222 139.84C113.256 139.878 113.283 139.923 113.299 139.972C113.316 140.021 113.323 140.073 113.32 140.124C113.317 140.176 113.304 140.227 113.282 140.273C113.259 140.32 113.228 140.361 113.189 140.395C113.15 140.43 113.105 140.456 113.056 140.473L113.054 140.474ZM110.172 140.811L108.775 140.822C108.677 140.822 108.583 140.785 108.514 140.716C108.444 140.648 108.404 140.555 108.402 140.458C108.401 140.36 108.438 140.266 108.505 140.195C108.573 140.125 108.665 140.084 108.763 140.082L110.158 140.043C110.259 140.04 110.358 140.077 110.432 140.147C110.507 140.217 110.55 140.314 110.553 140.415C110.556 140.517 110.519 140.616 110.449 140.69C110.379 140.765 110.283 140.808 110.181 140.811L110.172 140.811ZM107.378 140.827L105.98 140.829C105.89 140.829 105.804 140.794 105.74 140.731C105.676 140.668 105.64 140.582 105.639 140.492C105.638 140.402 105.673 140.316 105.735 140.251C105.798 140.187 105.883 140.15 105.973 140.148L107.368 140.117C107.415 140.115 107.462 140.123 107.505 140.14C107.549 140.157 107.589 140.182 107.622 140.214C107.656 140.246 107.684 140.285 107.702 140.328C107.721 140.37 107.732 140.416 107.733 140.463C107.734 140.51 107.726 140.556 107.709 140.6C107.693 140.643 107.667 140.683 107.635 140.717C107.603 140.751 107.564 140.778 107.522 140.797C107.479 140.816 107.433 140.826 107.386 140.827L107.378 140.827ZM104.583 140.827L103.186 140.821C103.104 140.821 103.026 140.788 102.968 140.73C102.91 140.672 102.877 140.594 102.876 140.512C102.876 140.43 102.908 140.351 102.965 140.292C103.023 140.234 103.101 140.2 103.183 140.199L104.578 140.175C104.665 140.174 104.748 140.207 104.81 140.267C104.872 140.327 104.908 140.409 104.91 140.495C104.911 140.581 104.879 140.665 104.819 140.727C104.759 140.789 104.677 140.825 104.591 140.827L104.583 140.827ZM101.788 140.812L100.39 140.798C100.316 140.797 100.245 140.767 100.193 140.715C100.141 140.662 100.112 140.591 100.112 140.517C100.112 140.442 100.141 140.371 100.193 140.319C100.245 140.266 100.316 140.236 100.39 140.235L101.787 140.219C101.826 140.218 101.865 140.225 101.901 140.239C101.938 140.253 101.971 140.274 102 140.302C102.028 140.329 102.05 140.361 102.066 140.397C102.082 140.433 102.09 140.472 102.091 140.511C102.091 140.55 102.084 140.589 102.069 140.626C102.055 140.662 102.033 140.695 102.006 140.723C101.978 140.751 101.945 140.773 101.909 140.788C101.873 140.804 101.834 140.811 101.795 140.812H101.788ZM98.9933 140.78L97.5962 140.759C97.5302 140.758 97.4672 140.731 97.4211 140.684C97.3749 140.636 97.3492 140.573 97.3496 140.507C97.3499 140.441 97.3764 140.378 97.423 140.331C97.4698 140.284 97.533 140.258 97.599 140.258L98.995 140.248C99.0299 140.248 99.0646 140.254 99.0971 140.267C99.1295 140.28 99.159 140.3 99.184 140.324C99.209 140.349 99.2289 140.378 99.2426 140.41C99.2563 140.442 99.2635 140.477 99.2638 140.512C99.2642 140.547 99.2576 140.582 99.2445 140.614C99.2314 140.646 99.212 140.676 99.1875 140.701C99.163 140.726 99.1338 140.746 99.1016 140.759C99.0694 140.773 99.0349 140.78 98.9999 140.78L98.9933 140.78ZM96.1985 140.734L94.8009 140.705C94.7432 140.703 94.6885 140.679 94.6484 140.638C94.6084 140.596 94.5863 140.54 94.587 140.482C94.5876 140.425 94.611 140.369 94.6519 140.329C94.6928 140.288 94.7481 140.265 94.8059 140.265L96.2025 140.263C96.2649 140.263 96.3249 140.287 96.3692 140.331C96.4135 140.375 96.4385 140.435 96.4388 140.498C96.439 140.56 96.4145 140.62 96.3705 140.664C96.3266 140.709 96.2668 140.734 96.2044 140.734L96.1985 140.734ZM93.4033 140.672L92.0073 140.636C91.9574 140.634 91.91 140.613 91.8755 140.577C91.8409 140.541 91.822 140.493 91.8228 140.443C91.8236 140.393 91.8441 140.345 91.8798 140.311C91.9156 140.276 91.9636 140.256 92.0135 140.257L93.4089 140.263C93.4632 140.263 93.5153 140.284 93.5536 140.323C93.5919 140.361 93.6134 140.413 93.6134 140.468C93.6133 140.522 93.5916 140.574 93.5532 140.612C93.5148 140.651 93.4626 140.672 93.4084 140.672L93.4033 140.672ZM90.6108 140.602L89.214 140.567C89.1677 140.566 89.1238 140.546 89.092 140.513C89.0601 140.479 89.0428 140.434 89.0438 140.388C89.0449 140.342 89.0642 140.298 89.0975 140.265C89.1309 140.233 89.1756 140.216 89.2219 140.216L90.6178 140.24C90.6417 140.24 90.6652 140.245 90.6871 140.254C90.7089 140.264 90.7288 140.277 90.7454 140.294C90.762 140.311 90.7751 140.332 90.7839 140.354C90.7927 140.376 90.7971 140.4 90.7968 140.423C90.7965 140.447 90.7914 140.471 90.782 140.493C90.7726 140.515 90.759 140.534 90.7419 140.551C90.7248 140.568 90.7046 140.581 90.6825 140.59C90.6604 140.598 90.6367 140.603 90.6129 140.602L90.6108 140.602ZM87.8169 140.528L86.4199 140.485C86.3767 140.483 86.3359 140.465 86.3062 140.434C86.2766 140.402 86.2607 140.36 86.2619 140.317C86.2631 140.274 86.2814 140.233 86.3127 140.203C86.344 140.173 86.3859 140.157 86.429 140.158L87.8255 140.189C87.8478 140.19 87.8698 140.195 87.8902 140.203C87.9107 140.212 87.9292 140.225 87.9446 140.241C87.9601 140.257 87.9723 140.276 87.9804 140.297C87.9886 140.318 87.9926 140.34 87.9921 140.362C87.9917 140.384 87.9869 140.406 87.9779 140.427C87.969 140.447 87.9561 140.466 87.94 140.481C87.9239 140.497 87.9049 140.509 87.8841 140.517C87.8633 140.525 87.8412 140.529 87.8189 140.528L87.8169 140.528ZM85.0227 140.437L83.6257 140.386C83.5857 140.384 83.5478 140.367 83.5205 140.338C83.4931 140.309 83.4785 140.27 83.4799 140.23C83.4813 140.189 83.4985 140.152 83.5278 140.124C83.5571 140.097 83.596 140.082 83.636 140.084L85.0325 140.123C85.0532 140.124 85.0736 140.128 85.0925 140.136C85.1114 140.145 85.1285 140.157 85.1428 140.172C85.1571 140.187 85.1683 140.204 85.1757 140.224C85.1832 140.243 85.1867 140.264 85.1862 140.284C85.1857 140.305 85.1811 140.325 85.1727 140.344C85.1643 140.363 85.1522 140.38 85.1372 140.394C85.1222 140.409 85.1045 140.42 85.0852 140.427C85.0659 140.435 85.0453 140.438 85.0246 140.437L85.0227 140.437ZM82.2288 140.33L80.834 140.271C80.7968 140.27 80.7617 140.253 80.7364 140.226C80.7112 140.199 80.6978 140.162 80.6994 140.125C80.7009 140.088 80.7171 140.053 80.7445 140.027C80.7719 140.002 80.8082 139.989 80.8454 139.99L82.2396 140.04C82.278 140.041 82.3144 140.058 82.3407 140.086C82.367 140.114 82.3811 140.151 82.3798 140.19C82.3786 140.228 82.3621 140.264 82.334 140.291C82.306 140.317 82.2686 140.331 82.2302 140.33L82.2288 140.33ZM79.4384 140.217L78.0425 140.158C78.0229 140.158 78.0036 140.153 77.9858 140.145C77.968 140.136 77.952 140.125 77.9387 140.11C77.9255 140.096 77.9152 140.079 77.9084 140.06C77.9017 140.042 77.8986 140.022 77.8995 140.003C77.9003 139.983 77.905 139.964 77.9132 139.946C77.9215 139.928 77.9332 139.912 77.9476 139.899C77.9621 139.886 77.979 139.875 77.9974 139.869C78.0159 139.862 78.0354 139.859 78.0551 139.86L78.0565 139.86L79.451 139.927C79.4894 139.929 79.5256 139.946 79.5516 139.974C79.5775 140.003 79.5912 140.04 79.5895 140.079C79.5878 140.117 79.571 140.153 79.5426 140.179C79.5143 140.205 79.4768 140.219 79.4384 140.217ZM76.6464 140.095L75.2502 140.027C75.2083 140.025 75.169 140.006 75.1408 139.975C75.1127 139.944 75.098 139.903 75.1 139.861C75.1021 139.819 75.1207 139.779 75.1517 139.751C75.1828 139.723 75.2237 139.708 75.2657 139.71L75.2672 139.71L76.6619 139.787C76.7026 139.789 76.7407 139.808 76.768 139.838C76.7953 139.868 76.8094 139.908 76.8074 139.949C76.8053 139.99 76.7873 140.028 76.7571 140.055C76.7269 140.083 76.6871 140.097 76.6464 140.095L76.6464 140.095ZM73.8541 139.954L72.458 139.876C72.4361 139.875 72.4146 139.869 72.3947 139.859C72.3749 139.85 72.3572 139.837 72.3425 139.82C72.3279 139.804 72.3166 139.785 72.3093 139.764C72.302 139.743 72.2989 139.721 72.3001 139.699C72.3014 139.677 72.3069 139.656 72.3164 139.636C72.326 139.616 72.3393 139.598 72.3557 139.583C72.3721 139.569 72.3912 139.557 72.412 139.55C72.4328 139.543 72.4548 139.54 72.4767 139.541L72.4784 139.541L73.8727 139.628C73.9157 139.631 73.9558 139.651 73.9844 139.683C74.0129 139.715 74.0275 139.757 74.0251 139.8C74.0226 139.843 74.0033 139.884 73.9712 139.912C73.9392 139.941 73.8971 139.956 73.8541 139.954H73.8541ZM71.0622 139.792L69.6663 139.708C69.6186 139.705 69.574 139.683 69.5424 139.647C69.5107 139.611 69.4945 139.564 69.4974 139.517C69.5003 139.469 69.522 139.424 69.5578 139.393C69.5935 139.361 69.6404 139.344 69.6881 139.347L69.691 139.347L71.0844 139.449C71.1069 139.45 71.129 139.456 71.1492 139.466C71.1695 139.476 71.1876 139.49 71.2025 139.507C71.2174 139.524 71.2289 139.544 71.2361 139.565C71.2434 139.587 71.2464 139.609 71.2449 139.632C71.2435 139.654 71.2376 139.676 71.2276 139.697C71.2177 139.717 71.2038 139.735 71.1868 139.75C71.1699 139.765 71.1501 139.776 71.1287 139.784C71.1073 139.791 71.0847 139.794 71.0622 139.792H71.0622ZM68.2725 139.622L66.8758 139.53C66.849 139.528 66.8227 139.521 66.7986 139.509C66.7744 139.497 66.7529 139.48 66.7351 139.46C66.6993 139.419 66.6811 139.366 66.6847 139.311C66.6883 139.257 66.7133 139.206 66.7542 139.171C66.795 139.135 66.8485 139.117 66.9027 139.12L66.9072 139.12L68.3004 139.237C68.3511 139.241 68.3982 139.265 68.4314 139.303C68.4645 139.342 68.4811 139.392 68.4774 139.443C68.4737 139.494 68.4501 139.541 68.4117 139.575C68.3733 139.608 68.3232 139.625 68.2725 139.622ZM65.4806 139.432L64.0856 139.328C64.0555 139.326 64.026 139.318 63.999 139.304C63.972 139.291 63.9479 139.272 63.9281 139.249C63.9083 139.226 63.8933 139.2 63.8838 139.171C63.8743 139.142 63.8705 139.112 63.8728 139.082C63.875 139.052 63.8832 139.022 63.8968 138.995C63.9105 138.968 63.9293 138.944 63.9522 138.925C63.9752 138.905 64.0018 138.89 64.0305 138.88C64.0592 138.871 64.0895 138.867 64.1197 138.87L64.1247 138.87L65.5156 138.998C65.5728 139.003 65.6258 139.031 65.6628 139.075C65.6999 139.118 65.7181 139.175 65.7135 139.233C65.7088 139.29 65.6817 139.343 65.6381 139.38C65.5945 139.418 65.5378 139.436 65.4806 139.432ZM62.6911 139.218L61.297 139.102C61.2298 139.096 61.1676 139.064 61.124 139.013C61.0805 138.961 61.0592 138.894 61.0648 138.827C61.0704 138.76 61.1024 138.698 61.1539 138.654C61.2054 138.611 61.272 138.589 61.3392 138.595L61.3449 138.595L62.7344 138.736C62.7981 138.742 62.8568 138.773 62.8976 138.822C62.9385 138.872 62.9582 138.935 62.9524 138.999C62.9467 139.062 62.916 139.121 62.867 139.162C62.818 139.204 62.7548 139.224 62.6911 139.218ZM59.9032 138.981L58.5098 138.852C58.4353 138.846 58.3665 138.809 58.3186 138.752C58.2707 138.694 58.2476 138.62 58.2545 138.545C58.2613 138.471 58.2975 138.402 58.3551 138.354C58.4127 138.306 58.4869 138.283 58.5615 138.29L58.5686 138.29L59.9563 138.446C60.0266 138.454 60.0911 138.489 60.1357 138.544C60.1802 138.599 60.2013 138.669 60.1943 138.74C60.1873 138.81 60.1528 138.875 60.0982 138.92C60.0437 138.965 59.9736 138.987 59.9032 138.981ZM57.117 138.717L55.7249 138.575C55.6429 138.566 55.5676 138.526 55.5156 138.462C55.4636 138.398 55.439 138.316 55.4474 138.234C55.4558 138.152 55.4964 138.076 55.5603 138.024C55.6242 137.972 55.7061 137.948 55.7881 137.956L55.796 137.957L57.1818 138.127C57.2595 138.137 57.3304 138.176 57.3791 138.237C57.4278 138.299 57.4503 138.377 57.4417 138.454C57.4332 138.532 57.3943 138.604 57.3335 138.653C57.2726 138.702 57.1948 138.725 57.117 138.717V138.717ZM54.3333 138.424L52.9406 138.266C52.8963 138.261 52.8533 138.247 52.8142 138.226C52.7751 138.204 52.7407 138.175 52.7128 138.14C52.685 138.105 52.6643 138.065 52.652 138.022C52.6396 137.979 52.6359 137.934 52.6409 137.89C52.646 137.846 52.6597 137.803 52.6814 137.764C52.703 137.725 52.7322 137.69 52.7672 137.663C52.8021 137.635 52.8422 137.614 52.8852 137.602C52.9281 137.59 52.973 137.586 53.0173 137.592L53.0261 137.593L54.4114 137.779C54.4965 137.79 54.5738 137.834 54.6265 137.902C54.6791 137.969 54.7029 138.055 54.6926 138.14C54.6823 138.226 54.6387 138.303 54.5714 138.356C54.5041 138.41 54.4185 138.434 54.3333 138.424ZM51.4937 138.017C51.0166 137.849 50.57 137.604 50.1714 137.292C50.0959 137.233 50.0469 137.146 50.0351 137.051C50.0233 136.956 50.0497 136.86 50.1085 136.785C50.1673 136.709 50.2537 136.66 50.3486 136.649C50.4435 136.637 50.5393 136.663 50.6148 136.722L50.6193 136.726C50.9531 136.994 51.3281 137.206 51.7298 137.355C51.8171 137.386 51.8884 137.451 51.928 137.536C51.9676 137.62 51.9723 137.716 51.9411 137.804C51.9099 137.891 51.8453 137.963 51.7615 138.003C51.6777 138.043 51.5814 138.048 51.4937 138.017V138.017ZM49.1491 136.181C48.8748 135.76 48.6617 135.302 48.5163 134.821C48.5016 134.773 48.4964 134.723 48.5011 134.674C48.5058 134.624 48.5201 134.576 48.5434 134.532C48.5667 134.487 48.5984 134.448 48.6368 134.417C48.6752 134.385 48.7194 134.361 48.7671 134.346C48.8147 134.332 48.8647 134.326 48.9143 134.331C48.9639 134.336 49.0121 134.35 49.0561 134.373C49.1002 134.397 49.1392 134.428 49.171 134.467C49.2028 134.505 49.2267 134.55 49.2413 134.597L49.2428 134.602C49.3618 135.017 49.5391 135.412 49.7694 135.776C49.8223 135.859 49.8405 135.959 49.82 136.054C49.7995 136.15 49.742 136.234 49.66 136.287C49.5781 136.341 49.4783 136.359 49.3826 136.339C49.2869 136.319 49.2029 136.262 49.1491 136.181ZM48.2449 133.368C48.2073 132.882 48.2072 132.394 48.2449 131.909C48.2533 131.804 48.3029 131.707 48.3826 131.638C48.4624 131.57 48.566 131.536 48.6707 131.544C48.7755 131.551 48.873 131.6 48.9419 131.679C49.0108 131.759 49.0456 131.862 49.0387 131.967L49.0383 131.972C48.9977 132.417 48.9917 132.864 49.02 133.309C49.0272 133.411 48.9935 133.513 48.9264 133.59C48.8592 133.668 48.7641 133.716 48.6617 133.724C48.5593 133.732 48.458 133.698 48.3799 133.632C48.3018 133.565 48.2533 133.47 48.2449 133.368L48.2449 133.368ZM48.3304 130.53L48.3597 129.144L48.3599 129.134C48.3624 129.024 48.4087 128.919 48.4884 128.843C48.5681 128.766 48.6749 128.725 48.7852 128.727C48.8955 128.73 49.0004 128.776 49.0769 128.855C49.1533 128.935 49.1951 129.042 49.193 129.152L49.1929 129.158L49.1443 130.565C49.1403 130.672 49.0941 130.773 49.0159 130.847C48.9376 130.92 48.8335 130.96 48.7262 130.957C48.619 130.954 48.5172 130.909 48.443 130.831C48.3689 130.753 48.3283 130.65 48.3302 130.542L48.3304 130.53ZM48.3628 127.755L48.3465 126.363L48.3464 126.358C48.3458 126.301 48.3562 126.245 48.3771 126.193C48.398 126.141 48.429 126.093 48.4683 126.053C48.5076 126.013 48.5545 125.98 48.6062 125.958C48.6579 125.936 48.7135 125.924 48.7698 125.924C48.826 125.923 48.8819 125.934 48.9341 125.954C48.9863 125.975 49.0339 126.006 49.0742 126.046C49.1144 126.085 49.1465 126.132 49.1687 126.184C49.1908 126.236 49.2025 126.291 49.2032 126.347L49.2033 126.351L49.209 127.754C49.2095 127.866 49.1657 127.973 49.087 128.053C49.0084 128.133 48.9013 128.178 48.7894 128.179C48.6775 128.18 48.5697 128.136 48.4898 128.058C48.4098 127.98 48.3642 127.873 48.3629 127.761L48.3628 127.755ZM48.3133 124.971L48.2654 123.579L48.2653 123.575C48.2613 123.459 48.3038 123.345 48.3832 123.26C48.4627 123.175 48.5727 123.125 48.689 123.121C48.8054 123.117 48.9185 123.159 49.0036 123.239C49.0888 123.318 49.1389 123.428 49.143 123.545L49.143 123.548L49.1805 124.949C49.1834 125.063 49.1409 125.175 49.0621 125.258C48.9834 125.341 48.8748 125.39 48.7603 125.394C48.6457 125.397 48.5344 125.355 48.4506 125.277C48.3669 125.199 48.3176 125.09 48.3135 124.976L48.3133 124.971ZM48.2042 122.187L48.1305 120.796L48.1304 120.792C48.1272 120.733 48.1356 120.674 48.1553 120.618C48.1749 120.563 48.2054 120.511 48.2449 120.467C48.2843 120.423 48.3321 120.387 48.3855 120.362C48.4388 120.336 48.4966 120.322 48.5556 120.318C48.6147 120.315 48.6737 120.324 48.7295 120.344C48.7852 120.363 48.8365 120.394 48.8804 120.433C48.9243 120.473 48.96 120.521 48.9854 120.574C49.0109 120.628 49.0255 120.686 49.0286 120.745L49.0288 120.748L49.0921 122.147C49.0976 122.265 49.0563 122.38 48.9772 122.467C48.8981 122.554 48.7876 122.606 48.6701 122.612C48.5526 122.618 48.4376 122.577 48.3503 122.498C48.263 122.419 48.2105 122.309 48.2044 122.191L48.2042 122.187ZM48.0451 119.405L47.9482 118.014L47.9479 118.01C47.9397 117.889 47.9801 117.769 48.0602 117.677C48.1403 117.585 48.2536 117.528 48.3752 117.52C48.4968 117.511 48.6168 117.551 48.7089 117.631C48.801 117.711 48.8577 117.825 48.8665 117.946L48.8667 117.95L48.9535 119.349C48.9611 119.469 48.9207 119.588 48.8412 119.678C48.7617 119.769 48.6495 119.824 48.5294 119.832C48.4092 119.84 48.2907 119.8 48.2 119.721C48.1093 119.641 48.0537 119.529 48.0453 119.409L48.0451 119.405ZM47.8402 116.625L47.7213 115.237L47.721 115.233C47.7157 115.171 47.7226 115.109 47.7413 115.05C47.76 114.991 47.7902 114.937 47.83 114.889C47.9105 114.794 48.0256 114.734 48.1501 114.723C48.2746 114.712 48.3982 114.752 48.4938 114.832C48.5893 114.913 48.649 115.028 48.6596 115.153L48.6599 115.156L48.7688 116.553C48.7784 116.676 48.739 116.798 48.6591 116.892C48.5792 116.986 48.4654 117.044 48.3426 117.054C48.2198 117.064 48.0979 117.025 48.0038 116.945C47.9097 116.866 47.851 116.752 47.8405 116.629L47.8402 116.625ZM47.5916 113.849L47.4512 112.461L47.4508 112.457C47.4444 112.395 47.4505 112.331 47.4687 112.27C47.4869 112.21 47.5168 112.153 47.5568 112.104C47.5968 112.055 47.6461 112.014 47.7018 111.984C47.7575 111.954 47.8186 111.936 47.8815 111.929C47.9445 111.923 48.008 111.929 48.0686 111.947C48.1292 111.965 48.1856 111.995 48.2346 112.035C48.2836 112.075 48.3243 112.125 48.3543 112.18C48.3842 112.236 48.4029 112.297 48.4093 112.36L48.4097 112.364L48.5402 113.76C48.552 113.885 48.5136 114.011 48.4334 114.108C48.3532 114.205 48.2377 114.267 48.1122 114.279C47.9868 114.291 47.8616 114.253 47.7641 114.173C47.6666 114.093 47.6047 113.978 47.592 113.852L47.5916 113.849ZM47.3001 111.075L47.1386 109.691L47.1381 109.688C47.123 109.558 47.16 109.427 47.241 109.325C47.322 109.222 47.4404 109.156 47.5701 109.141C47.6997 109.126 47.8301 109.163 47.9325 109.244C48.035 109.325 48.101 109.443 48.1162 109.573L48.1166 109.577L48.2684 110.969C48.2824 111.097 48.2451 111.226 48.1646 111.326C48.0842 111.427 47.9671 111.492 47.8391 111.506C47.711 111.521 47.5825 111.484 47.4815 111.404C47.3806 111.324 47.3155 111.207 47.3006 111.079L47.3001 111.075ZM46.97 108.308L46.7942 106.925L46.7937 106.922C46.777 106.792 46.8125 106.661 46.8922 106.558C46.9719 106.454 47.0894 106.387 47.2188 106.37C47.3483 106.354 47.479 106.389 47.5823 106.469C47.6856 106.549 47.7529 106.666 47.7696 106.796L47.9504 108.186C47.9592 108.25 47.9551 108.316 47.9385 108.379C47.9218 108.442 47.8929 108.501 47.8533 108.553C47.8138 108.605 47.7644 108.648 47.708 108.681C47.6516 108.713 47.5893 108.734 47.5247 108.743C47.4601 108.751 47.3945 108.747 47.3317 108.73C47.2688 108.713 47.2099 108.683 47.1584 108.643C47.1069 108.604 47.0639 108.554 47.0316 108.497C46.9994 108.441 46.9787 108.378 46.9707 108.313L46.9704 108.312L46.97 108.308ZM46.6075 105.544L46.4099 104.163L46.4093 104.16C46.3908 104.031 46.4238 103.901 46.5013 103.797C46.5787 103.694 46.6942 103.625 46.8222 103.606C46.9503 103.588 47.0805 103.621 47.1841 103.698C47.2878 103.776 47.3564 103.891 47.375 104.02L47.5778 105.407C47.5871 105.471 47.5838 105.536 47.568 105.598C47.5523 105.661 47.5244 105.719 47.486 105.771C47.4475 105.823 47.3993 105.866 47.3441 105.899C47.2888 105.932 47.2276 105.954 47.164 105.963C47.1003 105.973 47.0354 105.969 46.9731 105.953C46.9107 105.938 46.852 105.91 46.8004 105.871C46.7488 105.833 46.7053 105.785 46.6723 105.729C46.6394 105.674 46.6176 105.613 46.6083 105.549L46.6081 105.548L46.6075 105.544ZM46.2011 102.785L45.9809 101.407L45.9803 101.404C45.9605 101.277 45.9915 101.148 46.0666 101.044C46.1417 100.941 46.2548 100.871 46.3811 100.851C46.5074 100.83 46.6366 100.861 46.7405 100.935C46.8444 101.01 46.9145 101.123 46.9355 101.249L47.1609 102.634C47.1711 102.697 47.1689 102.761 47.1543 102.823C47.1397 102.885 47.113 102.944 47.0757 102.996C47.0384 103.048 46.9913 103.092 46.9371 103.125C46.8828 103.159 46.8225 103.181 46.7595 103.192C46.6966 103.202 46.6322 103.2 46.5701 103.185C46.508 103.17 46.4494 103.144 46.3976 103.106C46.3458 103.069 46.3019 103.022 46.2683 102.968C46.2347 102.913 46.2122 102.853 46.2019 102.79L46.2017 102.789L46.2011 102.785ZM45.7494 100.032L45.5065 98.661L45.5058 98.6569C45.4837 98.5317 45.5122 98.4028 45.5849 98.2986C45.6576 98.1944 45.7687 98.1232 45.8937 98.1009C46.0188 98.0785 46.1476 98.1067 46.2519 98.1792C46.3562 98.2518 46.4275 98.3628 46.4502 98.4879L46.6985 99.8666C46.721 99.9923 46.6927 100.122 46.6198 100.227C46.5469 100.332 46.4354 100.403 46.3098 100.426C46.1841 100.449 46.0546 100.421 45.9497 100.348C45.8448 100.275 45.7731 100.163 45.7503 100.038L45.7501 100.036L45.7494 100.032ZM45.2516 97.2913L44.9846 95.9235L44.9838 95.9193C44.9596 95.7955 44.9855 95.6672 45.0558 95.5625C45.1261 95.4578 45.235 95.3853 45.3586 95.3609C45.4823 95.3366 45.6105 95.3623 45.7152 95.4325C45.8199 95.5028 45.8925 95.6117 45.917 95.7354L46.1897 97.1108C46.202 97.1724 46.2019 97.2357 46.1897 97.2973C46.1774 97.3589 46.1531 97.4174 46.1183 97.4696C46.0834 97.5218 46.0386 97.5666 45.9864 97.6014C45.9343 97.6363 45.8757 97.6605 45.8142 97.6727C45.7527 97.6849 45.6894 97.6849 45.6279 97.6726C45.5663 97.6603 45.5078 97.6361 45.4557 97.6012C45.4036 97.5663 45.3588 97.5214 45.324 97.4692C45.2892 97.417 45.265 97.3585 45.2527 97.2969L45.2524 97.2955L45.2516 97.2913ZM44.7051 94.5579L44.413 93.1948L44.412 93.1905C44.3861 93.0683 44.4096 92.9409 44.4774 92.836C44.5452 92.7312 44.6517 92.6575 44.7737 92.6311C44.8956 92.6048 45.0231 92.6279 45.1281 92.6954C45.233 92.7629 45.307 92.8692 45.3338 92.9912L45.6318 94.3621C45.645 94.4229 45.6461 94.4858 45.6351 94.547C45.624 94.6083 45.6011 94.6667 45.5674 94.7191C45.5338 94.7714 45.4902 94.8167 45.4391 94.8522C45.3881 94.8877 45.3305 94.9127 45.2697 94.926C45.209 94.9392 45.1462 94.9403 45.085 94.9293C45.0238 94.9182 44.9654 94.8952 44.9131 94.8616C44.8607 94.8279 44.8156 94.7843 44.7801 94.7332C44.7446 94.6821 44.7196 94.6245 44.7063 94.5636L44.7061 94.5623L44.7051 94.5579ZM44.1079 91.8345L43.7895 90.4772L43.7884 90.4727C43.7603 90.3521 43.7811 90.2252 43.8462 90.1199C43.9114 90.0146 44.0156 89.9395 44.1361 89.911C44.2565 89.8825 44.3833 89.903 44.4887 89.968C44.5941 90.0329 44.6694 90.1371 44.6982 90.2576L45.0227 91.6229C45.0513 91.744 45.0307 91.8716 44.9654 91.9775C44.9001 92.0835 44.7955 92.1592 44.6744 92.188C44.5534 92.2168 44.426 92.1964 44.32 92.1312C44.214 92.066 44.1383 91.9614 44.1093 91.8403L44.1089 91.839L44.1079 91.8345ZM43.4595 89.1228L43.121 87.771L43.1198 87.7664C43.0906 87.6501 43.1086 87.5269 43.1698 87.4238C43.231 87.3207 43.3305 87.2461 43.4466 87.2161C43.5626 87.1862 43.6857 87.2034 43.7891 87.264C43.8925 87.3246 43.9678 87.4236 43.9985 87.5396L44.3579 88.8959C44.3892 89.0147 44.3722 89.1411 44.3105 89.2473C44.2487 89.3536 44.1474 89.4309 44.0287 89.4624C43.9101 89.4939 43.7837 89.477 43.6775 89.4153C43.5713 89.3537 43.4939 89.2523 43.4623 89.1336L43.4614 89.1299L43.4595 89.1228ZM42.768 86.4225L42.4002 85.078L42.3989 85.0733C42.3685 84.9625 42.3832 84.8442 42.4397 84.7442C42.4962 84.6442 42.5899 84.5706 42.7004 84.5396C42.8109 84.5085 42.9292 84.5224 43.0295 84.5783C43.1298 84.6341 43.2039 84.7274 43.2357 84.8378L43.6245 86.1866C43.6406 86.2427 43.6456 86.3014 43.6391 86.3595C43.6326 86.4175 43.6147 86.4736 43.5865 86.5247C43.5583 86.5758 43.5204 86.6209 43.4748 86.6573C43.4292 86.6937 43.3769 86.7208 43.3208 86.737C43.2648 86.7532 43.2061 86.7581 43.1481 86.7516C43.0902 86.7451 43.034 86.7272 42.983 86.699C42.9319 86.6708 42.8869 86.6328 42.8505 86.5872C42.8141 86.5415 42.7871 86.4892 42.7709 86.4331L42.7699 86.4295L42.768 86.4225ZM42.0172 83.7378L41.6186 82.4022L41.6171 82.3974C41.5857 82.2922 41.5972 82.1788 41.649 82.082C41.7008 81.9852 41.7887 81.9129 41.8937 81.8807C41.9986 81.8486 42.1119 81.8592 42.209 81.9104C42.3061 81.9616 42.379 82.0491 42.4118 82.1539L42.8316 83.4935C42.8654 83.6012 42.855 83.7178 42.8028 83.8179C42.7505 83.9179 42.6608 83.993 42.5532 84.0268C42.4456 84.0606 42.329 84.0502 42.2291 83.9979C42.1292 83.9457 42.0541 83.8558 42.0203 83.7481L42.0193 83.7448L42.0172 83.7378ZM41.2039 81.0716L40.7725 79.7463L40.771 79.7415C40.7385 79.6418 40.7467 79.5334 40.7938 79.4397C40.8409 79.3461 40.9231 79.275 41.0225 79.2418C41.1219 79.2087 41.2303 79.2162 41.3241 79.2628C41.418 79.3094 41.4895 79.3913 41.5233 79.4905L41.9759 80.8195C41.9931 80.87 42.0002 80.9234 41.9968 80.9767C41.9933 81.0299 41.9795 81.082 41.956 81.1299C41.9324 81.1778 41.8997 81.2206 41.8597 81.2558C41.8196 81.291 41.773 81.318 41.7226 81.3352C41.6721 81.3525 41.6187 81.3596 41.5655 81.3561C41.5123 81.3527 41.4603 81.3388 41.4124 81.3153C41.3646 81.2917 41.3218 81.259 41.2866 81.2189C41.2514 81.1789 41.2244 81.1322 41.2072 81.0817L41.2062 81.0786L41.2039 81.0716ZM40.3241 78.4268L39.858 77.1136L39.8562 77.1086C39.8393 77.062 39.8317 77.0125 39.8339 76.9629C39.8362 76.9134 39.8481 76.8648 39.8691 76.8198C39.9115 76.7291 39.9882 76.6589 40.0823 76.6247C40.1764 76.5905 40.2802 76.5951 40.3709 76.6376C40.4616 76.68 40.5317 76.7567 40.5658 76.8509L41.0534 78.1675C41.0888 78.2638 41.0846 78.3701 41.0417 78.4633C40.9988 78.5564 40.9208 78.6287 40.8247 78.6644C40.7286 78.7 40.6223 78.6961 40.5292 78.6534C40.436 78.6107 40.3635 78.5328 40.3277 78.4368L40.3266 78.4338L40.3241 78.4268ZM39.3736 75.807L38.8703 74.5076L38.8684 74.5026C38.8343 74.4143 38.8364 74.3161 38.8743 74.2294C38.9122 74.1426 38.9829 74.0744 39.0708 74.0396C39.1588 74.0048 39.257 74.0062 39.3439 74.0435C39.4309 74.0808 39.4995 74.151 39.535 74.2388L40.0598 75.5411C40.0779 75.586 40.087 75.634 40.0865 75.6823C40.0861 75.7307 40.0761 75.7785 40.0572 75.823C40.0383 75.8675 40.0108 75.9078 39.9763 75.9417C39.9419 75.9756 39.9011 76.0023 39.8562 76.0204C39.8114 76.0385 39.7635 76.0476 39.7152 76.0471C39.6669 76.0467 39.6191 76.0367 39.5746 76.0178C39.5302 75.9989 39.4899 75.9714 39.456 75.9369C39.4222 75.9023 39.3954 75.8615 39.3774 75.8167L39.3762 75.8139L39.3736 75.807ZM38.3479 73.216L37.8105 71.9304L37.8084 71.9255C37.7745 71.8445 37.7739 71.7534 37.8068 71.672C37.8396 71.5906 37.9031 71.5254 37.9837 71.4907C38.0642 71.4559 38.1552 71.4543 38.2369 71.4863C38.3186 71.5182 38.3844 71.5811 38.42 71.6614L38.9902 72.9446C39.0089 72.9865 39.0191 73.0316 39.0204 73.0775C39.0216 73.1233 39.0138 73.169 38.9974 73.2118C38.981 73.2546 38.9563 73.2938 38.9247 73.327C38.8932 73.3603 38.8554 73.387 38.8135 73.4057C38.7716 73.4243 38.7265 73.4345 38.6807 73.4357C38.6349 73.4368 38.5893 73.4289 38.5465 73.4125C38.5038 73.396 38.4647 73.3712 38.4315 73.3396C38.3983 73.308 38.3717 73.2701 38.3531 73.2282L38.3507 73.2227L38.3479 73.216ZM37.2522 70.6538L36.6722 69.3869L36.67 69.382C36.6369 69.3097 36.6337 69.2272 36.661 69.1525C36.6883 69.0778 36.7439 69.0169 36.8158 68.9829C36.8877 68.949 36.9701 68.9448 37.045 68.9713C37.12 68.9977 37.1815 69.0527 37.2162 69.1242L37.8289 70.3876C37.8471 70.4252 37.8577 70.466 37.8602 70.5076C37.8626 70.5493 37.8569 70.591 37.8432 70.6305C37.8296 70.6699 37.8083 70.7063 37.7806 70.7375C37.7529 70.7687 37.7193 70.7941 37.6818 70.8123C37.6443 70.8306 37.6036 70.8412 37.5619 70.8437C37.5203 70.8461 37.4786 70.8404 37.4392 70.8267C37.3998 70.813 37.3634 70.7917 37.3323 70.764C37.3011 70.7363 37.2757 70.7027 37.2575 70.6652L37.2551 70.6602L37.2522 70.6538ZM36.0699 68.1303L35.4444 66.8852L35.442 66.8805C35.4099 66.8168 35.4043 66.7429 35.4263 66.675C35.4483 66.6071 35.4962 66.5506 35.5596 66.5178C35.623 66.485 35.6967 66.4786 35.7648 66.4999C35.8329 66.5212 35.8898 66.5686 35.9233 66.6316L36.5812 67.8719C36.5993 67.9052 36.6106 67.9417 36.6145 67.9794C36.6184 68.0171 36.6147 68.0552 36.6038 68.0915C36.5929 68.1277 36.5749 68.1615 36.5509 68.1908C36.5269 68.22 36.4973 68.2443 36.4639 68.262C36.4304 68.2798 36.3938 68.2907 36.3561 68.2943C36.3184 68.2978 36.2804 68.2938 36.2443 68.2825C36.2082 68.2712 36.1746 68.2529 36.1456 68.2286C36.1166 68.2042 36.0927 68.1744 36.0752 68.1408L36.073 68.1364L36.0699 68.1303ZM34.7941 65.651C34.5699 65.2481 34.3515 64.8323 34.1366 64.4104C34.108 64.3542 34.1027 64.2888 34.1218 64.2287C34.1409 64.1685 34.183 64.1183 34.2389 64.089C34.2948 64.0596 34.36 64.0535 34.4203 64.072C34.4807 64.0904 34.5313 64.1319 34.5613 64.1875L34.5629 64.1905C34.7797 64.5937 35.0031 64.9974 35.2407 65.4031C35.275 65.4616 35.2846 65.5313 35.2675 65.5969C35.2504 65.6624 35.208 65.7186 35.1496 65.7528C35.0912 65.7871 35.0215 65.7968 34.956 65.7797C34.8904 65.7626 34.8344 65.7201 34.8001 65.6616L34.798 65.6578L34.7941 65.651ZM33.5206 63.15L32.9243 61.8792C32.9011 61.8296 32.8983 61.773 32.9165 61.7214C32.9347 61.6698 32.9725 61.6275 33.0217 61.6037C33.0709 61.5798 33.1275 61.5763 33.1792 61.5939C33.231 61.6115 33.2737 61.6488 33.2981 61.6978L33.2995 61.7006L33.9228 62.9516L33.9243 62.9544C33.9375 62.9808 33.9453 63.0095 33.9474 63.0389C33.9495 63.0684 33.9458 63.0979 33.9365 63.1259C33.9272 63.1539 33.9124 63.1798 33.8931 63.2021C33.8738 63.2244 33.8502 63.2426 33.8238 63.2558C33.7974 63.269 33.7687 63.2768 33.7393 63.2788C33.7099 63.2809 33.6804 63.2771 33.6524 63.2677C33.6244 63.2583 33.5986 63.2435 33.5764 63.2241C33.5542 63.2047 33.536 63.1812 33.5229 63.1547L33.5206 63.15ZM32.3524 60.5996L31.7997 59.3096C31.7828 59.2703 31.7821 59.226 31.7976 59.1862C31.8131 59.1465 31.8436 59.1144 31.8825 59.0969C31.9214 59.0794 31.9657 59.0779 32.0057 59.0927C32.0457 59.1076 32.0783 59.1376 32.0964 59.1762L32.0977 59.1791L32.6891 60.4453L32.6904 60.448C32.7008 60.4701 32.7067 60.4939 32.7078 60.5183C32.7089 60.5427 32.7053 60.567 32.697 60.5899C32.6887 60.6128 32.676 60.6339 32.6595 60.6519C32.6431 60.6699 32.6233 60.6845 32.6012 60.6948C32.5791 60.7051 32.5553 60.711 32.5309 60.7121C32.5066 60.7131 32.4823 60.7094 32.4594 60.7011C32.4365 60.6927 32.4155 60.6799 32.3975 60.6635C32.3796 60.647 32.3651 60.6271 32.3548 60.605L32.3524 60.5996ZM31.2722 58.0103L30.7779 56.6966C30.7671 56.6678 30.7679 56.6358 30.7804 56.6076C30.7929 56.5793 30.8159 56.5572 30.8446 56.5458C30.8733 56.5344 30.9052 56.5348 30.9336 56.5468C30.962 56.5588 30.9846 56.5815 30.9964 56.61L30.998 56.6138L31.5313 57.9035L31.5329 57.9072C31.5399 57.9242 31.5435 57.9425 31.5435 57.9609C31.5435 57.9793 31.5399 57.9975 31.5328 58.0146C31.5258 58.0316 31.5154 58.047 31.5024 58.0601C31.4894 58.0731 31.474 58.0834 31.4569 58.0904C31.4399 58.0975 31.4217 58.1011 31.4033 58.1011C31.3849 58.1011 31.3667 58.0975 31.3497 58.0904C31.3327 58.0834 31.3172 58.073 31.3042 58.06C31.2912 58.047 31.2809 58.0315 31.2738 58.0145L31.2722 58.0103ZM30.3351 55.3638L29.9905 53.9972C29.9858 53.9788 29.9886 53.9593 29.9982 53.9429C30.0078 53.9265 30.0234 53.9146 30.0417 53.9096C30.06 53.9047 30.0795 53.9071 30.096 53.9164C30.1126 53.9258 30.1247 53.9412 30.13 53.9594L30.1326 53.9686L30.5161 55.3059L30.5185 55.3144C30.5254 55.3386 30.5223 55.3645 30.5101 55.3865C30.4979 55.4085 30.4775 55.4247 30.4533 55.4316C30.4291 55.4386 30.4032 55.4356 30.3812 55.4235C30.3592 55.4114 30.3429 55.391 30.3359 55.3668L30.3351 55.3638ZM30.0312 52.5794C30.0854 52.488 30.1715 52.4199 30.2729 52.3883C30.2788 52.3865 30.2849 52.3858 30.291 52.3864C30.2971 52.3869 30.303 52.3887 30.3084 52.3915C30.3139 52.3944 30.3187 52.3983 30.3226 52.403C30.3265 52.4077 30.3295 52.4131 30.3313 52.4189C30.3347 52.4307 30.3334 52.4433 30.3278 52.4541C30.3222 52.465 30.3126 52.4733 30.301 52.4772C30.2225 52.5037 30.1567 52.5586 30.1166 52.6312C30.1133 52.6369 30.1089 52.6419 30.1037 52.6459C30.0985 52.6499 30.0926 52.6528 30.0862 52.6545C30.0799 52.6562 30.0733 52.6566 30.0668 52.6558C30.0603 52.6549 30.054 52.6528 30.0483 52.6495C30.0427 52.6462 30.0377 52.6418 30.0337 52.6366C30.0297 52.6314 30.0268 52.6254 30.0251 52.6191C30.0234 52.6127 30.023 52.6061 30.0239 52.5996C30.0248 52.5931 30.0269 52.5868 30.0302 52.5811L30.0312 52.5794ZM73.4971 84.288C72.478 84.5484 71.4387 84.7224 70.3903 84.8081C69.3555 84.9014 68.3211 84.9398 67.2871 84.9313C66.2532 84.9231 65.2197 84.8658 64.1867 84.754C63.1399 84.65 62.1038 84.4566 61.0899 84.1761C62.1087 83.914 63.1481 83.7393 64.1966 83.6542C65.2315 83.561 66.2658 83.5224 67.2998 83.5329C68.3337 83.543 69.3672 83.6001 70.4002 83.712C71.4468 83.8166 72.4828 84.0093 73.4971 84.288ZM46.7681 140.686C46.9459 142.143 47.0244 143.601 47.0826 145.058C47.1341 146.516 47.1635 147.973 47.1093 149.43C47.0426 150.888 46.9068 152.345 46.8726 153.802C46.87 154.167 46.8583 154.531 46.8633 154.895C46.8359 155.242 46.884 155.591 47.0043 155.918C47.1287 156.226 47.3312 156.496 47.5917 156.702C47.8522 156.907 48.1618 157.042 48.49 157.091C48.8052 157.133 49.1256 157.096 49.4238 156.986C49.7092 156.872 49.9634 156.692 50.1652 156.46C50.3609 156.234 50.4975 155.963 50.563 155.671C50.5945 155.527 50.6096 155.381 50.608 155.234L50.5965 154.689C50.5643 153.231 50.5252 151.774 50.5379 150.317C50.5773 147.402 50.6942 144.487 50.9882 141.573C50.9894 141.561 50.9948 141.55 51.0034 141.543C51.012 141.535 51.0232 141.53 51.0348 141.53C51.0464 141.53 51.0576 141.535 51.0662 141.543C51.0748 141.55 51.0802 141.561 51.0814 141.573C51.3753 144.487 51.4923 147.402 51.5317 150.317C51.5443 151.774 51.5053 153.231 51.4731 154.689L51.4608 155.237C51.4555 155.455 51.422 155.671 51.3612 155.88C51.1867 156.497 50.7779 157.022 50.222 157.342C49.6662 157.662 49.0074 157.751 48.3864 157.591C47.9991 157.49 47.643 157.294 47.35 157.021C47.0569 156.748 46.8362 156.406 46.7074 156.027C46.6459 155.842 46.6052 155.65 46.586 155.456C46.5736 155.257 46.5777 155.077 46.5797 154.895C46.5847 154.531 46.573 154.167 46.5704 153.802C46.5361 152.345 46.4004 150.888 46.3337 149.43C46.2795 147.973 46.3089 146.516 46.3604 145.058C46.4187 143.601 46.497 142.143 46.6749 140.686C46.6763 140.675 46.6818 140.664 46.6904 140.657C46.699 140.649 46.71 140.645 46.7215 140.645C46.733 140.645 46.744 140.649 46.7526 140.657C46.7612 140.664 46.7667 140.675 46.7681 140.686ZM113.256 143.95C113.434 145.194 113.513 146.439 113.571 147.683C113.622 148.927 113.652 150.171 113.598 151.416C113.54 152.66 113.39 153.904 113.361 155.148C113.343 155.44 113.393 155.732 113.507 156.001C113.621 156.27 113.795 156.509 114.016 156.7C114.274 156.921 114.587 157.068 114.921 157.125C115.256 157.182 115.6 157.146 115.916 157.022C116.232 156.898 116.508 156.69 116.715 156.42C116.921 156.15 117.05 155.829 117.088 155.491C117.111 155.267 117.089 154.929 117.085 154.621C117.053 153.377 117.013 152.133 117.026 150.889C117.048 148.394 117.198 145.902 117.476 143.423C117.478 143.412 117.483 143.401 117.492 143.394C117.5 143.386 117.511 143.382 117.523 143.382C117.534 143.382 117.546 143.386 117.554 143.394C117.563 143.401 117.568 143.412 117.57 143.423C117.848 145.902 117.998 148.394 118.02 150.889C118.033 152.133 117.994 153.377 117.961 154.621C117.964 154.954 117.945 155.285 117.904 155.615C117.81 156.153 117.537 156.644 117.13 157.009C116.723 157.373 116.205 157.589 115.66 157.623C115.319 157.645 114.977 157.595 114.657 157.477C114.337 157.358 114.046 157.172 113.802 156.933C113.564 156.701 113.375 156.424 113.247 156.117C113.12 155.81 113.055 155.481 113.059 155.148C113.03 153.904 112.879 152.66 112.822 151.416C112.768 150.171 112.797 148.927 112.849 147.683C112.907 146.439 112.985 145.194 113.163 143.95C113.165 143.939 113.17 143.929 113.179 143.921C113.187 143.914 113.198 143.91 113.21 143.91C113.221 143.91 113.232 143.914 113.241 143.921C113.249 143.929 113.255 143.939 113.256 143.95ZM49.1454 54.096C49.4612 53.5767 49.8595 53.1124 50.3246 52.7214C50.784 52.3232 51.2807 51.9705 51.8079 51.6679C52.8757 51.0796 54.0297 50.664 55.2272 50.4363C56.418 50.1919 57.6307 50.0703 58.8462 50.0733C59.4507 50.0996 60.0566 50.1227 60.6607 50.1609L62.4624 50.37C62.5361 50.3784 62.605 50.4108 62.6586 50.462L62.6715 50.4744C63.6361 51.3953 64.6109 52.3056 65.567 53.2352L65.2219 53.1214C66.8536 52.9951 68.494 53.1979 70.0459 53.7176C71.5807 54.2174 73.0185 54.977 74.2966 55.9633C74.6163 56.2042 74.9033 56.4869 75.2071 56.7462C75.3548 56.8808 75.5112 57.0059 75.6511 57.148L76.0546 57.5908C76.3168 57.8914 76.6056 58.168 76.8521 58.48L77.5643 59.4374C77.6795 59.5992 77.808 59.7516 77.9146 59.9189L78.2224 60.4286L78.8372 61.4477C79.2024 62.1504 79.5372 62.8695 79.8887 63.5806L79.8901 63.5838L79.8931 63.5922C80.1898 64.4371 80.5683 65.251 81.0233 66.0222C81.2491 66.4001 81.5157 66.752 81.8183 67.0716C82.0871 67.3854 82.4434 67.6117 82.8416 67.7214C82.87 67.7268 82.8971 67.7377 82.9212 67.7536C82.9454 67.7695 82.9663 67.79 82.9825 67.8139C82.9988 67.8379 83.0102 67.8648 83.016 67.8931C83.0219 67.9215 83.0221 67.9507 83.0167 67.9791L83.0091 68.0085L83.0066 68.0155C82.4711 69.55 81.8374 71.0483 81.1093 72.5012C80.3839 73.9607 79.5485 75.3627 78.6105 76.6953C77.6618 78.0377 76.5729 79.275 75.3621 80.3864C74.1161 81.4997 72.693 82.3969 71.1515 83.0407C71.0697 83.0738 70.9803 83.0834 70.8934 83.0685C70.8065 83.0535 70.7255 83.0145 70.6595 82.9559L70.6521 82.9492C68.9941 81.4735 67.411 79.9461 65.8882 78.3451C64.3566 76.756 62.9076 75.0858 61.5334 73.3543C60.8522 72.4834 60.1882 71.5982 59.5628 70.6841C58.9494 69.7614 58.3686 68.8156 57.8472 67.8354C57.3137 66.8578 56.8856 65.8262 56.57 64.758C56.2281 63.6921 56.1425 62.5604 56.32 61.4551C56.3212 61.4491 56.3236 61.4434 56.327 61.4383C56.3304 61.4332 56.3348 61.4288 56.3399 61.4255C56.345 61.4221 56.3507 61.4197 56.3567 61.4185C56.3627 61.4173 56.3689 61.4174 56.3749 61.4186C56.3864 61.4212 56.3965 61.428 56.4033 61.4376C56.4101 61.4471 56.4132 61.4589 56.4119 61.4706C56.3307 62.5546 56.4945 63.6431 56.8911 64.6551C57.2706 65.6716 57.744 66.6505 58.3052 67.5791C59.4513 69.4317 60.7363 71.1945 62.149 72.8525C63.553 74.5226 65.0521 76.1125 66.578 77.6751C68.1134 79.2251 69.6871 80.7545 71.3045 82.2035L70.8052 82.1121C72.2474 81.5315 73.5843 80.7173 74.762 79.7019C75.9404 78.6504 77.0084 77.4812 77.9495 76.2125C78.9008 74.9346 79.7611 73.5913 80.524 72.1925C81.3069 70.7995 81.9941 69.3547 82.5807 67.8681L82.7458 68.1621C82.2666 68.0186 81.8422 67.733 81.5287 67.3431C81.222 66.9909 80.9528 66.6076 80.7256 66.1995C80.2697 65.4014 79.8933 64.5604 79.6016 63.6886L79.6059 63.7C79.2646 62.997 78.9592 62.2735 78.5884 61.5856L77.9723 60.5879L77.6645 60.0892C77.5593 59.9249 77.4281 59.7787 77.3099 59.6237L76.5844 58.7062C76.3344 58.4081 76.0447 58.1451 75.7733 57.8673L75.3606 57.4562C75.218 57.3249 75.0596 57.2111 74.9101 57.0878C74.603 56.8512 74.3139 56.5918 73.9942 56.3749C72.7285 55.4928 71.3218 54.8331 69.8346 54.4242C68.3731 54.003 66.8489 53.8424 65.3318 53.95L65.3121 53.9516C65.2527 53.9565 65.1931 53.9487 65.1369 53.9288C65.0808 53.9089 65.0296 53.8773 64.9866 53.8361C64.0259 52.9111 63.0842 51.9667 62.1321 51.0329L62.341 51.1372L60.5917 50.901C60.0067 50.8534 59.4202 50.8202 58.8339 50.7831C57.6624 50.7467 56.49 50.8163 55.331 50.9909C54.1723 51.1663 53.0446 51.5064 51.982 52.0009C51.4536 52.2559 50.951 52.5614 50.4812 52.9129C50.0051 53.2592 49.5823 53.6735 49.2262 54.1425L49.223 54.1468C49.216 54.1565 49.2056 54.1631 49.1938 54.1653C49.1821 54.1674 49.17 54.165 49.16 54.1585C49.15 54.1519 49.1429 54.1418 49.1402 54.1301C49.1375 54.1185 49.1394 54.1063 49.1454 54.096L49.1454 54.096Z" fill="#020202"/>
<path d="M58.6504 56.8131C58.932 56.3217 59.2902 55.8784 59.7115 55.5C60.1319 55.1131 60.6029 54.7852 61.1117 54.5254C61.6248 54.2639 62.1789 54.0924 62.7499 54.0183C63.3155 53.9423 63.8907 53.9856 64.4386 54.1453C63.8919 54.1694 63.3488 54.2467 62.817 54.3759C62.2986 54.5081 61.7965 54.698 61.3203 54.942C60.3543 55.4494 59.4571 56.0782 58.6504 56.8131ZM71.8742 82.1838C73.5126 84.2426 75.3543 86.1309 77.3712 87.8199C79.3382 89.5266 81.6142 90.8397 84.0757 91.6881C85.2902 92.0789 86.5679 92.2349 87.8407 92.1479C89.1056 92.0424 90.3372 91.6876 91.4645 91.1039C93.7342 89.9571 95.4834 87.9234 96.7514 85.6894C98.0009 83.3991 98.7026 80.8499 98.8012 78.2422L98.892 70.3261L98.8941 68.3452C98.8736 67.6752 98.9185 67.0047 99.0281 66.3434C99.1251 65.6795 99.2754 65.0246 99.4776 64.385C99.7234 63.7626 100.002 63.1538 100.313 62.5612C100.909 61.3784 101.531 60.2145 102.095 59.029C102.686 57.8781 103.131 56.6577 103.419 55.3964C103.422 55.3787 103.427 55.3613 103.433 55.3445L103.437 55.3354L104.948 51.2675L105.677 49.2292C105.735 49.0949 105.773 48.953 105.789 48.8078C105.8 48.6842 105.785 48.5597 105.746 48.4421C105.712 48.3341 105.653 48.2358 105.573 48.1556C105.494 48.0754 105.396 48.0156 105.288 47.9813C104.93 47.8475 104.367 48.3137 103.981 48.8437C103.573 49.4049 103.219 50.0043 102.926 50.6334C102.292 51.9824 101.493 53.2468 100.546 54.3974C100.053 54.9955 99.4725 55.5152 98.8236 55.9388C98.4682 56.1656 98.0762 56.329 97.665 56.4218C97.1809 56.5338 96.6722 56.4505 96.2491 56.1898C95.8893 55.9039 95.6174 55.5221 95.4646 55.0884C95.3119 54.6547 95.2845 54.1867 95.3856 53.7381C95.4533 53.3376 95.5748 52.9482 95.7469 52.5804L95.8723 52.3194C95.9084 52.2482 95.9412 52.1759 95.972 52.1029C96.0331 51.9582 96.0834 51.8091 96.1227 51.6569C96.2009 51.3617 96.2276 51.0551 96.2016 50.7507C96.1975 50.6541 96.1744 50.5593 96.1337 50.4716C96.1268 50.4577 96.1558 50.4968 96.1791 50.4957C96.2065 50.4986 96.1887 50.4955 96.1542 50.5039C95.8922 50.6098 95.6543 50.7674 95.4546 50.9673C95.2143 51.1914 94.9981 51.44 94.8095 51.7092C94.0492 52.8688 93.5224 54.166 93.259 55.5278L93.2645 55.4334L93.4171 58.9255L93.4934 60.6712L93.5316 61.5439C93.5537 61.8433 93.5564 62.1439 93.5396 62.4437C93.3652 63.63 93.0248 64.7858 92.5282 65.8769C92.0808 66.9618 91.5714 68.0142 91.0715 69.0622L91.0675 69.0708L91.0572 69.0889C89.9439 70.7495 88.8364 72.4138 87.7068 74.0642C87.7 74.0742 87.6896 74.0811 87.6778 74.0836C87.666 74.086 87.6536 74.0837 87.6434 74.0773C87.6333 74.0708 87.626 74.0607 87.6231 74.0489C87.6202 74.0372 87.622 74.0248 87.6281 74.0144C88.6349 72.2862 89.6638 70.5721 90.6868 68.8543L90.6725 68.8807C91.1387 67.8129 91.6079 66.7535 92.0116 65.6727C92.4453 64.6287 92.7335 63.53 92.8682 62.4074C92.8724 62.1261 92.8597 61.8448 92.8304 61.5649L92.7729 60.6953L92.658 58.9564L92.4284 55.4793C92.4265 55.4477 92.4284 55.416 92.4339 55.3848C92.5691 54.6451 92.767 53.9183 93.0256 53.2123C93.2797 52.4931 93.6217 51.8081 94.044 51.173C94.268 50.8466 94.5256 50.5446 94.8126 50.2722C95.1234 49.9558 95.5039 49.7167 95.9237 49.574C96.0905 49.5276 96.2666 49.526 96.4342 49.5693C96.6265 49.6225 96.7947 49.7401 96.9109 49.9023C97.0588 50.1243 97.1463 50.381 97.1649 50.6472C97.2071 51.0654 97.1762 51.4878 97.0734 51.8953C97.0244 52.0944 96.9608 52.2896 96.8833 52.4794C96.8447 52.5736 96.8036 52.6666 96.7589 52.7574L96.6515 52.9869C96.52 53.2774 96.4257 53.5833 96.3707 53.8973C96.318 54.1812 96.3285 54.4732 96.4016 54.7525C96.4665 54.9913 96.6048 55.2035 96.797 55.3591C97.1242 55.597 97.765 55.4384 98.3037 55.0943C98.868 54.7241 99.3764 54.2748 99.8134 53.7601C100.721 52.6825 101.491 51.4958 102.105 50.2277C102.434 49.5483 102.828 48.9024 103.281 48.2992C103.524 47.9734 103.815 47.686 104.144 47.4465C104.338 47.2944 104.565 47.1893 104.806 47.1392C105.048 47.0892 105.297 47.0957 105.536 47.1581C105.774 47.234 105.991 47.3665 106.167 47.5442C106.344 47.7219 106.474 47.9396 106.549 48.1787C106.622 48.4063 106.647 48.6467 106.623 48.8846C106.597 49.0994 106.54 49.3094 106.454 49.5081L105.672 51.5422C105.138 52.8912 104.607 54.2387 104.05 55.5772L104.067 55.5164C103.727 56.8238 103.224 58.0828 102.568 59.2635C101.958 60.444 101.304 61.5932 100.677 62.7513C100.359 63.3199 100.07 63.9042 99.8102 64.5019C99.6046 65.119 99.4507 65.7522 99.35 66.3949C99.2352 67.0361 99.1837 67.6871 99.1964 68.3384L99.1734 70.3198C99.1719 72.9652 99.1306 75.5933 99.2159 78.2517C99.2126 80.9492 98.5811 83.6089 97.3716 86.0196C96.7594 87.2295 95.987 88.3512 95.0752 89.3544C94.1581 90.375 93.0637 91.2209 91.8452 91.8508C90.6143 92.4717 89.2717 92.8396 87.8964 92.9328C86.5271 93.0083 85.1559 92.8226 83.8559 92.3855C81.2607 91.5466 79.0293 89.9581 77.0402 88.2057C76.0469 87.3224 75.1117 86.3757 74.2406 85.3715C73.3615 84.3793 72.5457 83.3326 71.7981 82.2377C71.7947 82.2326 71.7923 82.2269 71.7911 82.2209C71.7899 82.2149 71.7899 82.2087 71.791 82.2027C71.7922 82.1966 71.7946 82.1909 71.798 82.1858C71.8013 82.1807 71.8057 82.1763 71.8108 82.1729C71.8208 82.1666 71.8329 82.1642 71.8446 82.1662C71.8563 82.1682 71.8668 82.1745 71.8742 82.1838Z" fill="#020202"/>
<path d="M82.397 68.9716C83.3016 69.6599 84.1533 70.4115 84.9872 71.1814C85.8242 71.9484 86.6207 72.7581 87.4018 73.5821C88.1772 74.4115 88.9278 75.2653 89.6354 76.1545C90.3501 77.0379 91.0154 77.9603 91.628 78.9176C91.2376 78.5028 90.8843 78.0617 90.4937 77.6505C90.1238 77.223 89.745 76.8035 89.3628 76.3874C88.5954 75.5582 87.841 74.7187 87.0622 73.9009L82.397 68.9716ZM70.952 54.3818C73.467 52.5217 76.1537 50.9061 78.9755 49.5571C80.3855 48.869 81.8357 48.2668 83.3183 47.7537C84.8056 47.2304 86.3409 46.855 87.9018 46.6331C89.4535 46.4215 91.0163 46.302 92.5821 46.2754C92.9733 46.2662 93.3656 46.2678 93.7577 46.2879L94.0518 46.3013C94.1617 46.3085 94.2702 46.3301 94.3745 46.3655C94.5847 46.4392 94.7697 46.5708 94.9085 46.745C95.0299 46.898 95.1126 47.0781 95.1494 47.2699C95.1862 47.4617 95.1761 47.6597 95.12 47.8467C95.0638 48.0338 94.9633 48.2045 94.8269 48.3443C94.6906 48.4841 94.5225 48.5888 94.3369 48.6495L94.06 48.742C92.5848 49.2422 91.1056 49.7306 89.6121 50.1882C88.8639 50.4124 88.1135 50.6355 87.3473 50.8157C86.9643 50.9076 86.5781 50.9916 86.1832 51.0617C85.7642 51.1465 85.3365 51.1802 84.9094 51.1622C84.804 51.1547 84.7055 51.1066 84.6345 51.0282C84.5635 50.9497 84.5255 50.8469 84.5284 50.741C84.5313 50.6352 84.5749 50.5346 84.6501 50.4602C84.7253 50.3858 84.8263 50.3432 84.932 50.3415L84.964 50.3411L91.6279 50.258L91.6342 50.2579C91.7152 50.2571 91.7949 50.278 91.8651 50.3185C92.0121 50.4038 92.1456 50.5105 92.261 50.6353C92.3964 50.7837 92.4911 50.9646 92.536 51.1604C92.5684 51.3554 92.5501 51.5554 92.4828 51.7412C92.4155 51.9269 92.3014 52.0922 92.1517 52.221C91.7533 52.5603 91.296 52.8236 90.8027 52.9977C90.359 53.1628 89.9064 53.3032 89.4472 53.4181C88.9953 53.547 88.5417 53.6263 88.0894 53.7324L88.325 53.605C87.8074 54.0913 87.2499 54.5332 86.6584 54.9261C86.0702 55.327 85.4438 55.6688 84.7885 55.9464C84.1159 56.2406 83.3922 56.4 82.6583 56.4154C81.8977 56.4157 81.16 56.1552 80.568 55.6774L80.8903 55.6885C80.159 56.1322 79.436 56.5885 78.6974 57.0213C77.9611 57.4574 77.2291 57.9 76.4858 58.3256C76.4755 58.3314 76.4634 58.3331 76.4519 58.3303C76.4404 58.3275 76.4304 58.3205 76.4239 58.3106C76.4174 58.3008 76.4149 58.2888 76.4168 58.2771C76.4188 58.2655 76.4251 58.255 76.4344 58.2478C77.1167 57.7299 77.8103 57.2291 78.4996 56.7218C79.1867 56.2112 79.8894 55.7241 80.5835 55.2243C80.6274 55.1927 80.68 55.1754 80.7341 55.1749C80.7881 55.1743 80.841 55.1905 80.8856 55.2211L80.906 55.2354C81.414 55.5906 82.0286 55.7601 82.6466 55.7152C83.2819 55.6719 83.9025 55.5047 84.4737 55.2232C85.0662 54.9408 85.6293 54.6007 86.1551 54.2078C86.6834 53.8163 87.1853 53.3904 87.6574 52.9327C87.7184 52.8734 87.7937 52.8309 87.8759 52.8095L87.8933 52.8051C88.3255 52.6942 88.7695 52.6077 89.1915 52.4774C89.6136 52.3618 90.0297 52.2251 90.4381 52.0678C90.8055 51.94 91.1491 51.752 91.4548 51.5115C91.5835 51.3955 91.5585 51.3524 91.5661 51.3697C91.5719 51.3684 91.554 51.3399 91.5249 51.2995C91.484 51.2582 91.4391 51.221 91.3909 51.1885L91.6279 51.2489L84.964 51.1658L85.0184 50.3447C85.3686 50.3664 85.7201 50.3497 86.0667 50.295C86.4399 50.2449 86.8171 50.1797 87.1939 50.1059C87.9468 49.954 88.7042 49.7944 89.4582 49.6166C90.9665 49.2595 92.467 48.862 93.9598 48.4242L94.2388 48.3406C94.3184 48.3175 94.3943 48.2835 94.4646 48.2394C94.6059 48.1502 94.7192 48.0227 94.7913 47.8718C94.8623 47.7188 94.8898 47.5492 94.8709 47.3816C94.852 47.214 94.7875 47.0548 94.6842 46.9215C94.5809 46.7884 94.4419 46.6875 94.2834 46.6306C94.203 46.6048 94.1196 46.5896 94.0353 46.5853L93.7467 46.5763C93.3622 46.5623 92.9761 46.5658 92.5903 46.581C91.0464 46.6718 89.5117 46.882 88.0002 47.2098C86.5013 47.5468 85.0282 47.9898 83.592 48.5356C82.1421 49.0508 80.7119 49.6264 79.3015 50.2626C76.4803 51.5231 73.7161 52.9349 71.0038 54.4592C70.9986 54.4624 70.9928 54.4645 70.9867 54.4654C70.9807 54.4663 70.9745 54.466 70.9686 54.4645C70.9626 54.4631 70.957 54.4604 70.9521 54.4568C70.9472 54.4531 70.943 54.4486 70.9398 54.4433C70.9342 54.4333 70.9323 54.4216 70.9345 54.4103C70.9367 54.399 70.9429 54.3889 70.952 54.3818Z" fill="#020202"/>
<path d="M98.919 40.6836L94.8329 46.8899C95.611 48.2188 93.8731 48.6245 93.8731 48.6245L91.893 50.9653C91.893 50.9653 92.4569 51.9026 90.8727 52.4341L93.384 53.5252C93.384 53.5252 94.2367 50.9653 95.5318 50.2425L94.4603 49.9022L99.2871 42.0172L105.81 42.684L100.978 51.9725L96.692 50.6109C96.75 51.4358 96.5515 52.2584 96.1235 52.9657L95.8533 54.0988L99.0868 55.1433C100.314 53.6322 101.46 52.057 102.521 50.4243C103.522 48.7131 104.421 47.3562 105.064 47.5333L108.671 41.3503L98.919 40.6836ZM93.3979 51.9444C93.2169 51.938 93.0454 51.8615 92.9196 51.731C92.7938 51.6006 92.7235 51.4263 92.7235 51.245C92.7235 51.0637 92.7938 50.8895 92.9196 50.759C93.0454 50.6285 93.2169 50.552 93.3979 50.5456C93.579 50.552 93.7505 50.6285 93.8763 50.759C94.0021 50.8894 94.0725 51.0637 94.0725 51.245C94.0725 51.4263 94.0021 51.6006 93.8763 51.7311C93.7505 51.8615 93.579 51.938 93.3979 51.9445V51.9444ZM99.1008 53.8469C98.9197 53.8405 98.7483 53.764 98.6225 53.6335C98.4967 53.5031 98.4263 53.3288 98.4263 53.1475C98.4263 52.9662 98.4967 52.792 98.6225 52.6615C98.7483 52.531 98.9197 52.4545 99.1008 52.4481C99.2818 52.4545 99.4534 52.531 99.5792 52.6615C99.705 52.7919 99.7753 52.9662 99.7753 53.1475C99.7753 53.3288 99.705 53.5031 99.5792 53.6336C99.4534 53.764 99.2818 53.8405 99.1008 53.847V53.8469ZM74.2466 52.4325C75.0965 53.0391 75.8939 53.7163 76.6303 54.4568C77.3814 55.1824 78.0695 55.9706 78.6871 56.813C77.8366 56.2071 77.0391 55.5299 76.3034 54.7887C75.553 54.0624 74.8649 53.2743 74.2466 52.4325ZM161.85 103.917C159.562 102.775 142.314 70.0459 142.314 70.0459C139.57 64.9773 135.978 62.4593 132.558 61.2936C130.223 60.5244 127.743 60.2984 125.307 60.6329C122.871 60.9675 120.543 61.8536 118.501 63.224L98.9516 76.1263C99.2545 82.0902 97.7729 84.3283 97.7729 84.3283L114.266 85.0697C120.64 86.851 120.388 92.0082 120.388 92.0082L120.91 129.987C131.496 135.131 144.597 129.987 144.597 129.987L142.654 119.351L140.767 108.948C140.12 105.489 139.472 102.033 138.713 98.6015C138.354 96.8809 137.944 95.1743 137.506 93.4723C137.077 91.7751 136.602 90.0824 136.057 88.4224C135.535 86.7563 134.88 85.1347 134.1 83.573C133.719 82.7934 133.235 82.0688 132.66 81.4187C132.371 81.1002 132.027 80.8364 131.645 80.64C131.456 80.535 131.244 80.4761 131.028 80.468C130.812 80.4599 130.597 80.5029 130.401 80.5934C130.595 80.4784 130.814 80.4113 131.039 80.3975C131.264 80.3837 131.489 80.4237 131.696 80.5141C132.116 80.6848 132.502 80.9314 132.833 81.2415C133.478 81.866 134.037 82.5731 134.496 83.3445C135.392 84.8838 136.143 86.5025 136.742 88.1799C137.934 91.5172 138.896 94.9322 139.621 98.401C140.371 101.856 140.982 105.339 141.485 108.832C141.997 112.324 142.365 115.836 142.654 119.351C151.567 117.752 161.85 103.917 161.85 103.917ZM122.983 129.647C122.802 129.641 122.631 129.564 122.505 129.434C122.379 129.303 122.309 129.129 122.309 128.948C122.309 128.766 122.379 128.592 122.505 128.462C122.631 128.331 122.802 128.255 122.983 128.248C123.164 128.255 123.336 128.331 123.462 128.462C123.587 128.592 123.658 128.766 123.658 128.948C123.658 129.129 123.587 129.303 123.462 129.434C123.336 129.564 123.164 129.641 122.983 129.647ZM126.338 130.542C126.157 130.536 125.985 130.459 125.86 130.329C125.734 130.198 125.664 130.024 125.664 129.843C125.664 129.662 125.734 129.487 125.86 129.357C125.985 129.226 126.157 129.15 126.338 129.143C126.519 129.15 126.691 129.226 126.817 129.357C126.942 129.487 127.013 129.662 127.013 129.843C127.013 130.024 126.942 130.199 126.817 130.329C126.691 130.459 126.519 130.536 126.338 130.542V130.542ZM141.434 128.248C141.615 128.254 141.787 128.331 141.913 128.461C142.039 128.592 142.11 128.766 142.11 128.948C142.11 129.129 142.039 129.304 141.913 129.434C141.787 129.565 141.615 129.641 141.434 129.647C141.252 129.641 141.08 129.565 140.954 129.434C140.828 129.304 140.758 129.129 140.758 128.948C140.758 128.766 140.828 128.592 140.954 128.461C141.08 128.331 141.252 128.254 141.434 128.248V128.248ZM137.744 129.367C137.925 129.373 138.097 129.45 138.223 129.58C138.349 129.711 138.42 129.885 138.42 130.067C138.42 130.248 138.349 130.423 138.223 130.553C138.097 130.684 137.925 130.76 137.744 130.766C137.562 130.76 137.39 130.684 137.264 130.553C137.138 130.423 137.068 130.248 137.068 130.067C137.068 129.885 137.138 129.711 137.264 129.58C137.39 129.45 137.562 129.373 137.744 129.367V129.367ZM134.165 129.815C134.347 129.821 134.519 129.897 134.645 130.028C134.771 130.158 134.842 130.333 134.842 130.514C134.842 130.696 134.771 130.87 134.645 131.001C134.519 131.131 134.347 131.208 134.165 131.214C133.984 131.208 133.812 131.131 133.686 131.001C133.56 130.87 133.49 130.696 133.49 130.514C133.49 130.333 133.56 130.158 133.686 130.028C133.812 129.897 133.984 129.821 134.165 129.815V129.815ZM130.252 131.102C130.071 131.095 129.899 131.019 129.773 130.888C129.648 130.758 129.577 130.584 129.577 130.402C129.577 130.221 129.648 130.047 129.773 129.916C129.899 129.786 130.071 129.709 130.252 129.703C130.433 129.709 130.605 129.786 130.731 129.916C130.856 130.047 130.927 130.221 130.927 130.402C130.927 130.584 130.856 130.758 130.731 130.889C130.605 131.019 130.433 131.096 130.252 131.102V131.102ZM160.219 102.621C160.401 102.627 160.572 102.703 160.699 102.834C160.825 102.964 160.895 103.139 160.895 103.32C160.895 103.502 160.825 103.676 160.699 103.807C160.572 103.937 160.401 104.014 160.219 104.02C160.038 104.014 159.866 103.937 159.74 103.807C159.614 103.676 159.544 103.502 159.544 103.32C159.544 103.139 159.614 102.965 159.74 102.834C159.866 102.704 160.038 102.627 160.219 102.621V102.621ZM157.759 105.419C157.941 105.425 158.112 105.501 158.239 105.631C158.365 105.762 158.435 105.936 158.435 106.118C158.435 106.3 158.365 106.474 158.239 106.605C158.112 106.735 157.941 106.812 157.759 106.817C157.578 106.811 157.406 106.735 157.28 106.604C157.154 106.474 157.084 106.3 157.084 106.118C157.084 105.937 157.154 105.762 157.28 105.632C157.406 105.501 157.578 105.425 157.759 105.419V105.419ZM143.558 118.12C143.377 118.114 143.206 118.037 143.08 117.907C142.954 117.776 142.884 117.602 142.884 117.421C142.884 117.24 142.954 117.065 143.08 116.935C143.206 116.804 143.377 116.728 143.558 116.721C143.739 116.728 143.911 116.804 144.037 116.935C144.163 117.065 144.233 117.239 144.233 117.421C144.233 117.602 144.163 117.777 144.037 117.907C143.911 118.038 143.739 118.114 143.558 118.12V118.12ZM146.577 116.777C146.396 116.771 146.225 116.694 146.099 116.564C145.973 116.433 145.903 116.259 145.903 116.078C145.903 115.897 145.973 115.722 146.099 115.592C146.225 115.461 146.396 115.385 146.577 115.379C146.758 115.385 146.93 115.461 147.056 115.592C147.182 115.722 147.253 115.897 147.253 116.078C147.253 116.259 147.182 116.434 147.056 116.564C146.93 116.695 146.758 116.771 146.577 116.777V116.777ZM149.596 114.987C149.415 114.98 149.244 114.904 149.118 114.773C148.992 114.643 148.922 114.469 148.922 114.287C148.922 114.106 148.992 113.932 149.118 113.801C149.244 113.671 149.415 113.594 149.596 113.588C149.778 113.594 149.949 113.671 150.075 113.801C150.201 113.932 150.272 114.106 150.272 114.287C150.272 114.469 150.201 114.643 150.075 114.774C149.949 114.904 149.778 114.981 149.596 114.987V114.987ZM152.392 112.525C152.211 112.518 152.039 112.442 151.914 112.311C151.788 112.181 151.717 112.007 151.717 111.825C151.717 111.644 151.788 111.47 151.914 111.339C152.039 111.209 152.211 111.132 152.392 111.126C152.573 111.132 152.745 111.209 152.871 111.339C152.997 111.47 153.067 111.644 153.067 111.825C153.067 112.007 152.997 112.181 152.871 112.312C152.745 112.442 152.573 112.519 152.392 112.525V112.525ZM155.187 108.104C155.369 108.11 155.541 108.187 155.667 108.317C155.793 108.448 155.864 108.622 155.864 108.804C155.864 108.985 155.793 109.16 155.667 109.29C155.541 109.421 155.369 109.497 155.187 109.503C155.006 109.497 154.834 109.421 154.708 109.29C154.582 109.16 154.512 108.985 154.512 108.804C154.512 108.622 154.582 108.448 154.708 108.318C154.834 108.187 155.006 108.111 155.187 108.104V108.104Z" fill="#020202"/>
<path d="M120.993 138.598C121.121 140.76 121.179 142.926 121.102 145.098C121.088 146.201 120.978 147.3 120.775 148.384C120.742 148.53 120.699 148.673 120.648 148.813L120.544 149.041L120.489 149.154C120.484 149.169 120.478 149.183 120.472 149.196C120.454 149.274 120.454 149.355 120.47 149.433C120.486 149.511 120.519 149.585 120.566 149.649C120.829 150.055 121.178 150.398 121.588 150.656C122.439 151.219 123.405 151.583 124.416 151.721C125.427 151.859 126.455 151.767 127.426 151.452C127.665 151.37 127.901 151.275 128.131 151.168C128.379 151.051 128.634 150.936 128.89 150.83C129.407 150.617 129.938 150.445 130.481 150.314C131.566 150.065 132.682 149.982 133.792 150.068C134.892 150.123 135.98 150.32 137.03 150.652C137.554 150.817 138.065 151.023 138.558 151.267C139.039 151.495 139.536 151.69 140.045 151.848C141.071 152.171 142.115 152.431 143.172 152.627C144.228 152.83 145.291 153.005 146.361 153.121C148.489 153.376 150.638 153.416 152.775 153.241C153.812 153.17 154.832 152.935 155.795 152.543C156.223 152.369 156.589 152.072 156.848 151.69C156.947 151.501 157.006 151.295 157.022 151.082C157.038 150.87 157.011 150.657 156.942 150.456L157.015 150.6C156.808 150.366 156.582 150.149 156.341 149.952C156.093 149.741 155.827 149.547 155.561 149.354C155.015 148.979 154.445 148.639 153.854 148.338C152.661 147.736 151.42 147.233 150.144 146.833C148.86 146.435 147.554 146.107 146.234 145.852C145.575 145.708 144.911 145.626 144.249 145.509C143.549 145.421 142.856 145.277 142.179 145.079C140.823 144.687 139.535 144.09 138.359 143.31C137.179 142.535 136.177 141.517 135.42 140.324C134.664 139.131 134.169 137.79 133.971 136.391C133.776 135.023 133.786 133.633 134.003 132.268C134.005 132.256 134.011 132.246 134.021 132.238C134.03 132.231 134.042 132.228 134.054 132.229C134.066 132.23 134.077 132.236 134.085 132.245C134.093 132.254 134.097 132.266 134.096 132.278C133.998 133.631 134.09 134.991 134.368 136.318C134.635 137.626 135.166 138.867 135.929 139.962C136.696 141.039 137.667 141.954 138.788 142.654C139.914 143.349 141.14 143.87 142.422 144.197C143.06 144.363 143.709 144.485 144.364 144.561C145.048 144.671 145.741 144.748 146.418 144.885C147.097 145.016 147.777 145.14 148.446 145.324C149.12 145.48 149.783 145.685 150.447 145.888C151.774 146.315 153.06 146.859 154.291 147.514C155.568 148.159 156.721 149.027 157.695 150.076C157.726 150.111 157.749 150.153 157.762 150.199L157.767 150.22C157.864 150.534 157.895 150.864 157.858 151.191C157.821 151.517 157.716 151.832 157.551 152.116C157.196 152.629 156.694 153.023 156.111 153.246C155.061 153.649 153.95 153.868 152.826 153.895C150.647 153.968 148.467 153.831 146.314 153.487C144.164 153.194 142.039 152.74 139.956 152.129C139.433 151.969 138.919 151.779 138.417 151.561C137.934 151.339 137.435 151.157 136.923 151.016C135.895 150.748 134.837 150.612 133.775 150.613C132.724 150.584 131.675 150.714 130.663 150.998C130.163 151.149 129.673 151.332 129.196 151.546C128.956 151.653 128.721 151.767 128.485 151.886C128.228 152.014 127.965 152.129 127.696 152.228C126.609 152.612 125.444 152.718 124.306 152.538C123.174 152.362 122.096 151.933 121.154 151.281C120.653 150.951 120.233 150.511 119.924 149.996C119.84 149.843 119.781 149.678 119.751 149.506C119.711 149.302 119.736 149.09 119.821 148.901L119.895 148.762L119.926 148.691L119.992 148.552C120.035 148.439 120.071 148.324 120.1 148.207C120.339 147.174 120.492 146.123 120.558 145.065C120.722 142.92 120.821 140.761 120.9 138.6C120.9 138.594 120.901 138.588 120.904 138.582C120.906 138.577 120.91 138.571 120.914 138.567C120.919 138.563 120.924 138.56 120.93 138.558C120.935 138.555 120.942 138.554 120.948 138.554C120.959 138.555 120.97 138.56 120.979 138.568C120.987 138.576 120.992 138.587 120.993 138.598ZM148.297 116.997C148.748 117.827 149.154 118.68 149.54 119.543C149.925 120.406 150.29 121.28 150.604 122.175C150.927 123.071 151.201 123.984 151.425 124.909C151.672 125.85 151.789 126.821 151.773 127.793C151.766 128.046 151.739 128.297 151.693 128.545C151.672 128.673 151.643 128.799 151.606 128.923L151.548 129.111C151.54 129.139 151.524 129.182 151.522 129.197C151.521 129.21 151.518 129.223 151.514 129.235C151.457 129.457 151.683 129.867 151.963 130.161C152.581 130.787 153.338 131.258 154.173 131.534C155.01 131.827 155.896 131.951 156.781 131.898C157.671 131.835 158.538 131.59 159.33 131.178C160.209 130.76 161.139 130.46 162.097 130.286C163.052 130.138 164.02 130.103 164.983 130.182C165.94 130.243 166.887 130.41 167.807 130.681C168.266 130.818 168.716 130.983 169.155 131.175C169.573 131.384 170.002 131.57 170.44 131.733C172.219 132.319 174.055 132.716 175.918 132.916C177.773 133.154 179.648 133.209 181.514 133.081C182.435 133.018 183.348 132.868 184.241 132.634C184.673 132.515 185.092 132.353 185.493 132.152C185.878 131.974 186.222 131.718 186.503 131.401C186.772 131.109 186.931 130.733 186.954 130.337C186.991 129.933 186.924 129.526 186.76 129.155C186.58 128.768 186.337 128.413 186.042 128.106C185.741 127.768 185.419 127.449 185.076 127.154C183.676 125.969 182.084 125.031 180.369 124.382C179.511 124.045 178.635 123.758 177.745 123.52C176.851 123.279 175.906 123.037 175.007 122.732C173.192 122.131 171.437 121.362 169.764 120.436C168.106 119.494 166.531 118.412 165.058 117.202C163.575 116.007 162.218 114.663 161.009 113.192C159.788 111.73 158.836 110.063 158.196 108.269C158.192 108.257 158.193 108.245 158.198 108.234C158.203 108.222 158.213 108.214 158.225 108.21C158.236 108.206 158.248 108.207 158.259 108.212C158.27 108.217 158.278 108.225 158.283 108.236C159.053 109.942 160.095 111.513 161.367 112.886C162.627 114.261 164.013 115.514 165.508 116.629C168.45 118.911 171.77 120.657 175.317 121.786C176.204 122.078 177.081 122.312 178.004 122.56C178.933 122.805 179.845 123.113 180.733 123.481C182.535 124.199 184.201 125.219 185.659 126.498C186.024 126.824 186.366 127.174 186.685 127.545C187.036 127.925 187.318 128.363 187.519 128.84C187.723 129.34 187.795 129.884 187.73 130.421C187.699 130.695 187.627 130.963 187.518 131.216C187.397 131.461 187.242 131.688 187.058 131.89C186.703 132.27 186.275 132.573 185.799 132.78C185.349 132.983 184.88 133.14 184.399 133.251C183.46 133.454 182.504 133.568 181.543 133.591C179.647 133.633 177.752 133.516 175.875 133.242C173.998 132.997 172.145 132.588 170.34 132.018C169.894 131.866 169.436 131.67 169.022 131.486C168.593 131.311 168.154 131.165 167.706 131.051C166.806 130.832 165.885 130.715 164.96 130.701C164.042 130.67 163.124 130.745 162.223 130.926C161.335 131.134 160.477 131.453 159.67 131.875C158.796 132.362 157.827 132.653 156.83 132.727C155.833 132.801 154.832 132.657 153.896 132.304C152.943 131.969 152.083 131.409 151.391 130.672C151.21 130.471 151.057 130.247 150.935 130.006C150.784 129.722 150.732 129.396 150.79 129.079L150.826 128.947L150.853 128.864L150.901 128.716C150.934 128.615 150.959 128.512 150.978 128.407C151.022 128.193 151.049 127.976 151.059 127.757C151.048 125.91 150.737 124.076 150.14 122.328C149.587 120.534 148.944 118.768 148.213 117.038C148.208 117.026 148.208 117.014 148.212 117.002C148.217 116.991 148.226 116.981 148.237 116.976C148.248 116.972 148.26 116.971 148.271 116.975C148.282 116.979 148.291 116.987 148.297 116.997ZM72.9688 35.5033C73.1499 35.497 73.3216 35.4206 73.4475 35.2901C73.5735 35.1596 73.6438 34.9853 73.6438 34.8039C73.6438 34.6224 73.5735 34.4481 73.4475 34.3176C73.3216 34.1871 73.1499 34.1107 72.9688 34.1044C72.7876 34.1107 72.6159 34.1871 72.49 34.3176C72.3641 34.4481 72.2937 34.6224 72.2937 34.8039C72.2937 34.9853 72.3641 35.1596 72.49 35.2901C72.6159 35.4206 72.7876 35.497 72.9688 35.5033ZM61.8837 36.3719C62.0649 36.3656 62.2365 36.2892 62.3625 36.1587C62.4885 36.0282 62.5589 35.8539 62.5589 35.6724C62.5589 35.491 62.4885 35.3167 62.3625 35.1862C62.2365 35.0557 62.0649 34.9793 61.8837 34.973C61.7025 34.9793 61.5309 35.0557 61.4049 35.1862C61.279 35.3167 61.2086 35.491 61.2086 35.6724C61.2086 35.8539 61.279 36.0282 61.4049 36.1587C61.5309 36.2892 61.7025 36.3656 61.8837 36.3719ZM70.9781 40.5205C71.3025 40.9193 71.5706 41.2783 71.8869 41.595C72.0406 41.7568 72.2065 41.9067 72.3829 42.0434C72.5587 42.1911 72.7569 42.3063 72.9687 42.4642C72.709 42.4989 72.4446 42.4629 72.2036 42.3599C71.9585 42.2608 71.7371 42.1111 71.5538 41.9206C71.3726 41.7329 71.2268 41.514 71.1234 41.2744C71.016 41.0382 70.9662 40.7798 70.9781 40.5205ZM74.2465 32.6315C74.0021 32.69 73.7453 32.6675 73.5148 32.5672C73.2843 32.4669 73.0927 32.2944 72.9688 32.0756C73.2127 32.0117 73.4712 32.0344 73.7004 32.1398C73.9331 32.2365 74.1258 32.41 74.2465 32.6315ZM61.165 37.0764C61.4031 37.1072 61.6428 37.1239 61.8829 37.1264C62.1026 37.13 62.3126 37.0959 62.6024 37.0764C62.5326 37.2018 62.4276 37.304 62.3003 37.3703C62.1722 37.4396 62.0289 37.4759 61.8833 37.476C61.7386 37.4809 61.5953 37.4463 61.4688 37.3759C61.3423 37.3055 61.2373 37.202 61.165 37.0764ZM71.4361 80.5202C71.6172 80.5139 71.7889 80.4375 71.9149 80.307C72.0408 80.1765 72.1112 80.0022 72.1112 79.8208C72.1112 79.6393 72.0408 79.465 71.9149 79.3345C71.7889 79.204 71.6172 79.1276 71.4361 79.1213C71.2549 79.1276 71.0833 79.204 70.9573 79.3345C70.8314 79.465 70.761 79.6393 70.761 79.8208C70.761 80.0022 70.8314 80.1765 70.9573 80.307C71.0833 80.4375 71.2549 80.5139 71.4361 80.5202ZM73.7843 78.5058C73.9655 78.4995 74.1371 78.4231 74.2631 78.2926C74.389 78.1621 74.4594 77.9878 74.4594 77.8064C74.4594 77.625 74.389 77.4506 74.2631 77.3202C74.1371 77.1897 73.9655 77.1132 73.7843 77.1069C73.6031 77.1132 73.4315 77.1897 73.3055 77.3202C73.1796 77.4506 73.1092 77.625 73.1092 77.8064C73.1092 77.9878 73.1796 78.1621 73.3055 78.2926C73.4315 78.4231 73.6031 78.4995 73.7843 78.5058ZM76.2443 76.0438C76.4255 76.0376 76.5972 75.9611 76.7231 75.8306C76.8491 75.7002 76.9195 75.5258 76.9195 75.3444C76.9195 75.163 76.8491 74.9886 76.7231 74.8581C76.5972 74.7277 76.4255 74.6512 76.2443 74.645C76.0631 74.6512 75.8915 74.7277 75.7655 74.8581C75.6396 74.9886 75.5692 75.163 75.5692 75.3444C75.5692 75.5258 75.6396 75.7002 75.7655 75.8306C75.8915 75.9611 76.0631 76.0376 76.2443 76.0438ZM78.3689 73.2461C78.55 73.2398 78.7217 73.1634 78.8477 73.0329C78.9736 72.9024 79.044 72.7281 79.044 72.5466C79.044 72.3652 78.9736 72.1909 78.8477 72.0604C78.7217 71.9299 78.55 71.8535 78.3689 71.8472C78.1877 71.8535 78.016 71.9299 77.8901 72.0604C77.7641 72.1909 77.6937 72.3652 77.6937 72.5466C77.6937 72.7281 77.7641 72.9024 77.8901 73.0329C78.016 73.1634 78.1877 73.2398 78.3689 73.2461ZM80.158 70.4483C80.3392 70.4421 80.5108 70.3656 80.6368 70.2352C80.7627 70.1047 80.8331 69.9303 80.8331 69.7489C80.8331 69.5675 80.7627 69.3931 80.6368 69.2626C80.5108 69.1321 80.3392 69.0557 80.158 69.0495C79.9768 69.0557 79.8051 69.1321 79.6792 69.2626C79.5532 69.3931 79.4828 69.5675 79.4828 69.7489C79.4828 69.9303 79.5532 70.1047 79.6792 70.2352C79.8051 70.3656 79.9768 70.4421 80.158 70.4483Z" fill="#020202"/>
<path d="M104.654 23.9619H92.3184V31.604H96.8048L98.4859 33.2865L100.167 31.604H104.654V23.9619Z" stroke="black" stroke-width="0.968" stroke-miterlimit="10"/>
<path d="M116.989 12.2195H104.653V19.8616H109.14L110.821 21.5441L112.502 19.8616H116.989V12.2195Z" stroke="black" stroke-width="0.968" stroke-miterlimit="10"/>
<path d="M103.208 2H90.8726V9.64212H95.3595L97.0406 11.3242L98.7213 9.64212H103.208V2Z" stroke="black" stroke-width="0.968" stroke-miterlimit="10"/>
</svg>
