<svg width="92" height="62" viewBox="0 0 92 62" fill="none" xmlns="http://www.w3.org/2000/svg">
<path d="M19.12 10.28C16.84 10.28 15.04 11.312 14.128 12.944C13.36 11.168 11.728 10.28 9.64 10.28C7.528 10.28 5.896 11.168 5.008 12.68V10.376H3.376V23H5.08V16.376C5.08 13.496 6.736 11.816 9.304 11.816C11.608 11.816 12.952 13.184 12.952 15.848V23H14.656V16.376C14.656 13.496 16.288 11.816 18.88 11.816C21.16 11.816 22.504 13.184 22.504 15.848V23H24.208V15.68C24.208 12.056 22.192 10.28 19.12 10.28ZM39.892 16.688C39.892 12.896 37.324 10.28 33.772 10.28C30.22 10.28 27.604 12.944 27.604 16.688C27.604 20.432 30.292 23.12 34.228 23.12C36.22 23.12 37.972 22.4 39.1 21.056L38.14 19.952C37.18 21.056 35.812 21.608 34.276 21.608C31.516 21.608 29.5 19.856 29.308 17.216H39.868C39.868 17.024 39.892 16.832 39.892 16.688ZM33.772 11.744C36.244 11.744 38.044 13.472 38.26 15.944H29.308C29.524 13.472 31.324 11.744 33.772 11.744ZM49.7924 10.28C47.6084 10.28 45.9044 11.168 44.9924 12.704V10.376H43.3604V23H45.0644V16.376C45.0644 13.496 46.7684 11.816 49.4804 11.816C51.8804 11.816 53.2724 13.184 53.2724 15.848V23H54.9764V15.68C54.9764 12.056 52.8644 10.28 49.7924 10.28ZM65.6506 21.008C65.1706 21.44 64.4746 21.656 63.7786 21.656C62.3626 21.656 61.5946 20.84 61.5946 19.352V11.816H65.4346V10.376H61.5946V7.616H59.8906V10.376H57.6346V11.816H59.8906V19.448C59.8906 21.776 61.2106 23.12 63.5866 23.12C64.5706 23.12 65.5786 22.832 66.2506 22.232L65.6506 21.008ZM74.0673 23.12C77.7633 23.12 80.4753 20.432 80.4753 16.688C80.4753 12.944 77.7633 10.28 74.0673 10.28C70.3713 10.28 67.6353 12.944 67.6353 16.688C67.6353 20.432 70.3713 23.12 74.0673 23.12ZM74.0673 21.608C71.3793 21.608 69.3633 19.64 69.3633 16.688C69.3633 13.736 71.3793 11.768 74.0673 11.768C76.7553 11.768 78.7473 13.736 78.7473 16.688C78.7473 19.64 76.7553 21.608 74.0673 21.608ZM85.5861 12.848V10.376H83.9541V23H85.6581V16.568C85.6581 13.592 87.2661 11.912 89.9061 11.912C90.0261 11.912 90.1701 11.936 90.3141 11.936V10.28C87.9861 10.28 86.3781 11.168 85.5861 12.848Z" fill="black"/>
<path d="M24.915 36.51C21.78 36.51 19.305 37.929 18.051 40.173C16.995 37.731 14.751 36.51 11.88 36.51C8.976 36.51 6.732 37.731 5.511 39.81V36.642H3.267V54H5.61V44.892C5.61 40.932 7.887 38.622 11.418 38.622C14.586 38.622 16.434 40.503 16.434 44.166V54H18.777V44.892C18.777 40.932 21.021 38.622 24.585 38.622C27.72 38.622 29.568 40.503 29.568 44.166V54H31.911V43.935C31.911 38.952 29.139 36.51 24.915 36.51ZM45.657 36.51C42.918 36.51 40.344 37.368 38.595 38.853L39.651 40.602C41.07 39.348 43.182 38.556 45.426 38.556C48.66 38.556 50.343 40.173 50.343 43.143V44.199H44.832C39.849 44.199 38.133 46.443 38.133 49.116C38.133 52.119 40.542 54.165 44.469 54.165C47.34 54.165 49.386 53.076 50.442 51.294V54H52.686V43.242C52.686 38.754 50.145 36.51 45.657 36.51ZM44.832 52.317C42.06 52.317 40.443 51.063 40.443 49.05C40.443 47.268 41.532 45.948 44.898 45.948H50.343V48.786C49.419 51.063 47.472 52.317 44.832 52.317ZM68.6859 51.261C68.0259 51.855 67.0689 52.152 66.1119 52.152C64.1649 52.152 63.1089 51.03 63.1089 48.984V38.622H68.3889V36.642H63.1089V32.847H60.7659V36.642H57.6639V38.622H60.7659V49.116C60.7659 52.317 62.5809 54.165 65.8479 54.165C67.2009 54.165 68.5869 53.769 69.5109 52.944L68.6859 51.261ZM89.6308 45.321C89.6308 40.107 86.0998 36.51 81.2158 36.51C76.3318 36.51 72.7348 40.173 72.7348 45.321C72.7348 50.469 76.4308 54.165 81.8428 54.165C84.5818 54.165 86.9908 53.175 88.5418 51.327L87.2218 49.809C85.9018 51.327 84.0208 52.086 81.9088 52.086C78.1138 52.086 75.3418 49.677 75.0778 46.047H89.5978C89.5978 45.783 89.6308 45.519 89.6308 45.321ZM81.2158 38.523C84.6148 38.523 87.0898 40.899 87.3868 44.298H75.0778C75.3748 40.899 77.8498 38.523 81.2158 38.523Z" fill="black"/>
<path d="M18.051 40.173L17.3167 40.4905L17.9594 41.9768L18.7494 40.5633L18.051 40.173ZM5.511 39.81H4.711V42.7519L6.20083 40.2151L5.511 39.81ZM5.511 36.642H6.311V35.842H5.511V36.642ZM3.267 36.642V35.842H2.467V36.642H3.267ZM3.267 54H2.467V54.8H3.267V54ZM5.61 54V54.8H6.41V54H5.61ZM16.434 54H15.634V54.8H16.434V54ZM18.777 54V54.8H19.577V54H18.777ZM29.568 54H28.768V54.8H29.568V54ZM31.911 54V54.8H32.711V54H31.911ZM24.915 35.71C21.5311 35.71 18.7669 37.2519 17.3526 39.7827L18.7494 40.5633C19.8431 38.6061 22.0289 37.31 24.915 37.31V35.71ZM18.7853 39.8555C17.5758 37.0584 14.9964 35.71 11.88 35.71V37.31C14.5056 37.31 16.4142 38.4036 17.3167 40.4905L18.7853 39.8555ZM11.88 35.71C8.73861 35.71 6.20783 37.0438 4.82117 39.4049L6.20083 40.2151C7.25617 38.4182 9.2134 37.31 11.88 37.31V35.71ZM6.311 39.81V36.642H4.711V39.81H6.311ZM5.511 35.842H3.267V37.442H5.511V35.842ZM2.467 36.642V54H4.067V36.642H2.467ZM3.267 54.8H5.61V53.2H3.267V54.8ZM6.41 54V44.892H4.81V54H6.41ZM6.41 44.892C6.41 43.0632 6.93374 41.7103 7.77211 40.8206C8.60568 39.936 9.83209 39.422 11.418 39.422V37.822C9.47291 37.822 7.79532 38.463 6.60764 39.7234C5.42476 40.9787 4.81 42.7608 4.81 44.892H6.41ZM11.418 39.422C12.8422 39.422 13.8582 39.8404 14.5266 40.5634C15.2039 41.2961 15.634 42.46 15.634 44.166H17.234C17.234 42.209 16.7401 40.6009 15.7014 39.4773C14.6538 38.3441 13.1618 37.822 11.418 37.822V39.422ZM15.634 44.166V54H17.234V44.166H15.634ZM16.434 54.8H18.777V53.2H16.434V54.8ZM19.577 54V44.892H17.977V54H19.577ZM19.577 44.892C19.577 43.0602 20.0942 41.7078 20.9279 40.8195C21.756 39.937 22.9809 39.422 24.585 39.422V37.822C22.6251 37.822 20.946 38.462 19.7612 39.7245C18.5818 40.9812 17.977 42.7638 17.977 44.892H19.577ZM24.585 39.422C25.9904 39.422 26.9982 39.839 27.6634 40.562C28.3379 41.2952 28.768 42.46 28.768 44.166H30.368C30.368 42.209 29.8741 40.6018 28.8409 39.4787C27.7983 38.3455 26.3146 37.822 24.585 37.822V39.422ZM28.768 44.166V54H30.368V44.166H28.768ZM29.568 54.8H31.911V53.2H29.568V54.8ZM32.711 54V43.935H31.111V54H32.711ZM32.711 43.935C32.711 41.2978 31.9751 39.2149 30.5655 37.791C29.1559 36.3671 27.179 35.71 24.915 35.71V37.31C26.875 37.31 28.3961 37.8739 29.4285 38.9167C30.4609 39.9596 31.111 41.5892 31.111 43.935H32.711ZM38.595 38.853L38.0773 38.2432L37.5583 38.6838L37.9102 39.2665L38.595 38.853ZM39.651 40.602L38.9662 41.0155L39.462 41.8367L40.1808 41.2015L39.651 40.602ZM50.343 44.199V44.999H51.143V44.199H50.343ZM50.442 51.294H51.242V48.3748L49.7538 50.8862L50.442 51.294ZM50.442 54H49.642V54.8H50.442V54ZM52.686 54V54.8H53.486V54H52.686ZM50.343 45.948H51.143V45.148H50.343V45.948ZM50.343 48.786L51.0843 49.0868L51.143 48.9421V48.786H50.343ZM45.657 35.71C42.7654 35.71 39.9968 36.6134 38.0773 38.2432L39.1128 39.4628C40.6913 38.1226 43.0707 37.31 45.657 37.31V35.71ZM37.9102 39.2665L38.9662 41.0155L40.3359 40.1885L39.2799 38.4395L37.9102 39.2665ZM40.1808 41.2015C41.4398 40.0888 43.358 39.356 45.426 39.356V37.756C43.0061 37.756 40.7003 38.6072 39.1213 40.0025L40.1808 41.2015ZM45.426 39.356C46.9195 39.356 47.9223 39.7292 48.5494 40.3187C49.1682 40.9004 49.543 41.8077 49.543 43.143H51.143C51.143 41.5083 50.6764 40.1221 49.6452 39.1528C48.6223 38.1913 47.1665 37.756 45.426 37.756V39.356ZM49.543 43.143V44.199H51.143V43.143H49.543ZM50.343 43.399H44.832V44.999H50.343V43.399ZM44.832 43.399C42.2347 43.399 40.3453 43.9823 39.0955 45.0459C37.8257 46.1264 37.333 47.6019 37.333 49.116H38.933C38.933 47.9571 39.2984 46.9741 40.1324 46.2644C40.9863 45.5377 42.4464 44.999 44.832 44.999V43.399ZM37.333 49.116C37.333 50.8501 38.0375 52.3438 39.3244 53.3879C40.5956 54.4192 42.3737 54.965 44.469 54.965V53.365C42.6374 53.365 41.2475 52.8878 40.3325 52.1454C39.4331 51.4157 38.933 50.3849 38.933 49.116H37.333ZM44.469 54.965C47.5462 54.965 49.8951 53.7862 51.1303 51.7018L49.7538 50.8862C48.877 52.3658 47.1339 53.365 44.469 53.365V54.965ZM49.642 51.294V54H51.242V51.294H49.642ZM50.442 54.8H52.686V53.2H50.442V54.8ZM53.486 54V43.242H51.886V54H53.486ZM53.486 43.242C53.486 40.8481 52.8048 38.9254 51.4018 37.6095C50.0077 36.3019 48.0243 35.71 45.657 35.71V37.31C47.7778 37.31 49.3089 37.8401 50.3073 38.7765C51.2968 39.7046 51.886 41.1479 51.886 43.242H53.486ZM44.832 51.517C43.554 51.517 42.6466 51.2264 42.0792 50.7992C41.5386 50.3923 41.243 49.8172 41.243 49.05H39.643C39.643 50.2958 40.156 51.3542 41.1169 52.0775C42.051 52.7806 43.3381 53.117 44.832 53.117V51.517ZM41.243 49.05C41.243 48.3311 41.454 47.8176 41.9071 47.4562C42.3966 47.0658 43.297 46.748 44.898 46.748V45.148C43.1331 45.148 41.806 45.4902 40.9095 46.2053C39.9766 46.9494 39.643 47.9869 39.643 49.05H41.243ZM44.898 46.748H50.343V45.148H44.898V46.748ZM49.543 45.948V48.786H51.143V45.948H49.543ZM49.6018 48.4852C48.8108 50.4344 47.1754 51.517 44.832 51.517V53.117C47.7687 53.117 50.0273 51.6916 51.0843 49.0868L49.6018 48.4852ZM68.6859 51.261L69.4042 50.9089L68.938 49.9578L68.1507 50.6664L68.6859 51.261ZM63.1089 38.622V37.822H62.3089V38.622H63.1089ZM68.3889 38.622V39.422H69.1889V38.622H68.3889ZM68.3889 36.642H69.1889V35.842H68.3889V36.642ZM63.1089 36.642H62.3089V37.442H63.1089V36.642ZM63.1089 32.847H63.9089V32.047H63.1089V32.847ZM60.7659 32.847V32.047H59.9659V32.847H60.7659ZM60.7659 36.642V37.442H61.5659V36.642H60.7659ZM57.6639 36.642V35.842H56.8639V36.642H57.6639ZM57.6639 38.622H56.8639V39.422H57.6639V38.622ZM60.7659 38.622H61.5659V37.822H60.7659V38.622ZM69.5109 52.944L70.0437 53.5408L70.4963 53.1367L70.2292 52.5919L69.5109 52.944ZM68.1507 50.6664C67.6712 51.0979 66.9217 51.352 66.1119 51.352V52.952C67.2161 52.952 68.3806 52.6121 69.2211 51.8556L68.1507 50.6664ZM66.1119 51.352C65.2916 51.352 64.7773 51.1193 64.4614 50.7854C64.1388 50.4444 63.9089 49.8774 63.9089 48.984H62.3089C62.3089 50.1366 62.607 51.1536 63.2992 51.8851C63.998 52.6237 64.9851 52.952 66.1119 52.952V51.352ZM63.9089 48.984V38.622H62.3089V48.984H63.9089ZM63.1089 39.422H68.3889V37.822H63.1089V39.422ZM69.1889 38.622V36.642H67.5889V38.622H69.1889ZM68.3889 35.842H63.1089V37.442H68.3889V35.842ZM63.9089 36.642V32.847H62.3089V36.642H63.9089ZM63.1089 32.047H60.7659V33.647H63.1089V32.047ZM59.9659 32.847V36.642H61.5659V32.847H59.9659ZM60.7659 35.842H57.6639V37.442H60.7659V35.842ZM56.8639 36.642V38.622H58.4639V36.642H56.8639ZM57.6639 39.422H60.7659V37.822H57.6639V39.422ZM59.9659 38.622V49.116H61.5659V38.622H59.9659ZM59.9659 49.116C59.9659 50.8653 60.4644 52.3548 61.5161 53.4066C62.5679 54.4584 64.0659 54.965 65.8479 54.965V53.365C64.3629 53.365 63.3198 52.9476 62.6474 52.2752C61.9749 51.6027 61.5659 50.5677 61.5659 49.116H59.9659ZM65.8479 54.965C67.3308 54.965 68.93 54.5351 70.0437 53.5408L68.9781 52.3472C68.2438 53.0029 67.071 53.365 65.8479 53.365V54.965ZM70.2292 52.5919L69.4042 50.9089L67.9676 51.6131L68.7926 53.2961L70.2292 52.5919ZM88.5418 51.327L89.1546 51.8413L89.594 51.3178L89.1455 50.8021L88.5418 51.327ZM87.2218 49.809L87.8255 49.2841L87.2218 48.5898L86.6181 49.2841L87.2218 49.809ZM75.0778 46.047V45.247H74.2175L74.2799 46.105L75.0778 46.047ZM89.5978 46.047V46.847H90.3978V46.047H89.5978ZM87.3868 44.298V45.098H88.2598L88.1838 44.2284L87.3868 44.298ZM75.0778 44.298L74.2809 44.2284L74.2049 45.098H75.0778V44.298ZM90.4308 45.321C90.4308 42.5302 89.4832 40.1213 87.8311 38.4054C86.1776 36.6879 83.8612 35.71 81.2158 35.71V37.31C83.4544 37.31 85.3455 38.1306 86.6785 39.5151C88.013 40.9012 88.8308 42.8978 88.8308 45.321H90.4308ZM81.2158 35.71C75.8659 35.71 71.9348 39.7557 71.9348 45.321H73.5348C73.5348 40.5903 76.7978 37.31 81.2158 37.31V35.71ZM71.9348 45.321C71.9348 48.0923 72.9332 50.5151 74.6996 52.245C76.4653 53.9744 78.9506 54.965 81.8428 54.965V53.365C79.323 53.365 77.2544 52.5076 75.8191 51.102C74.3845 49.6969 73.5348 47.6977 73.5348 45.321H71.9348ZM81.8428 54.965C84.7712 54.965 87.4238 53.9036 89.1546 51.8413L87.9291 50.8127C86.5579 52.4464 84.3924 53.365 81.8428 53.365V54.965ZM89.1455 50.8021L87.8255 49.2841L86.6181 50.3339L87.9381 51.8519L89.1455 50.8021ZM86.6181 49.2841C85.4711 50.6032 83.8233 51.286 81.9088 51.286V52.886C84.2183 52.886 86.3326 52.0508 87.8255 50.3339L86.6181 49.2841ZM81.9088 51.286C78.4924 51.286 76.1064 49.1613 75.8757 45.989L74.2799 46.105C74.5772 50.1927 77.7353 52.886 81.9088 52.886V51.286ZM75.0778 46.847H89.5978V45.247H75.0778V46.847ZM90.3978 46.047C90.3978 45.9447 90.4043 45.837 90.4126 45.7125C90.42 45.6008 90.4308 45.4532 90.4308 45.321H88.8308C88.8308 45.3868 88.8252 45.4702 88.8161 45.606C88.8079 45.729 88.7978 45.8853 88.7978 46.047H90.3978ZM81.2158 39.323C84.1797 39.323 86.3272 41.3614 86.5899 44.3676L88.1838 44.2284C87.8525 40.4366 85.0499 37.723 81.2158 37.723V39.323ZM87.3868 43.498H75.0778V45.098H87.3868V43.498ZM75.8748 44.3676C76.1377 41.3586 78.2877 39.323 81.2158 39.323V37.723C77.412 37.723 74.6119 40.4394 74.2809 44.2284L75.8748 44.3676Z" fill="black"/>
</svg>
