<svg width="22" height="19" viewBox="0 0 22 19" fill="none" xmlns="http://www.w3.org/2000/svg">
<g clip-path="url(#clip0)">
<path d="M12.4458 9.0513L14.5905 11.5028L17.4748 13.3458L17.9765 9.06677L17.4748 4.88428L14.5353 6.50325L12.4458 9.0513Z" fill="#00832D"/>
<path d="M0 12.9474V16.5938C0 17.4263 0.675813 18.1023 1.50855 18.1023H5.15488L5.90992 15.3472L5.15488 12.9474L2.65323 12.1924L8.59375e-05 12.9474H0Z" fill="#0066DA"/>
<path d="M5.15487 0L0 5.15488L2.65341 5.90812L5.15487 5.15488L5.89617 2.78773L5.15487 0Z" fill="#E94235"/>
<path d="M0 12.9491H5.15488V5.15479H8.59375e-05L0 12.9491Z" fill="#2684FC"/>
<path d="M20.7679 2.18275L17.4749 4.88428V13.3457L20.7815 16.0577C21.2765 16.4455 22.0006 16.0921 22.0006 15.4628V2.76558C22.0006 2.12938 21.2592 1.77773 20.7678 2.18284" fill="#00AC47"/>
<path d="M12.4458 9.05127V12.9475H5.15503V18.1024H15.9663C16.799 18.1024 17.4748 17.4264 17.4748 16.5938V13.3457L12.4458 9.05127Z" fill="#00AC47"/>
<path d="M15.9663 0H5.15503V5.15488H12.4458V9.05111L17.4749 4.884V1.50863C17.4749 0.675898 16.799 8.59375e-05 15.9663 8.59375e-05" fill="#FFBA00"/>
</g>
<defs>
<clipPath id="clip0">
<rect width="22" height="18.1328" fill="white"/>
</clipPath>
</defs>
</svg>
