<svg width="32" height="32" viewBox="0 0 32 32" fill="none" xmlns="http://www.w3.org/2000/svg">
<path d="M19.9993 9.99927L9.58579 20.5857C9.21071 20.9607 9 21.4694 9 21.9999C9 22.5303 9.21071 23.039 9.58579 23.4141C9.96086 23.7892 10.4696 23.9999 11 23.9999C11.5304 23.9999 12.0391 23.7892 12.4142 23.4141L24.8277 10.8277C25.1991 10.4563 25.4938 10.0153 25.6948 9.53C25.8958 9.0447 25.9993 8.52455 25.9993 7.99927C25.9993 7.47398 25.8958 6.95384 25.6948 6.46853C25.4938 5.98323 25.1991 5.54227 24.8277 5.17084C24.4563 4.79941 24.0153 4.50477 23.53 4.30375C23.0447 4.10273 22.5246 3.99927 21.9993 3.99927C21.474 3.99927 20.9538 4.10273 20.4685 4.30375C19.9832 4.50477 19.5423 4.79941 19.1708 5.17084L6.75736 17.7572C5.63214 18.8825 5 20.4086 5 21.9999C5 23.5912 5.63214 25.1173 6.75736 26.2425C7.88258 27.3677 9.4087 27.9999 11 27.9999C12.5913 27.9999 14.1174 27.3677 15.2426 26.2425L25.4993 15.9993" stroke="black" stroke-width="2" stroke-linecap="round" stroke-linejoin="round"/>
</svg>
